<?xml version="1.0" encoding="UTF-8" standalone="no"?>
<svg
   id="svg178"
   version="1.2"
   viewBox="0 0 486.83661 827.19128"
   height="827.19128pt"
   width="486.83661pt"
   sodipodi:docname="edomex_sq_zoom.svg"
   inkscape:version="1.1.1 (3bf5ae0d25, 2021-09-20)"
   xmlns:inkscape="http://www.inkscape.org/namespaces/inkscape"
   xmlns:sodipodi="http://sodipodi.sourceforge.net/DTD/sodipodi-0.dtd"
   xmlns="http://www.w3.org/2000/svg"
   xmlns:svg="http://www.w3.org/2000/svg"
   xmlns:rdf="http://www.w3.org/1999/02/22-rdf-syntax-ns#"
   xmlns:cc="http://creativecommons.org/ns#"
   xmlns:dc="http://purl.org/dc/elements/1.1/">
  <sodipodi:namedview
     id="namedview102"
     pagecolor="#ffffff"
     bordercolor="#666666"
     borderopacity="1.0"
     inkscape:pageshadow="2"
     inkscape:pageopacity="0.0"
     inkscape:pagecheckerboard="0"
     inkscape:document-units="pt"
     showgrid="false"
     inkscape:zoom="0.50383782"
     inkscape:cx="638.10216"
     inkscape:cy="697.64513"
     inkscape:window-width="1884"
     inkscape:window-height="1055"
     inkscape:window-x="36"
     inkscape:window-y="0"
     inkscape:window-maximized="1"
     inkscape:current-layer="surface282" />
  <metadata
     id="metadata182">
    <rdf:RDF>
      <cc:Work
         rdf:about="">
        <dc:format>image/svg+xml</dc:format>
        <dc:type
           rdf:resource="http://purl.org/dc/dcmitype/StillImage" />
        <dc:title />
      </cc:Work>
    </rdf:RDF>
  </metadata>
  <defs
     id="defs65">
    <clipPath
       id="clip1">
      <path
         id="path2"
         d="M 0,0 H 482 V 476 H 0 Z m 0,0" />
    </clipPath>
    <clipPath
       id="clip2">
      <path
         id="path5"
         d="M 0.675781,0 H 481.30469 c 0.375,0 0.67578,0.300781 0.67578,0.675781 V 474.72266 c 0,0.37109 -0.30078,0.67187 -0.67578,0.67187 H 0.675781 C 0.300781,475.39453 0,475.09375 0,474.72266 V 0.675781 C 0,0.300781 0.300781,0 0.675781,0 Z m 0,0" />
    </clipPath>
    <clipPath
       id="clip3">
      <path
         id="path8"
         d="M 3,0 H 481 V 476 H 3 Z m 0,0" />
    </clipPath>
    <clipPath
       id="clip4">
      <path
         id="path11"
         d="M 0.675781,0 H 481.30469 c 0.375,0 0.67578,0.300781 0.67578,0.675781 V 474.72266 c 0,0.37109 -0.30078,0.67187 -0.67578,0.67187 H 0.675781 C 0.300781,475.39453 0,475.09375 0,474.72266 V 0.675781 C 0,0.300781 0.300781,0 0.675781,0 Z m 0,0" />
    </clipPath>
    <clipPath
       id="clip5">
      <path
         id="path14"
         d="M 3,4 H 481 V 471 H 3 Z m 0,0" />
    </clipPath>
    <clipPath
       id="clip6">
      <path
         id="path17"
         d="M 0.675781,0 H 481.30469 c 0.375,0 0.67578,0.300781 0.67578,0.675781 V 474.72266 c 0,0.37109 -0.30078,0.67187 -0.67578,0.67187 H 0.675781 C 0.300781,475.39453 0,475.09375 0,474.72266 V 0.675781 C 0,0.300781 0.300781,0 0.675781,0 Z m 0,0" />
    </clipPath>
    <clipPath
       id="clip7">
      <path
         id="path20"
         d="M 0,0 H 482 V 476 H 0 Z m 0,0" />
    </clipPath>
    <clipPath
       id="clip8">
      <path
         id="path23"
         d="M 0.675781,0 H 481.30469 c 0.375,0 0.67578,0.300781 0.67578,0.675781 V 474.72266 c 0,0.37109 -0.30078,0.67187 -0.67578,0.67187 H 0.675781 C 0.300781,475.39453 0,475.09375 0,474.72266 V 0.675781 C 0,0.300781 0.300781,0 0.675781,0 Z m 0,0" />
    </clipPath>
    <clipPath
       id="clip9">
      <path
         id="path26"
         d="M 40,375 H 285 V 476 H 40 Z m 0,0" />
    </clipPath>
    <clipPath
       id="clip10">
      <path
         id="path29"
         d="M 0.675781,0 H 481.30469 c 0.375,0 0.67578,0.300781 0.67578,0.675781 V 474.72266 c 0,0.37109 -0.30078,0.67187 -0.67578,0.67187 H 0.675781 C 0.300781,475.39453 0,475.09375 0,474.72266 V 0.675781 C 0,0.300781 0.300781,0 0.675781,0 Z m 0,0" />
    </clipPath>
    <clipPath
       id="clip11">
      <path
         id="path32"
         d="m 311,57 h 171 v 93 H 311 Z m 0,0" />
    </clipPath>
    <clipPath
       id="clip12">
      <path
         id="path35"
         d="M 0.675781,0 H 481.30469 c 0.375,0 0.67578,0.300781 0.67578,0.675781 V 474.72266 c 0,0.37109 -0.30078,0.67187 -0.67578,0.67187 H 0.675781 C 0.300781,475.39453 0,475.09375 0,474.72266 V 0.675781 C 0,0.300781 0.300781,0 0.675781,0 Z m 0,0" />
    </clipPath>
    <clipPath
       id="clip13">
      <path
         id="path38"
         d="M 265,132 H 482 V 411 H 265 Z m 0,0" />
    </clipPath>
    <clipPath
       id="clip14">
      <path
         id="path41"
         d="M 0.675781,0 H 481.30469 c 0.375,0 0.67578,0.300781 0.67578,0.675781 V 474.72266 c 0,0.37109 -0.30078,0.67187 -0.67578,0.67187 H 0.675781 C 0.300781,475.39453 0,475.09375 0,474.72266 V 0.675781 C 0,0.300781 0.300781,0 0.675781,0 Z m 0,0" />
    </clipPath>
    <clipPath
       id="clip15">
      <path
         id="path44"
         d="M 0,0 H 329 V 456 H 0 Z m 0,0" />
    </clipPath>
    <clipPath
       id="clip16">
      <path
         id="path47"
         d="M 0.675781,0 H 481.30469 c 0.375,0 0.67578,0.300781 0.67578,0.675781 V 474.72266 c 0,0.37109 -0.30078,0.67187 -0.67578,0.67187 H 0.675781 C 0.300781,475.39453 0,475.09375 0,474.72266 V 0.675781 C 0,0.300781 0.300781,0 0.675781,0 Z m 0,0" />
    </clipPath>
    <clipPath
       id="clip17">
      <path
         id="path50"
         d="M 502.80078,148.72656 H 949.57422 V 477.75 H 502.80078 Z m 0,0" />
    </clipPath>
    <clipPath
       id="clip18">
      <path
         id="path53"
         d="M -977.10937,-608.45703 H 1514.0664 c 1.9453,0 3.5,1.28125 3.5,2.87891 V 1414.1914 c 0,1.5781 -1.5547,2.8594 -3.5,2.8594 H -977.10937 c -1.94141,0 -3.50391,-1.2813 -3.50391,-2.8594 V -605.57812 c 0,-1.59766 1.5625,-2.87891 3.50391,-2.87891 z m 0,0" />
    </clipPath>
    <clipPath
       id="clip19">
      <path
         id="path56"
         d="M 502.80078,148.72656 H 725 V 477.75 H 502.80078 Z m 0,0" />
    </clipPath>
    <clipPath
       id="clip20">
      <path
         id="path59"
         d="M -977.10937,-608.45703 H 1514.0664 c 1.9453,0 3.5,1.28125 3.5,2.87891 V 1414.1914 c 0,1.5781 -1.5547,2.8594 -3.5,2.8594 H -977.10937 c -1.94141,0 -3.50391,-1.2813 -3.50391,-2.8594 V -605.57812 c 0,-1.59766 1.5625,-2.87891 3.50391,-2.87891 z m 0,0" />
    </clipPath>
    <clipPath
       id="clip21">
      <path
         id="path62"
         d="M 281,250 H 508 V 477.75 H 281 Z m 0,0" />
    </clipPath>
  </defs>
  <g
     id="surface282"
     transform="translate(4.8365946)">
    <g
       id="g71"
       clip-rule="nonzero"
       clip-path="url(#clip1)">
      <g
         id="g69"
         clip-rule="nonzero"
         clip-path="url(#clip2)">
        <path
           id="path67"
           d="M 0,0 H 482 V 476 H 0 Z m 0,0"
           style="fill:#ffffff;fill-opacity:1;fill-rule:nonzero;stroke:none" />
      </g>
    </g>
    <g
       id="g77"
       clip-rule="nonzero"
       clip-path="url(#clip3)">
      <g
         id="g75"
         clip-rule="nonzero"
         clip-path="url(#clip4)">
        <path
           id="path73"
           d="M 3.582031,-21.382812 H 480.03516 V 496.33203 H 3.582031 Z m 0,0"
           style="fill:#ffffff;fill-opacity:1;fill-rule:nonzero;stroke:none" />
      </g>
    </g>
    <g
       id="g83"
       clip-rule="nonzero"
       clip-path="url(#clip5)">
      <g
         id="g81"
         clip-rule="nonzero"
         clip-path="url(#clip6)">
        <path
           id="path79"
           d="m 49.386719,446.87891 h 5.867187 l 5.867188,3.52343 10.566406,9.38672 7.039062,3.51953 1.175782,3.51953 7.039062,3.51954 h 5.867188 l 2.347656,-3.51954 4.691406,-2.34765 1.175784,-3.51953 -1.175784,-4.69141 4.695314,-5.86719 1.17187,-4.69531 2.34766,-3.51953 2.34766,1.17187 2.34765,-4.6914 4.69141,1.17187 4.67969,-4.69531 7.05468,-8.21094 7.03907,-4.69531 5.86718,1.16797 4.69532,-1.16797 4.68359,2.34766 7.05078,-2.34766 3.51953,1.16797 3.51953,-1.16797 4.69532,2.34766 4.68359,-2.34766 7.05469,2.34766 8.21484,-4.69532 3.51953,1.17579 4.67969,-5.86719 1.1875,-4.69531 5.86719,-4.69141 1.16797,-3.52734 3.51171,-2.33985 3.53516,-14.08203 9.38672,-2.34766 h 3.51953 l 3.51953,2.34766 11.73438,-2.34766 2.34765,3.51563 4.69141,-1.16797 3.52344,4.6875 2.34375,1.17969 3.52343,4.6875 2.34375,8.21875 8.20704,1.17578 7.05468,-3.52734 v -12.90235 l -1.1875,-4.69922 -2.33984,-2.33984 2.33984,-4.69922 -1.16406,-5.86719 1.16406,-3.51562 h 2.35547 l 1.17188,-5.86719 -1.17188,-5.87109 2.34766,-3.51563 4.6914,-2.33594 2.33204,-8.23046 3.53515,-1.17188 2.33203,-3.51562 4.71485,1.18359 3.51562,-2.36328 v -5.86719 l 3.50391,-1.17187 -1.15235,-7.03516 5.86719,-5.86719 v -4.69922 h 2.33985 v -9.38672 l 1.17968,-7.04296 -2.36328,-2.34375 1.1836,-5.86719 -7.05469,-5.86719 1.1875,-4.69531 -7.05469,-11.73438 -2.33203,-2.33593 1.17969,-4.70313 -2.35157,-5.86719 -3.51562,-3.51953 -1.17969,-3.51172 7.04688,-5.86718 2.33984,-4.70313 4.67969,-1.16406 2.36328,-2.35547 1.16406,4.6875 -3.52734,2.35156 -7.01953,3.51563 1.15234,5.86718 8.23047,-7.03515 9.375,-9.38672 4.71094,-1.17969 3.51953,-4.6875 v -2.34765 l -4.70703,1.16796 -2.33985,3.53516 -4.6875,4.68359 -1.17968,-3.51953 8.20703,-7.03125 -2.33985,-8.22265 -1.18359,-2.35157 1.18359,-2.34765 4.6836,2.34765 3.52343,-1.16015 -1.16015,-3.53516 4.6875,-4.6875 1.17969,-7.04687 -1.17969,-4.69141 4.68359,-2.34766 2.36328,5.86719 1.15625,5.86719 1.1836,1.17187 2.34765,-4.6914 1.17969,-8.21485 2.33984,-3.51953 2.34766,2.35938 -1.18359,8.19922 1.18359,7.04687 -4.6875,4.6875 -3.52734,1.17969 2.34765,5.86719 -1.18359,2.35547 v 4.67968 l 5.86719,-1.16797 v -4.69921 l 2.36328,-4.67969 4.6875,-4.70703 8.20312,3.51953 3.53516,8.21875 -1.1875,3.51562 1.1875,3.51953 -2.35156,2.34766 -3.51953,-1.16797 -1.1836,4.6875 2.36328,4.69922 4.69141,2.34766 3.51562,-2.34766 2.35157,3.51953 10.54687,9.38281 2.35547,7.04688 1.16406,4.69141 -1.16406,4.69531 2.35156,1.17187 -2.35156,2.34766 2.35156,9.38672 -1.1875,7.03906 -2.33203,11.73438 -2.34765,4.69531 11.73437,4.69531 9.38672,7.03906 4.69531,7.03907 -1.1875,5.86718 4.70703,3.51953 2.34766,-2.34375 2.33203,4.69141 h 5.86719 l 3.53515,3.51953 4.6836,-2.33984 h 7.05078 l 5.86719,-5.8711 5.86718,-8.21484 8.20313,-3.51953 2.34766,-7.04297 -2.34766,-12.90625 1.18359,-16.42578 -3.51953,-15.24609 -4.69531,-18.78516 -1.17188,-18.77344 -1.18359,-11.73437 7.05078,-1.17969 1.17188,-5.86719 -2.35547,-1.17187 -1.16406,-3.51563 -7.05079,-9.3789 -2.33593,-4.70704 v -9.38671 l 3.51953,-3.51172 5.86719,-1.1836 8.21875,-5.86718 7.03515,-2.33594 7.03125,-1.1836 4.70313,-4.68359 -4.70313,-5.86719 -1.16406,-8.21484 7.03125,-1.18359 2.34766,-3.51954 -5.86719,-1.16406 -3.51172,-5.86719 -5.86719,-1.17968 -1.16797,-7.04297 h -8.21875 l -4.70312,1.17578 -5.86719,-3.52344 -8.21484,-11.73828 h -12.89844 l -12.90625,-1.15234 -7.05469,-1.1875 -3.50781,-3.52735 -7.03906,2.35157 -3.53516,10.57031 -5.86719,9.38672 -3.51953,1.16406 -5.86719,-3.51953 -2.34765,-5.86719 2.34765,-8.21875 4.70704,-11.734374 -2.35157,-5.867187 5.86719,-5.867188 v -7.023437 l -4.70312,-7.050782 -4.6836,-1.179687 -4.70312,-5.867187 -11.73438,-1.15625 -5.86719,7.023437 -8.21484,4.707031 -12.89062,1.160156 h -9.38672 l -4.71094,5.867188 1.18359,4.707031 -4.6875,4.679688 -2.36328,3.527343 5.86719,3.527348 3.52344,4.67968 -2.33985,4.71485 -4.6875,-1.1875 -1.17968,5.86719 h -3.52735 l -1.16406,5.86718 -4.69531,-1.17578 -5.86719,2.36328 1.17969,2.33985 -4.71485,1.16406 -2.33203,4.70312 v 3.51953 l -4.6914,1.16407 -1.17579,-5.86719 4.69532,-2.34375 -1.17578,-3.52344 -2.34375,1.1836 v -4.70313 l -4.70313,-1.16406 -2.33984,-5.86719 -3.52735,-1.1875 h -7.03125 l -2.34765,-5.86719 1.17187,-7.023434 -3.52734,-3.523437 1.18359,-4.707031 -2.34765,-9.371094 5.86718,-4.703125 -5.86718,-10.550781 V 60.8125 l -4.70313,-3.503906 1.18359,-9.386719 -4.69531,-4.710937 -5.86719,-2.339844 -4.69921,2.339844 -4.6875,-1.15625 -25.81641,-2.347657 -4.69141,-1.1875 -3.53515,-3.515625 -3.51172,1.183594 -7.03516,-5.867188 -8.21875,-3.535156 -4.70312,-4.679687 -3.51172,-4.707031 -8.22266,-7.027344 -5.86719,2.347656 -2.33203,-2.347656 -2.35156,-1.1875 -1.18359,-4.679688 -4.6836,1.160156 1.17188,7.054688 2.34765,4.679688 -1.17187,8.21875 1.17187,7.035156 5.86719,5.867187 1.16406,4.691407 -5.86718,-3.503907 -4.6836,-1.1875 -10.5625,-5.867187 -5.86718,-1.167969 v 7.035156 l 8.21484,4.691407 1.16406,5.867187 -7.03125,1.179687 1.16406,7.050782 4.70313,3.503906 v 3.527344 l -5.86719,2.339844 -8.20703,1.179687 -5.86719,4.6875 -5.87109,10.574219 -5.86719,7.027344 1.17188,3.519531 3.51953,-1.15625 v 5.867187 l -2.34766,3.507814 1.17578,4.70312 -2.34765,3.52735 v 4.67969 l -7.03906,4.6914 -5.86719,4.70313 2.34375,2.33984 h 3.52344 v 3.52734 l -3.52344,2.33985 -2.34375,8.21093 1.17187,5.86719 -9.386716,8.21485 -5.867188,8.22265 -3.519531,1.16406 -5.867187,-2.34765 -2.347657,2.34765 1.167969,9.38672 4.699219,2.34766 4.6875,8.21484 -2.339844,8.22657 8.207031,23.46875 -1.167968,9.3789 -1.171876,5.86719 -4.695312,2.35547 -1.171875,7.03125 -7.046875,5.86719 -1.167969,9.38671 -3.519531,4.69532 -11.734375,14.08984 -5.867187,9.375 -11.734376,11.73438 -7.039062,3.52343 -10.566406,14.07813 -2.347656,8.23047 -7.035157,15.23828 v 9.38672 l -2.351562,4.71093 1.171875,4.6836 -2.339844,3.51953 v 4.6875 L 3.625,391.73047 h 11.738281 l 4.6875,1.16797 h 7.046875 l 11.734375,1.17968 1.167969,4.69141 2.351562,7.04297 3.515626,2.33984 v 8.21875 l 1.171874,8.21485 1.179688,5.86718 v 11.73438 z m 0,0"
           style="fill:#b3de63;fill-opacity:1;fill-rule:nonzero;stroke:none" />
      </g>
    </g>
    <g
       id="g89"
       clip-rule="nonzero"
       clip-path="url(#clip7)">
      <g
         id="g87"
         clip-rule="nonzero"
         clip-path="url(#clip8)">
        <path
           id="path85"
           d="m 49.386719,446.87891 h 5.867187 l 5.867188,3.52343 10.566406,9.38672 7.039062,3.51953 1.175782,3.51953 7.039062,3.51954 h 5.867188 l 2.347656,-3.51954 4.691406,-2.34765 1.175784,-3.51953 -1.175784,-4.69141 4.695314,-5.86719 1.17187,-4.69531 2.34766,-3.51953 2.34766,1.17187 2.34765,-4.6914 4.69141,1.17187 4.67969,-4.69531 7.05468,-8.21094 7.03907,-4.69531 5.86718,1.16797 4.69532,-1.16797 4.68359,2.34766 7.05078,-2.34766 3.51953,1.16797 3.51953,-1.16797 4.69532,2.34766 4.68359,-2.34766 7.05859,2.34766 8.21485,-4.69532 3.51953,1.17579 4.67969,-5.86719 1.1875,-4.69531 5.86718,-4.69141 1.16797,-3.52734 3.51172,-2.33985 3.53516,-14.08203 9.38672,-2.34766 h 3.51953 l 3.51953,2.34766 11.73437,-2.34766 2.34766,3.51563 4.69141,-1.16797 3.52343,4.6875 2.34375,1.17969 3.52344,4.6875 2.34375,8.21875 8.20703,1.17578 7.05469,-3.52734 v -12.90235 l -1.1875,-4.69922 -2.33984,-2.33984 2.33984,-4.69922 -1.16406,-5.86719 1.16406,-3.51562 h 2.35547 l 1.17187,-5.86719 -1.17187,-5.87109 2.34765,-3.51563 4.69141,-2.33594 2.33203,-8.23046 3.53516,-1.17188 2.33203,-3.51562 4.71484,1.18359 3.51563,-2.36328 v -5.86719 l 3.5039,-1.17187 -1.15234,-7.03516 5.86719,-5.86719 v -4.69922 h 2.33984 v -9.38672 l 1.17969,-7.04296 -2.36328,-2.34375 1.18359,-5.86719 -7.05469,-5.86719 1.1875,-4.69531 -7.05468,-11.73438 -2.33203,-2.33593 1.17968,-4.70313 -2.35156,-5.86719 -3.51562,-3.51953 -1.17969,-3.51172 7.04687,-5.86718 2.33985,-4.70313 4.67968,-1.16406 2.36329,-2.35547 1.16406,4.6875 -3.52735,2.35156 -7.01953,3.51563 1.15235,5.86718 8.23047,-7.03515 9.375,-9.38672 4.71093,-1.17969 3.51953,-4.6875 v -2.34765 l -4.70703,1.16796 -2.33984,3.53516 -4.6875,4.68359 -1.17969,-3.51953 8.20703,-7.03125 -2.33984,-8.22265 -1.18359,-2.35157 1.18359,-2.34765 4.68359,2.34765 3.52344,-1.16015 -1.16016,-3.53516 4.6875,-4.6875 1.17969,-7.04687 -1.17969,-4.69141 4.6836,-2.34766 2.36328,5.86719 1.15625,5.86719 1.18359,1.17187 2.34766,-4.6914 1.17969,-8.21485 2.33984,-3.51953 2.34766,2.35938 -1.1836,8.19922 1.1836,7.04687 -4.6875,4.6875 -3.52735,1.17969 2.34766,5.86719 -1.18359,2.35547 v 4.67968 l 5.86718,-1.16797 v -4.69921 l 2.36328,-4.67969 4.6875,-4.70703 8.20313,3.51953 3.53516,8.21875 -1.1875,3.51562 1.1875,3.51953 -2.35157,2.34766 -3.51953,-1.16797 -1.18359,4.6875 2.36328,4.69922 4.69141,2.34766 3.51562,-2.34766 2.35156,3.51953 10.54688,9.38281 2.35547,7.04688 1.16406,4.69141 -1.16406,4.69531 2.35156,1.17187 -2.35156,2.34766 2.35156,9.38672 -1.1875,7.03906 -2.33203,11.73438 -2.34766,4.69531 11.73438,4.69531 9.38672,7.03906 4.69531,7.03907 -1.1875,5.86718 4.70703,3.51953 2.34766,-2.34375 2.33203,4.69141 h 5.86718 l 3.53516,3.51953 4.68359,-2.33984 h 7.05079 l 5.86718,-5.8711 5.86719,-8.21484 8.20313,-3.51953 2.34765,-7.04297 -2.34765,-12.90625 1.18359,-16.42578 -3.51953,-15.24609 -4.69531,-18.78516 -1.17188,-18.77344 -1.18359,-11.73437 7.05078,-1.17969 1.17187,-5.86719 -2.35547,-1.17187 -1.16406,-3.51563 -7.05078,-9.3789 -2.33594,-4.70704 v -9.38671 l 3.51953,-3.51172 5.86719,-1.1836 8.21875,-5.86718 7.03516,-2.33594 7.03125,-1.1836 4.70312,-4.68359 -4.70312,-5.86719 -1.16406,-8.21484 7.03125,-1.18359 2.34765,-3.51954 -5.86719,-1.16406 -3.51171,-5.86719 -5.86719,-1.17968 -1.16797,-7.04297 h -8.21875 l -4.70313,1.17578 -5.86718,-3.52344 -8.21485,-11.73828 h -12.89843 l -12.90625,-1.15234 -7.05469,-1.1875 -3.50781,-3.52735 -7.03907,2.35157 -3.53515,10.57031 -5.86719,9.38672 -3.51953,1.16406 -5.86719,-3.51953 -2.34766,-5.86719 2.34766,-8.21875 4.70703,-11.734374 -2.35156,-5.867187 5.86719,-5.867188 v -7.023437 l -4.70313,-7.050782 -4.68359,-1.179687 -4.70313,-5.867187 -11.73437,-1.15625 -5.86719,7.023437 -8.21484,4.707031 -12.89063,1.160156 h -9.38672 l -4.71093,5.867188 1.18359,4.707031 -4.6875,4.679688 -2.36328,3.527343 5.86719,3.527348 3.52343,4.67968 -2.33984,4.71485 -4.6875,-1.1875 -1.17969,5.86719 h -3.52734 l -1.16406,5.86718 -4.69532,-1.17578 -5.86718,2.36328 1.17968,2.33985 -4.71484,1.16406 -2.33203,4.70312 v 3.51953 l -4.69141,1.16407 -1.17578,-5.86719 4.69531,-2.34375 -1.17578,-3.52344 -2.34375,1.1836 v -4.70313 l -4.70312,-1.16406 -2.33985,-5.86719 -3.52734,-1.1875 h -7.03125 l -2.34766,-5.86719 1.17188,-7.023434 -3.52735,-3.523437 1.1836,-4.707031 -2.34766,-9.371094 5.86719,-4.703125 -5.86719,-10.550781 V 60.8125 l -4.70312,-3.503906 1.18359,-9.386719 -4.69531,-4.710937 -5.86719,-2.339844 -4.69922,2.339844 -4.6875,-1.15625 -25.8164,-2.347657 -4.69141,-1.1875 -3.53516,-3.515625 -3.51172,1.183594 -7.03515,-5.867188 -8.21875,-3.535156 -4.70703,-4.679687 -3.50782,-4.707031 -8.22656,-7.027344 -5.86719,2.347656 -2.33203,-2.347656 -2.35156,-1.1875 -1.18359,-4.679688 -4.6836,1.160156 1.17188,7.054688 2.34765,4.679688 -1.17187,8.21875 1.17187,7.035156 5.86719,5.867187 1.16406,4.691407 -5.86718,-3.503907 -4.6836,-1.1875 -10.5625,-5.867187 -5.86718,-1.167969 v 7.035156 l 8.21484,4.691407 1.16406,5.867187 -7.03125,1.179687 1.16406,7.050782 4.70313,3.503906 v 3.527344 l -5.86719,2.339844 -8.20703,1.179687 -5.86719,4.6875 -5.87109,10.574219 -5.86719,7.027344 1.17188,3.519531 3.51953,-1.15625 v 5.867187 l -2.34766,3.507814 1.17578,4.70312 -2.34765,3.52735 v 4.67969 l -7.03906,4.6914 -5.86719,4.70313 2.34375,2.33984 h 3.52344 v 3.52734 l -3.52344,2.33985 -2.34375,8.21093 1.17187,5.86719 -9.386716,8.21485 -5.867188,8.22265 -3.519531,1.16406 -5.867187,-2.34765 -2.347657,2.34765 1.167969,9.38672 4.699219,2.34766 4.6875,8.21484 -2.339844,8.22657 8.207031,23.46875 -1.167968,9.3789 -1.171876,5.86719 -4.695312,2.35547 -1.171875,7.03125 -7.046875,5.86719 -1.167969,9.38671 -3.519531,4.69532 -11.734375,14.08984 -5.867187,9.375 -11.734376,11.73438 -7.039062,3.52343 -10.566406,14.07813 -2.347656,8.23047 -7.035157,15.23828 v 9.38672 l -2.351562,4.71093 1.171875,4.6836 -2.339844,3.51953 v 4.6875 L 3.625,391.73047 h 11.738281 l 4.6875,1.16797 h 7.046875 l 11.734375,1.17968 1.167969,4.69141 2.351562,7.04297 3.515626,2.33984 v 8.21875 l 1.171874,8.21485 1.179688,5.86718 v 11.73438 l 1.167969,4.69141"
           style="fill:none;stroke:#b3de63;stroke-width:3.00124;stroke-linecap:butt;stroke-linejoin:miter;stroke-miterlimit:2;stroke-opacity:1" />
      </g>
    </g>
    <g
       id="g95"
       clip-rule="nonzero"
       clip-path="url(#clip9)">
      <g
         id="g93"
         clip-rule="nonzero"
         clip-path="url(#clip10)">
        <path
           id="path91"
           d="m 49.386719,446.87891 7.175781,0.72656 0.05078,0.0391 8.605469,6.39844 0.04687,0.0391 7.90625,6.45703 0.0625,0.0312 5.8125,3.44531 0.02344,0.0586 1.816407,3.30859 0.04297,0.0312 6.5,2.85938 0.05859,0.0156 5.109375,-0.11328 0.04687,-0.0312 1.671875,-2.12891 0.03516,-0.0547 2.191407,-1.83594 0.05078,-0.0312 3.722657,-2.64063 0.0156,-0.0625 0.28516,-4.29687 -0.0156,-0.0625 -0.40625,-3.35156 0.0391,-0.0469 4.39453,-5.69531 0.0234,-0.0508 3.21875,-7.52735 0.0469,-0.0117 1.27344,0.47656 0.0586,0.0312 1.32422,-0.14844 0.0273,-0.0391 1.4336,-2.57422 0.0234,-0.0586 1.44141,-1.35157 0.0586,0.0156 4.3086,0.61719 0.043,-0.0391 4.41797,-4.38281 0.0469,-0.043 8.70312,-9.18359 0.0469,-0.0391 6.36719,-3.23438 0.0625,0.0156 5.13281,0.85546 0.0586,-0.008 5.32032,-0.41406 0.0508,0.0312 3.9414,1.47266 0.0586,-0.008 3.25781,-1.04297 0.0586,-0.0234 4.20313,-0.66797 0.0508,0.0156 3.44531,0.5 0.0586,-0.0273 3.16015,-0.5625 0.0586,0.0195 4.55468,1.60156 0.0508,-0.0156 5.30079,-1.51563 0.0508,0.0274 5.80078,1.61328 0.0508,-0.008 2.73828,-1.3711 0.0625,-0.0312 5.85938,-2.79687 0.0586,0.0234 3.34766,0.50782 0.043,-0.0352 4.60938,-7.31641 0.0156,-0.0625 1.44532,-3.42578 0.0547,-0.0312 4.98829,-4.21875 0.0312,-0.043 2.73828,-4.21093 0.0508,-0.0352 1.98047,-1.96484 0.0234,-0.0547 1.44922,-5.5 0.0156,-0.0586 2.625,-7.8125 0.0508,-0.0274 3.42969,-0.96094 0.0625,-0.0156 7.94531,-1.26953 h 0.0586 l 2.02735,0.80469 0.0508,0.0351 2.95703,1.41016 0.0586,-0.004 11.23438,-1.6914 0.0352,0.0391 3.21094,2.69922 0.0625,-0.0117 3.78125,-0.54297 0.0352,0.0469 3.80469,4.65235 0.0547,0.0273 2.1836,1.58594 0.0352,0.0508 3.30078,5.37109 0.0156,0.0625 2.37891,6.60157 0.0547,0.0156 7.97266,0.89844 0.0547,-0.0117 6.66406,-3.29687"
           style="fill:none;stroke:#de0f26;stroke-width:3.00124;stroke-linecap:butt;stroke-linejoin:miter;stroke-miterlimit:2;stroke-opacity:1" />
      </g>
    </g>
    <g
       id="g101"
       clip-rule="nonzero"
       clip-path="url(#clip11)">
      <g
         id="g99"
         clip-rule="nonzero"
         clip-path="url(#clip12)">
        <path
           id="path97"
           d="m 480.03906,140.60937 -6.29297,-1.91406 -0.0312,-0.0469 -2.51953,-4.29688 -0.0234,-0.0391 -1.76171,-0.98828 -0.0469,-0.0156 -4.81641,-1.80078 -0.008,-0.0547 -1.52344,-6.19531 -0.0469,-0.008 -8.41797,0.32031 -0.0508,0.008 -4.57813,0.40625 -0.043,-0.0234 -6.11719,-4.47656 -0.0274,-0.0469 -7.89453,-10.11328 -0.0469,-0.008 -5.19922,-0.0469 h -0.0508 l -15.11328,-0.74219 -0.0508,-0.008 -11.82422,-1.85937 -0.0469,-0.0312 -3.96875,-3.08985 -0.0547,0.0234 -6.58984,3.19531 -0.0195,0.043 -5.19922,12.73438 -0.0273,0.0469 -4.85547,6.51172 -0.0547,0.0156 -3.31641,0.29297 -0.043,-0.0312 -5.48438,-4.27734 -0.0234,-0.0508 -1.39453,-6.07813 0.0156,-0.0547 6.22656,-19.56641 -0.0156,-0.04687 -1.57421,-4.808594 0.0156,-0.03516 4.16406,-4.308594 0.0352,-0.03906 1.40234,-2.136719 -0.008,-0.05078 v -5.597657 l -0.91406,-1.808593 -0.0391,-0.04687 -5.00391,-6.097656 -0.0508,-0.0078 -3.82031,-1.285156 -0.0469,-0.03516 -3.42969,-4.269531 -0.0273,-0.03906 L 367.54687,66.5 h -0.0586 l -5.69922,-0.488281 -0.0547,-0.0078 -5.51562,0.167969 -7.85547,7.855469 -0.043,0.02734 -7.33203,3.371093 h -0.0508 l -18.28516,0.988281 h -2.1914"
           style="fill:none;stroke:#de0f26;stroke-width:3.00124;stroke-linecap:butt;stroke-linejoin:miter;stroke-miterlimit:2;stroke-opacity:1" />
      </g>
    </g>
    <g
       id="g107"
       clip-rule="nonzero"
       clip-path="url(#clip13)">
      <g
         id="g105"
         clip-rule="nonzero"
         clip-path="url(#clip14)">
        <path
           id="path103"
           d="m 275.875,402.28516 -0.82031,-15.48438 -0.0586,-0.17187 -1.1875,-6.33985 -0.008,-0.15234 0.33984,-8.53906 0.0312,-0.17188 1.17579,-3.64453 0.082,-0.12891 2.53125,-4.34375 V 355.25 l 0.0625,-0.16406 1.76172,-2.42578 0.1289,-0.0977 4.91406,-3.66016 0.0586,-0.16406 2.08594,-5.98047 0.1289,-0.10547 4.4336,-2.70312 0.1289,-0.082 4.02735,-1.71875 0.17187,-0.0274 4.25,-1.29297 0.0742,-0.11718 0.29297,-2.32032 -0.0312,-0.21875 0.0898,-3.26171 0.0586,-0.13672 1.51562,-1.5586 0.13672,-0.0742 1.38672,-1.52343 0.0469,-0.13672 -0.10547,-2.625 -0.0586,-0.19531 0.0156,-2.80079 0.0586,-0.14843 1.60547,-1.83985 0.17187,-0.10547 2.63282,-2.55859 0.0781,-0.15625 0.44922,-2.77734 v -0.17969 l 0.86328,-3.33594 0.0742,-0.10547 1.74609,-3.45312 0.0156,-0.16406 0.47265,-12.80079 -0.0586,-0.14843 -1.5625,-4.51172 -0.0117,-0.16406 -0.79687,-3.64844 -0.10547,-0.125 -2.25781,-1.6875 -0.19532,-0.0977 -2.04687,-1.89062 -0.0625,-0.14453 -0.0274,-2.21485 0.0586,-0.17187 0.32812,-3.26953 -0.043,-0.16016 -1.23828,-2.33984 -0.12109,-0.14844 -5.28906,-8.28516 -0.0899,-0.14062 -2.09375,-4.57032 -0.0234,-0.16406 -0.90625,-6.89844 -0.0899,-0.14843 -5.11719,-8.05078 0.0312,-0.13672 1.19141,-1.57422 0.16406,-0.10547 4.52344,-3.63672 0.10547,-0.14453 4.13672,-4.5 0.14062,-0.0898 6.22266,-2.79297 0.0664,0.0312 0.35937,1.1914 -0.0156,0.14453 -1.16407,2.96875 -0.10156,0.13672 -2.23047,1.69532 -0.17969,0.0664 -4.39062,2.60547 -0.0977,0.125 -1.18359,2.6875 v 0.11328 l 0.71875,1.35938 0.0898,0.0508 1.87891,0.10547 0.11719,-0.0469 2.55859,-1.91797 0.14453,-0.14453 12.66406,-11.63672 0.16016,-0.0742 4.79297,-2.82812 0.16016,-0.11328 2.34375,-2.80078 0.043,-0.11719 -0.32421,-2.03516 -0.0586,-0.0898 -1.26953,-0.42578 -0.10547,0.0273 -2.42969,1.76563 -0.14843,0.13281 -6.1836,5.82422 -0.082,-0.0469 -0.96094,-1.43359 -0.0351,-0.13281 0.46484,-1.81641 0.0899,-0.12109 2.78515,-1.9336 0.16406,-0.11328 2.71094,-2.76953 0.0742,-0.14062 0.77344,-2.71875 0.008,-0.15625 -0.87891,-3.57032 -0.0742,-0.17968 -1.14844,-5.52344 0.008,-0.16406 0.77344,-1.32813 0.10547,-0.0312 2.02343,0.47266 0.20313,0.10547 3.47266,1.01953 0.082,-0.0586 0.33203,-1.32812 -0.0156,-0.16797 0.375,-2.51172 0.0742,-0.14453 1.75781,-1.91016 0.16407,-0.11328 2.59765,-2.63281 0.0899,-0.15234 0.96875,-3.45704 0.0117,-0.17968 -0.52344,-4.07422 -0.0586,-0.1875 -0.30859,-3.07031 0.0508,-0.14063 1.41016,-1.64453 0.16015,-0.11328 2.66797,-0.83203 0.13672,0.0234 1.38672,1.10938 0.0859,0.14844 0.99609,3.76953 0.043,0.20703 1.76953,6.5 0.0899,-0.0156 1.35156,-1.08984 0.11328,-0.13281 1.54297,-3.15235 0.0391,-0.17187 2.58203,-9.93359 0.082,-0.0625 1.19141,0.12109 0.0977,0.0742 1.43359,2.39453 0.0391,0.15625 -0.16797,2.86719 -0.0508,0.1875 -0.5625,4.0664 0.0156,0.1875 0.3125,6.875 -0.0664,0.15625 -2.05469,2.51953 -0.15234,0.11329 -3.1875,1.48046 -0.19531,0.0664 -1.73438,1.37109 -0.0351,0.1211 0.52343,1.89062 0.11328,0.16407 1.64454,3.67968 0.008,0.1875 -0.64063,2.70703 -0.0976,0.19532 -0.44922,2.42968 0.0469,0.10547 1.45313,0.87891 0.17187,0.0312 2.73828,-0.36328 0.11329,-0.0664 0.92578,-1.60547 0.0195,-0.15625 1.36719,-5.5 0.0898,-0.15625 3.96875,-5.4414 0.12891,-0.14453 2.10546,-1.26563 0.15235,-0.0234 2.3164,0.40625 0.17579,0.0898 4.52343,3.09765 0.125,0.1211 2.46875,3.14453 0.0859,0.14844 1.38672,4.57031 0.0352,0.17969 0.21875,5.8164 -0.0508,0.13281 -1.50781,1.48047 -0.13672,0.0586 -3.68359,2.01953 -0.10547,0.0898 -1.36719,2.38281 -0.0117,0.15235 0.60547,2.80469 0.082,0.1875 2.01954,2.61328 0.13671,0.10547 2.75391,1.0039 0.17188,0.0234 7.11328,1.58203 0.13281,0.10547 8.26172,7.76562 0.11328,0.13672 2.80469,4.46875 0.0742,0.16797 1.77343,5.6875 0.0195,0.1875 0.80469,12.42188 -0.0391,0.16797 0.0312,3.89453 0.0391,0.17187 0.94531,6.73047 -0.0391,0.17188 -4.13281,17.375 -0.10547,0.18359 -1.17187,3.00781 0.0469,0.11328 1.28906,0.97266 0.17188,0.0547 9.09375,3.08203 0.16015,0.0898 7.00782,5.08203 0.14843,0.10157 4.34375,3.82812 0.1211,0.15234 1.95703,3.44922 0.0469,0.15625 0.23829,3.6875 0.008,0.16407 0.87109,3.63671 0.0742,0.16797 1.79297,2.23438 0.11328,0.0469 1.875,-0.0976 0.13672,-0.0625 2.31641,-0.30078 0.11328,0.0547 1.51562,1.64844 0.082,0.16797 2.06641,2.28125 0.14062,0.082 2.82813,0.71094 0.17969,0.0156 9.60547,1.01172 0.17968,-0.043 7.92188,-2.39453 0.14453,-0.0898 2.79687,-2.44531 0.1211,-0.13672 4.77344,-6.44532 0.10546,-0.14062 4.19141,-3.94141 0.16016,-0.0898 6.73828,-3.70703 0.082,-0.15625 1.02734,-3.55469 0.0234,-0.17969 0.0352,-4.75781 -0.0156,-0.17969 -1.46875,-14.61718 0.008,-0.17969 0.3086,-14.17969 -0.0469,-0.17578 -5.92578,-24.77344 -0.0469,-0.17187 -1.90625,-10.08594 -0.008,-0.17969 -0.74218,-12.64062 -0.0156,-0.1836 -1.08594,-14 0.10547,-0.0742 1.98047,-0.38281 0.22266,0.0156 3.37109,-0.33594 0.14844,-0.0781 1.54687,-1.7539 0.0742,-0.17188 0.39063,-3.10156 -0.0234,-0.14844 -1.33594,-2.42968 -0.10547,-0.1211 -3.33593,-4.64453 -0.0977,-0.15625 -7.91797,-12.65234 -0.0273,-0.17188 -0.0781,-4.00781 0.0234,-0.17969 1.17969,-5.3125 0.0742,-0.14062 1.73437,-1.82422 0.14063,-0.082 3.8789,-1.40235 0.17188,-0.0703 5.53906,-2.78125 0.14844,-0.0977 7.68359,-4.6289 0.17969,-0.0547 12.70312,-3.92969 0.12891,-0.10547 1.41797,-2.10156 0.0352,-0.1289 -0.21485,-2.79688 -0.0469,-0.13672 -1.85938,-2.97656 -0.10547,-0.15234 -1.84765,-3.83204 -0.0586,-0.20312 -0.32812,-3.51172 0.043,-0.12891 1.28515,-1.15234 0.14844,-0.0469 5.47656,-1.82422 0.12891,-0.11328 2.41406,-2.67579"
           style="fill:none;stroke:#de0f26;stroke-width:3.00124;stroke-linecap:butt;stroke-linejoin:miter;stroke-miterlimit:2;stroke-opacity:1" />
      </g>
    </g>
    <g
       id="g113"
       clip-rule="nonzero"
       clip-path="url(#clip15)">
      <g
         id="g111"
         clip-rule="nonzero"
         clip-path="url(#clip16)">
        <path
           id="path109"
           d="m 320.46484,78.414062 -4.03125,4.960938 -0.043,0.164062 0.21875,3.054688 0.0508,0.1875 -0.1211,2.597656 -0.0664,0.15625 -1.73438,2.023438 -0.17969,0.128906 -2.82031,2.785156 -0.0664,0.132813 -0.33203,2.238281 0.0312,0.132812 1.3125,2.148438 0.12891,0.109375 5.16016,4.839845 0.0664,0.17969 0.33985,3.03125 -0.0469,0.1289 -1.19141,1.06641 -0.14453,0.0352 -4.4414,1.03125 -0.082,0.125 -0.6211,2.64062 -0.0312,0.19531 -1.3125,2.85157 -0.10547,0.11328 -2.77734,1.59765 -0.125,0.0742 -6.03516,3.19922 -0.19531,0.0273 -4.71875,1.36719 -0.0977,0.0898 -6.41406,8.02734 -0.0742,0.17187 -1.98047,4.05469 -0.11328,0.0117 -2.01953,-0.80078 -0.14844,-0.11328 -1.08984,-1.63672 -0.008,-0.125 0.78906,-1.67969 0.12891,-0.13672 2.10547,-3.11328 0.008,-0.10547 -0.84766,-1.9375 -0.0508,-0.10937 -2.75391,-5.6211 -0.13671,-0.082 -5.05469,-3.38672 -0.10547,-0.14843 -2.71484,-3.40625 -0.16016,-0.0664 -2.63281,-0.23437 -0.21875,0.0312 -3.47266,-0.21875 -0.16406,-0.0586 -2.28906,-1.77734 -0.10547,-0.13672 -1.02735,-2.70703 -0.0234,-0.1836 -0.55469,-7.441402 -0.0899,-0.15625 -1.61328,-3.738282 -0.0156,-0.164062 -0.44141,-8.3125 -0.082,-0.195313 -0.64062,-3.25 0.0156,-0.164062 1.08984,-2.574219 0.0899,-0.144531 2.6914,-4.996094 0.0234,-0.140625 -0.32422,-2.265625 -0.0742,-0.160156 -3.375,-7.472657 -0.008,-0.195312 -0.71875,-3 -0.0898,-0.152344 -2.17969,-2.039062 -0.17969,-0.105469 -1.94922,-2.054687 -0.0586,-0.160157 -0.12891,-2.464843 0.043,-0.195313 0.42188,-5.125 -0.0234,-0.171875 -1.33594,-3.386719 -0.10156,-0.148437 -2.79297,-2.621094 -0.17187,-0.101562 -3.61719,-1.328126 -0.17188,-0.01562 -4.60156,0.320312 -0.17969,0.01563 -9.07031,-0.328125 -0.1875,-0.02344 -25.99219,-3.195312 -0.17187,-0.07031 -11.19531,-4.914063 -0.14844,-0.08984 -10.11328,-5.710937 -0.17969,-0.06641 -3.59375,-2.136719 -0.14453,-0.128907 -3.95313,-4.539062 -0.12109,-0.148438 -5.33594,-6.183593 -0.14843,-0.136719 -4.00782,-2.453125 -0.15625,-0.05859 -4.57031,-0.742187 h -0.16406 L 160.96484,10.519531 160.84375,10.414062 159.40234,8.125 159.3125,7.945312 157.48047,5.792969 157.33984,5.703125 154.75,4.996094 h -0.1875 l -1.80859,0.730468 -0.0742,0.101563 -0.23828,2.011719 0.0352,0.210937 2.02735,5.925781 0.0898,0.183594 1.52344,4.65625 v 0.1875 l -0.48828,11.179688 0.0508,0.179687 1.90625,3.226563 0.11328,0.136718 4.8164,6.828126 0.0547,0.121093 -0.0391,1.035157 -0.28516,0.04297 h -0.0898 l -5.24609,-1.679687 -0.1875,-0.06641 -6.625,-2.90625 -0.16407,-0.08984 -11.14843,-5.355469 -0.19532,-0.03906 -2.14062,0.339843 -0.10938,0.08984 -0.82031,1.769531 -0.0312,0.210938 0.34766,3.578125 0.0664,0.1875 1.80078,2.0625 0.17188,0.08984 5.77734,3.453126 0.12891,0.15625 1.37109,2.957031 -0.004,0.128906 -0.87891,1.453125 -0.12891,0.08203 -4.21484,3.199219 -0.0898,0.113281 -0.69922,2.160157 0.008,0.140624 1.09375,2.613282 0.11328,0.164062 4.13281,7.480469 -0.043,0.121094 -1.51563,1.304687 -0.1875,0.07422 -5.05859,1.285156 -0.20313,0.02734 -7.52344,1.652344 -0.16406,0.08984 -3.91015,2.96875 -0.12891,0.136719 -3.07422,4.113281 -0.10547,0.164063 -7.54687,11.691406 -0.11328,0.171875 -1.62891,3.894532 0.0391,0.08984 1.16016,0.644531 0.16016,0.02344 2.78125,0.777344 0.0664,0.105468 0.14453,2.011719 -0.0391,0.203125 -1.32812,8.230475 -0.0195,0.16406 -1.36718,4.79687 -0.0664,0.17188 -4.15625,8.30469 -0.13672,0.11328 -5.43359,3.33984 -0.19531,0.125 -3.73438,3.16016 0.0156,0.0977 1.10937,0.84766 0.17969,0.0586 4.08203,1.8086 0.0508,0.11328 -0.14062,1.62109 -0.082,0.15625 -4.58593,9.71094 -0.0234,0.1875 -1.52734,9.38672 -0.0898,0.14062 -2.777342,2.73047 -0.15625,0.12109 -5.335938,5.0586 -0.121094,0.15625 -5.632812,7.02344 -0.167969,0.0469 -3.136719,-0.0234 -0.191406,-0.0156 -6.761719,0.16406 -0.09766,0.0898 -0.667969,1.81641 -0.0078,0.1875 0.742187,4.17188 0.0625,0.17968 1.8125,3.32422 0.105469,0.12891 7.332031,9.84375 0.05078,0.17969 0.08984,3.0625 -0.04297,0.17968 -1.457032,6.8711 0.04687,0.17968 2.519531,7.3086 0.0625,0.1875 5.226563,16.39453 -0.01563,0.1875 -2.105469,11.36719 -0.09766,0.14453 -2.140625,1.86719 -0.148438,0.10546 -1.957031,2.40625 -0.07813,0.16016 -2.953125,7.1875 -0.128906,0.13281 -5.898437,7.21094 -0.05859,0.17969 -0.367188,4.26172 -0.01563,0.19531 -1.148437,3.57812 -0.09766,0.16016 -4.945313,6.41406 -0.117187,0.15235 -12.898438,16.78125 -0.105469,0.16015 -4.808593,6.21094 -0.136719,0.14453 -10.308594,9.48828 -0.171875,0.0859 -5.863281,3.82422 -0.132813,0.13672 -4.035156,4.80859 -0.113281,0.16406 -6.679688,10.25 -0.05078,0.1875 -2.535156,7.46485 -0.08594,0.17969 -6.167968,14.66406 -0.0039,0.1914 -0.667969,7.96875 -0.07812,0.17969 -0.734376,3.80469 v 0.1875 l -0.125,6.85156 -0.07031,0.16406 -2.394531,6.91016 -0.01172,0.19531 -1.480469,6.35547 -0.066406,0.17969 -6.003906,20.28906 0.039062,0.12891 1.132813,0.98047 0.148437,0.0312 2.71058,-0.1797 0.222656,-0.0312 6.535156,-0.125 0.183594,0.0195 22.125,2.47656 0.140625,0.0742 2.125,1.95313 0.08984,0.1289 1.394531,3.65235 0.03906,0.20312 1.386718,3.84766 0.113282,0.15234 2.808593,2.51953 0.125,0.12891 1.214844,2.45312 0.03125,0.17969 -0.269531,3.78906 -0.0078,0.20313 0.300781,5.42969 0.02344,0.1875 1.972656,16.79297 -0.0078,0.1875 0.433594,7.27734 0.04687,0.1875 0.695313,3.19141"
           style="fill:none;stroke:#de0f26;stroke-width:3.00124;stroke-linecap:butt;stroke-linejoin:miter;stroke-miterlimit:2;stroke-opacity:1" />
      </g>
    </g>
    <path
       id="path115"
       d="m 286.19922,177.71484 h 86.19531 v 77.22266 h -86.19531 z m 0,0"
       style="fill:none;stroke:#000000;stroke-width:0.75;stroke-linecap:butt;stroke-linejoin:miter;stroke-miterlimit:4;stroke-opacity:1" />
    <g
       id="g129"
       clip-rule="nonzero"
       clip-path="url(#clip17)"
       transform="translate(-483.42191,339.97507)">
      <g
         id="g127"
         clip-rule="nonzero"
         clip-path="url(#clip18)">
        <path
           id="path117"
           d="M 0,0 H 949.57422 V 477.75 H 0 Z m 0,0"
           style="fill:#ffffff;fill-opacity:1;fill-rule:nonzero;stroke:none" />
        <path
           id="path119"
           d="M 0,0 H 949.57422 V 477.75 H 0 Z m 0,0"
           style="fill:#ffffff;fill-opacity:1;fill-rule:nonzero;stroke:none" />
        <path
           id="path121"
           d="m -724.63281,1295.5547 h 30.41015 l 30.41016,15.0117 54.76953,39.9922 36.48438,15 6.08984,14.9922 36.48438,15 h 30.41796 l 12.16407,-15 24.32031,-10.0039 6.08984,-14.9922 -6.08984,-19.9883 24.33203,-25 6.07422,-20.0039 12.16797,-14.9961 12.16797,4.9922 12.17187,-19.9883 24.3125,4.9922 24.25781,-20.0039 36.56641,-34.9844 36.48438,-20.0078 30.41015,4.9766 24.33594,-4.9766 24.27734,10.0039 36.54688,-10.0039 18.23828,4.9766 18.24609,-4.9766 24.332034,10.0039 24.28125,-10.0039 36.558594,10.0039 42.582031,-20.0039 18.242187,5.0078 24.253906,-24.9961 6.15625,-20.0039 30.410157,-19.9922 6.054687,-15.0273 18.203124,-9.9727 18.32031,-59.9961 48.65235,-10 h 18.24218 l 18.2461,10 60.82031,-10 12.16797,14.9766 24.31641,-4.9766 18.25781,19.9727 12.14844,5.0234 18.26562,19.9727 12.14453,35.0195 42.53906,5.0078 36.56641,-15.0273 v -54.9727 l -6.15234,-20.0195 -12.12891,-9.9727 12.12891,-20.0195 -6.03125,-24.99999 6.03125,-14.97656 h 12.20703 l 6.07422,-25 -6.07422,-25.01953 12.17187,-14.97266 24.3125,-9.95312 12.08594,-35.07032 18.32422,-4.99218 12.08594,-14.98047 24.4375,5.04687 18.22656,-10.07422 v -24.99609 l 18.16016,-4.99219 -5.97657,-29.97656 30.41407,-24.99609 v -20.01953 h 12.125 v -39.9961 l 6.11718,-30.00781 -12.25,-9.98828 6.13282,-24.9961 -36.5625,-25 6.15234,-20.00781 -36.5625,-49.99219 -12.08984,-9.95312 6.11328,-20.03906 -12.1836,-24.9961 -18.22265,-15 -6.11719,-14.95703 36.52344,-25.0039 12.1289,-20.03907 24.25782,-4.95703 12.25,-10.03515 6.03125,19.96875 -18.28125,10.02343 -36.38672,14.97657 5.97656,25 42.66016,-29.97657 48.58984,-39.99218 24.41797,-5.02735 18.23828,-19.96875 v -10.0039 l -24.39453,4.97656 -12.125,15.0625 -24.29688,19.95703 -6.11718,-15 42.53906,-29.95703 -12.125,-35.03516 -6.13672,-10.01562 6.13672,-10.00391 24.27344,10.00391 18.26562,-4.94922 -6.01953,-15.0586 24.30078,-19.97265 6.11719,-30.02344 -6.11719,-19.98828 24.27734,-10.00391 12.2461,25 5.99219,24.9961 6.13671,4.99218 12.16797,-19.98437 6.11328,-35.00391 12.12891,-14.99609 12.17188,10.05469 -6.13672,34.93359 6.13672,30.02344 -24.30079,19.97265 -18.28125,5.02735 12.16797,24.99609 -6.13281,10.03906 v 19.9336 l 30.41016,-4.97656 v -20.01954 l 12.24609,-19.9414 24.30078,-20.05469 42.51563,15 18.32422,35.01563 -6.15235,14.97656 6.15235,15 -12.19141,10.0039 -18.24219,-4.97656 -6.13672,19.96875 12.25391,20.01953 24.31641,10.00782 18.22265,-10.00782 12.1875,15 54.66406,39.97657 12.21093,30.02734 6.0352,19.98437 -6.0352,20.00391 12.1875,4.99609 -12.1875,10.00391 12.1875,39.98828 -6.1523,29.9961 -12.08597,49.99609 -12.17187,20.00391 60.82034,20.00781 48.6523,29.99219 24.336,29.98828 -6.1524,25 24.3984,14.99218 12.1641,-9.98437 12.0899,19.98828 h 30.4101 l 18.3242,14.99609 24.2735,-9.96875 h 36.5429 l 30.4102,-25.01562 30.418,-35 42.5156,-14.99609 12.164,-30.00782 -12.164,-54.98828 6.1328,-69.98828 -18.2422,-64.95703 -24.332,-80.03906 -6.0742,-79.98438 -6.1407,-50 36.5469,-5.02344 6.0742,-25 -12.2109,-4.99609 -6.0313,-14.97656 -36.5468,-39.96094 -12.1094,-20.05469 V 150.625 l 18.2461,-14.96094 30.4101,-5.04297 L 1392,105.625 l 36.4609,-9.953125 36.4454,-5.042969 24.375,-19.953125 -24.375,-25.003906 -6.0352,-35 36.4492,-5.039063 12.1641,-15 -30.4102,-4.957031 -18.2031,-25 -30.4102,-5.027343 -6.0546,-30.007813 h -42.5977 l -24.3789,5.011719 -30.4102,-15.011719 -42.5781,-50.011715 h -66.8516 l -66.8984,-4.91016 -36.5625,-5.05859 -18.1836,-15.03125 -36.4844,10.01953 -18.3203,45.03515 -30.4101,39.996098 -18.24613,4.960937 -30.41015,-15 -12.16797,-24.996094 12.16797,-35.015621 24.39844,-50 -12.19141,-24.9961 30.41405,-24.99609 v -29.92969 l -24.37889,-30.03515 -24.27344,-5.02735 -24.37891,-25 -60.82422,-4.92969 -30.40625,29.92969 -42.58203,20.05469 -66.80859,4.94141 h -48.65625 l -24.41797,24.99609 6.13672,20.05469 -24.29688,19.9414 -12.25,15.02735 30.41016,15.03125 18.26172,19.9375 -12.125,20.08984 -24.29688,-5.05859 -6.11718,24.99609 h -18.28125 l -6.03125,25 -24.33594,-5.011719 -30.41406,10.070313 6.11328,9.96875 -24.4375,4.957031 -12.08594,20.042969 v 14.992187 l -24.31641,4.960938 -6.09375,-24.996094 24.33594,-9.988281 -6.08984,-15.011719 -12.15235,5.042969 v -20.039063 l -24.375,-4.960941 -12.1289,-24.99609 -18.28125,-5.05859 h -36.44532 l -12.16796,-25 6.07421,-29.92578 -18.28515,-15.01172 6.13672,-20.05469 -12.16797,-39.92969 30.41015,-20.03515 -30.41015,-44.95704 v -20.07031 l -24.37891,-14.92578 6.13672,-39.99609 -24.33984,-20.07032 -30.41016,-9.97265 -24.35547,9.97265 -24.29687,-4.92578 -133.8086,-10.0039 -24.312496,-5.0586 -18.328125,-14.98047 -18.199219,5.04297 -36.464844,-25 -42.597656,-15.0625 -24.378906,-19.9375 -18.203125,-20.05468 -42.621099,-29.94141 -30.41015,10.00391 -12.08594,-10.00391 -12.18359,-5.05859 -6.13672,-19.9375 -24.28125,4.9414 6.07812,30.0586 12.16797,19.9375 -6.07422,35.01562 6.07422,29.97656 30.41016,25 6.03125,19.98828 -30.40625,-14.92968 -24.28125,-5.0586 -54.74219,-25 -30.41015,-4.97656 v 29.97656 l 42.57812,19.98828 6.03516,24.9961 -36.44922,5.02734 6.03515,30.04297 24.37891,14.92578 v 15.03125 l -30.41406,9.96875 -42.53906,5.02344 -30.40625,19.97656 -30.4336,45.05078 -30.40625,29.94141 6.07422,14.99609 18.23828,-4.92578 v 24.9961 l -12.16406,14.94921 6.08984,20.03907 -12.16406,15.02734 v 19.9375 l -36.48437,19.988281 -30.41407,20.039063 12.14844,9.96875 h 18.26563 v 15.03125 l -18.26563,9.964844 -12.14844,34.984374 6.07422,25.003907 -48.64844,34.996093 -30.41796,35.035157 -18.23829,4.960937 -30.41015,-10.003906 -12.16797,10.003906 6.05078,39.992184 24.35938,10 24.29687,35.00391 -12.12891,35.05078 42.53907,99.99609 -6.05469,39.96094 -6.07422,24.9961 -24.33594,10.03515 -6.07422,29.95703 -36.52734,25 -6.05078,39.99219 -18.24219,20.00781 -60.82422,60.03516 -30.40625,39.94141 -60.82031,49.99609 -36.48828,15.01172 -54.76563,59.98047 -12.17187,35.07031 -36.46484,64.92187 v 39.9961 l -12.1836,20.07422 6.07422,19.95312 -12.12891,14.9961 v 19.96875 l -42.60156,120.01559 h 60.83985 l 24.30078,4.9766 h 36.52343 l 60.82032,5.0273 6.05468,19.9922 12.19141,30.0039 18.21875,9.9688 v 35.0195 l 6.07422,35 6.11719,25 v 49.9961 z m 0,0"
           style="fill:#b3de63;fill-opacity:1;fill-rule:nonzero;stroke:none" />
        <path
           id="path123"
           transform="scale(1,0.822026)"
           d="m -724.63281,1576.0507 h 30.41015 l 30.41016,18.2619 54.76953,48.6508 36.48438,18.2476 6.08984,18.238 36.48438,18.2476 h 30.41796 l 12.16407,-18.2476 24.32031,-12.1698 6.08984,-18.2381 -6.08984,-24.3158 24.33203,-30.4127 6.07422,-24.3349 12.16797,-18.2428 12.16797,6.073 12.17187,-24.3159 24.3125,6.0731 24.25781,-24.3349 36.56641,-42.5588 36.48438,-24.3396 30.41015,6.054 24.33594,-6.054 24.27734,12.1698 36.54688,-12.1698 18.23828,6.054 18.24609,-6.054 24.332034,12.1698 24.28125,-12.1698 36.582031,12.1698 42.578125,-24.3349 18.238281,6.0921 24.257813,-30.4079 6.160156,-24.3349 30.40625,-24.3206 6.054688,-18.2809 18.203122,-12.1318 18.32422,-72.9856 48.64844,-12.1651 h 18.24609 l 18.23828,12.1651 60.82422,-12.1651 12.16797,18.2191 24.31641,-6.054 18.26172,24.2968 12.14843,6.1111 18.26563,24.2968 12.14453,42.6015 42.53516,6.0921 36.57031,-18.2809 v -66.8746 l -6.15235,-24.3539 -12.1289,-12.1318 12.1289,-24.3539 -6.03906,-30.4126 6.03906,-18.2191 h 12.20313 l 6.07422,-30.4127 -6.07422,-30.4364 12.17187,-18.2143 24.3125,-12.1081 12.08985,-42.6633 18.32031,-6.073 12.08594,-18.2238 24.4414,6.1395 18.22266,-12.2553 v -30.40793 l 18.16016,-6.07303 -5.97266,-36.46668 30.40625,-30.40791 v -24.35389 h 12.12891 v -48.65551 l 6.11718,-36.5047 -12.24609,-12.15081 6.12891,-30.40791 -36.5625,-30.41267 6.15625,-24.33963 -36.57032,-60.81582 -12.08593,-12.10804 6.11718,-24.37766 -12.1875,-30.40791 -18.22265,-18.2476 -6.11719,-18.19532 36.52734,-30.41742 12.12891,-24.37765 24.25391,-6.03026 12.25,-12.20783 6.03125,24.29211 -18.28125,12.19358 -36.38282,18.21909 5.96875,30.41266 42.66407,-36.46668 48.58984,-48.65076 24.41797,-6.1158 18.24219,-24.29211 v -12.16982 l -24.39844,6.05402 -12.12109,18.32363 -24.30079,24.27786 -6.11718,-18.2476 42.53906,-36.44292 -12.12109,-42.6205 -6.14063,-12.18407 6.14063,-12.16982 24.26953,12.16982 18.26562,-6.02076 -6.01562,-18.31888 24.29687,-24.29686 6.11719,-36.52371 -6.11719,-24.31588 24.27344,-12.16981 12.25391,30.41266 5.99218,30.40791 6.13672,6.07303 12.16406,-24.31112 6.11719,-42.58248 12.12891,-18.24285 12.16406,12.23159 -6.13281,42.49695 6.13281,36.52371 -24.29297,24.29686 -18.28125,6.1158 12.16406,30.40791 -6.13281,12.21259 v 24.24934 l 30.41016,-6.05402 V 371.7758 l 12.25,-24.25885 24.29687,-24.39666 42.51563,18.2476 18.32422,42.59674 -6.15625,18.21908 6.15625,18.2476 -12.19141,12.16982 L 875,426.54711 l -6.13672,24.29211 12.25391,24.35389 24.3125,12.17457 18.22265,-12.17457 12.1875,18.2476 54.66407,48.63175 12.20699,36.52846 6.0352,24.31112 -6.0352,24.33489 12.1914,6.07778 -12.1914,12.16981 12.1914,48.64601 -6.1562,36.49044 -12.08594,60.82058 -12.16797,24.33488 60.82031,24.33964 48.6523,36.48569 24.336,36.48094 -6.1524,30.41266 24.3985,18.2381 12.164,-12.14606 12.086,24.31587 h 30.4179 l 18.3204,18.24285 24.2734,-12.12705 h 36.5469 l 30.4101,-30.43167 30.4141,-42.57773 42.5156,-18.24285 12.1641,-36.5047 -12.1641,-66.8936 6.1328,-85.1412 -18.2383,-79.02065 -24.3398,-97.36805 -6.0703,-97.30151 -6.1367,-60.82533 36.5468,-6.11104 6.0743,-30.41267 -12.211,-6.07778 -6.0351,-18.21908 -36.5469,-48.61275 -12.1055,-24.39665 V 183.2363 l 18.2422,-18.20008 30.4102,-6.13481 42.6015,-30.40791 36.461,-12.10804 36.4453,-6.1348 24.375,-24.27311 -24.375,-30.417416 -6.0352,-42.577728 36.4453,-6.130053 12.168,-18.247598 -30.4101,-6.030261 -18.2032,-30.412663 -30.4101,-6.115797 -6.0508,-36.5047 h -42.6016 l -24.375,6.096789 -30.4101,-18.261853 -42.5821,-60.83958 h -66.8515 l -66.8985,-5.97324 -36.5625,-6.15381 -18.1836,-18.28562 -36.4804,12.18883 -18.3242,54.78556 -30.4141,48.65551 -18.24219,6.035012 -30.40625,-18.247598 -12.17188,-30.407914 12.17188,-42.59673 24.39453,-60.82533 -12.19141,-30.40791 30.41012,-30.40791 v -36.40966 l -24.37496,-36.53797 -24.27344,-6.11579 -24.375,-30.41267 -60.82422,-5.99699 -30.41016,36.40966 -42.57812,24.39665 -66.8125,6.01126 h -48.65625 l -24.41797,30.40791 6.14063,24.39666 -24.30079,24.25885 -12.24609,18.28086 30.40625,18.28561 18.26172,24.2541 -12.12109,24.43943 -24.30079,-6.15381 -6.11718,30.40791 h -18.28125 l -6.03125,30.41266 -24.33594,-6.09679 -30.41406,12.2506 6.11718,12.127054 -24.4414,6.03026 -12.08594,24.382403 v 18.238094 l -24.3125,6.035013 -6.09766,-30.407912 24.33594,-12.150809 -6.08984,-18.261853 -12.14844,6.134804 v -24.377654 l -24.37891,-6.03501 -12.1289,-30.40791 -18.27735,-6.15381 h -36.44921 l -12.16407,-30.41267 6.06641,-36.4049 -18.27734,-18.26186 6.13671,-24.39666 -12.17187,-48.57472 30.41016,-24.3729 -30.41016,-54.69052 v -24.41567 l -24.375,-18.15731 6.13672,-48.65551 -24.33985,-24.41567 -30.41015,-12.1318 -24.35547,12.1318 -24.30078,-5.99224 -133.80859,-12.16982 -24.316411,-6.15381 -18.324219,-18.22384 -18.199219,6.1348 -36.46875,-30.41266 -42.59375,-18.32363 -24.398437,-24.2541 -18.179688,-24.39665 -42.644536,-36.42392 -30.41015,12.16982 -12.08594,-12.16982 -12.18359,-6.15381 -6.13672,-24.2541 -24.28125,6.01125 6.07812,36.56648 12.16797,24.2541 -6.07422,42.59673 6.07422,36.46668 30.41016,30.41267 6.03125,24.31587 -30.40625,-18.16206 -24.28125,-6.15381 -54.74219,-30.41267 -30.41015,-6.05401 v 36.46668 l 42.57812,24.31587 6.03516,30.40792 -36.44922,6.11579 6.03515,36.54747 24.37891,18.15731 v 18.28561 l -30.41406,12.12705 -42.53906,6.11105 -30.40625,24.30162 -30.4336,54.80457 -30.40625,36.42391 6.07422,18.24285 18.23828,-5.99225 v 30.40792 l -12.16406,18.18582 6.08984,24.37765 -12.16406,18.28086 v 24.2541 l -36.48437,24.31587 -30.41407,24.377654 12.14844,12.127049 h 18.26563 v 18.285614 l -18.26563,12.122297 -12.14844,42.558721 6.07422,30.417416 -48.64844,42.572976 -30.41796,42.620493 -18.23829,6.03502 -30.41015,-12.169821 -12.16797,12.169821 6.05078,48.65075 24.35938,12.16507 24.29687,42.58248 -12.12891,42.6395 42.53907,121.64591 -6.05469,48.61274 -6.07422,30.40791 -24.33594,12.20783 -6.07422,36.44293 -36.52734,30.41266 -6.05078,48.65076 -18.24219,24.33963 -60.82422,73.03316 -30.40625,48.58898 -60.82031,60.82058 -36.48828,18.26185 -54.76563,72.96663 -12.17187,42.66327 -36.46484,78.9779 v 48.6555 l -12.1836,24.4204 6.07422,24.2731 -12.12891,18.2429 v 24.2921 l -42.60156,145.9998 h 60.83985 l 24.30078,6.054 h 36.52343 l 60.82032,6.1158 6.05468,24.3206 12.19141,36.5 18.21875,12.127 v 42.6015 l 6.07422,42.5777 6.11719,30.4127 v 60.8206 l 6.05078,24.3158"
           style="fill:none;stroke:#0a6e2e;stroke-width:3.30886;stroke-linecap:butt;stroke-linejoin:miter;stroke-miterlimit:2;stroke-opacity:1" />
        <path
           id="path125"
           transform="scale(1,0.822026)"
           d="m 449.29297,1344.9145 -4.25,-80.2562 -0.3086,-0.8933 -6.15234,-32.86 -0.0391,-0.7888 1.76172,-44.2599 0.16015,-0.8886 6.09375,-18.8939 0.42578,-0.67 13.11719,-22.5102 v -41.7699 l 0.32422,-0.8506 9.13281,-12.5737 0.66797,-0.5085 25.46875,-18.9699 0.30469,-0.8506 10.8125,-30.9924 0.67187,-0.5512 22.97657,-14.0088 0.66797,-0.4277 20.87109,-8.91 0.89062,-0.1378 22.03125,-6.705 0.38672,-0.6035 1.51563,-12.02728 -0.16406,-1.13572 0.46875,-16.90754 0.30468,-0.70805 7.85157,-8.07361 0.71093,-0.38491 7.19141,-7.89779 0.24219,-0.71279 -0.55078,-13.60492 -0.30079,-1.01217 0.0781,-14.51729 0.30859,-0.76507 8.31641,-9.53722 0.89062,-0.54648 13.64844,-13.26277 0.40625,-0.80784 2.32422,-14.3985 v -0.92663 l 4.48047,-17.29245 0.38281,-0.55123 9.05078,-17.89595 0.0781,-0.85061 2.44922,-66.34712 -0.30078,-0.76982 -8.10157,-23.38449 -0.0625,-0.8506 -4.1289,-18.90813 -0.54297,-0.64627 -11.70313,-8.75314 -1.01172,-0.49896 -10.60937,-9.80333 -0.32813,-0.75081 -0.14062,-11.47603 0.30469,-0.89337 1.70312,-16.94556 -0.22265,-0.8316 -6.41797,-12.12705 -0.63282,-0.76982 -27.41406,-42.93888 -0.46094,-0.7318 -10.85156,-23.68861 -0.125,-0.85061 -4.69531,-35.75864 -0.46875,-0.76506 -26.52344,-41.73188 0.16406,-0.70805 6.17579,-8.15914 0.85156,-0.54173 23.4414,-18.8511 0.55079,-0.75556 21.4375,-23.32272 0.73046,-0.46569 32.25391,-14.47453 0.34375,0.16157 1.86719,6.17282 -0.0859,0.75557 -6.03125,15.38215 -0.52734,0.70805 -11.5586,8.78641 -0.93359,0.34689 -22.76172,13.50512 -0.5,0.64627 -6.13672,13.9328 v 0.5845 l 3.72656,7.04243 0.46485,0.26611 9.73828,0.55123 0.60937,-0.2471 13.26172,-9.94114 0.7461,-0.75082 65.64062,-60.31211 0.82813,-0.38491 24.84375,-14.65985 0.82812,-0.5845 12.14844,-14.51729 0.22266,-0.60826 -1.67579,-10.54939 -0.30859,-0.46569 -6.57812,-2.20492 -0.54688,0.14256 -12.58984,9.14756 -0.77344,0.68904 -32.04688,30.18932 -0.42578,-0.24711 -4.98047,-7.42734 -0.1875,-0.68904 2.41016,-9.40891 0.46875,-0.63202 14.43359,-10.02192 0.85157,-0.58449 14.05078,-14.35573 0.38672,-0.73181 4.00781,-14.08961 0.043,-0.81259 -4.5586,-18.5042 -0.38281,-0.93139 -5.95312,-28.63068 0.0391,-0.84585 4.00781,-6.88561 0.54688,-0.16157 10.48828,2.44727 1.05469,0.55123 17.99609,5.27945 0.42578,-0.29938 1.72266,-6.89037 -0.0781,-0.86486 1.94141,-13.02042 0.38672,-0.75081 9.10937,-9.89837 0.85156,-0.5845 13.46094,-13.64768 0.46485,-0.78883 5.02343,-17.91971 0.0625,-0.93139 -2.71484,-21.11779 -0.30078,-0.97416 -1.60156,-15.90962 0.26171,-0.73181 7.3086,-8.52029 0.83203,-0.594 13.82812,-4.31005 0.70704,0.12356 7.1914,5.74989 0.44141,0.76982 5.16797,19.53538 0.22265,1.07395 9.16797,33.69153 0.46485,-0.0808 7.0039,-5.6501 0.58985,-0.68904 8,-16.3373 0.19921,-0.88862 13.38282,-51.49245 0.42578,-0.31838 6.17187,0.62726 0.51172,0.38016 7.42969,12.41217 0.20312,0.81259 -0.87109,14.85943 -0.26562,0.96941 -2.91797,21.07978 0.0859,0.9694 1.61719,35.63509 -0.34375,0.81259 -10.65234,13.05843 -0.78516,0.5845 -16.52734,7.67444 -1.00781,0.34214 -8.98829,7.10896 -0.18359,0.62727 2.71094,9.79858 0.58594,0.8506 8.52734,19.07444 0.043,0.96941 -3.32422,14.03259 -0.50781,1.01217 -2.32813,12.59274 0.2461,0.54648 7.53125,4.55715 0.89062,0.16157 14.19141,-1.88179 0.58984,-0.34689 4.79688,-8.32072 0.10156,-0.80783 7.08594,-28.50712 0.46484,-0.81259 20.57422,-28.20299 0.66797,-0.75082 10.91015,-6.55773 0.78907,-0.12355 12.00781,2.10988 0.91406,0.46094 23.44141,16.05694 0.64843,0.62726 12.79688,16.29928 0.44531,0.76983 7.1836,23.68861 0.1875,0.93139 1.1289,30.1513 -0.25781,0.68429 -7.81641,7.67444 -0.71093,0.29938 -19.08985,10.47336 -0.54687,0.46569 -7.08594,12.35039 -0.0625,0.78883 3.14062,14.5363 0.42579,0.96941 10.46484,13.54314 0.71094,0.55123 14.27343,5.20341 0.89063,0.1188 36.86719,8.20192 0.6914,0.54648 42.81641,40.24926 0.58984,0.70804 14.53516,23.1659 0.38672,0.86961 9.19134,29.47652 0.1055,0.97416 4.1641,64.38456 -0.1993,0.87436 0.1602,20.18165 0.207,0.88862 4.8985,34.88903 -0.2032,0.88862 -21.4218,90.05475 -0.54297,0.95515 -6.07422,15.59124 0.24219,0.58449 6.67969,5.04185 0.88672,0.28037 47.13669,15.97615 0.8281,0.46569 36.3242,26.34022 0.7735,0.53222 22.5078,19.83951 0.6289,0.78883 10.1484,17.8817 0.2383,0.80783 1.2383,19.10771 0.035,0.8506 4.5235,18.8511 0.3828,0.87437 9.293,11.57582 0.5859,0.24235 9.7188,-0.49896 0.707,-0.32789 12.0078,-1.55865 0.582,0.28512 7.8594,8.54406 0.4258,0.86486 10.7148,11.82768 0.7227,0.42767 14.6601,3.68279 0.9336,0.0808 49.7813,5.24619 0.9336,-0.22335 41.0625,-12.41217 0.75,-0.46569 14.4922,-12.67828 0.6289,-0.70329 24.7422,-33.41116 0.5468,-0.72705 21.7266,-20.42876 0.8281,-0.46094 34.9258,-19.22176 0.4258,-0.80783 5.3281,-18.41867 0.1172,-0.93614 0.1836,-24.65802 -0.078,-0.93614 -7.6172,-75.76079 0.043,-0.93139 1.5977,-73.49411 -0.2461,-0.91238 -30.707,-128.40321 -0.2461,-0.88862 -9.8828,-52.28127 -0.035,-0.93139 -3.8515,-65.52028 -0.078,-0.94564 -5.6289,-72.56747 0.543,-0.38016 10.2695,-1.98632 1.1485,0.076 17.4765,-1.73447 0.7696,-0.40867 8.0195,-9.09529 0.3828,-0.88387 2.0273,-16.0807 -0.125,-0.76506 -6.9257,-12.59275 -0.543,-0.62726 -17.293,-24.07827 -0.5078,-0.80784 -41.0391,-65.57731 -0.1406,-0.89337 -0.4023,-20.7709 0.1172,-0.93614 6.1172,-27.53296 0.3828,-0.72705 8.9922,-9.45644 0.7265,-0.42293 20.1055,-7.27052 0.8906,-0.36591 28.7109,-14.41275 0.7657,-0.50846 39.8281,-23.99274 0.9336,-0.28037 65.8398,-20.37173 0.668,-0.54172 7.3516,-10.896291 0.1797,-0.670029 -1.1133,-14.498287 -0.2422,-0.703293 -9.6367,-15.429674 -0.5508,-0.788829 -9.5703,-19.858519 -0.3086,-1.059691 -1.6992,-18.200078 0.2226,-0.665277 6.6602,-5.973237 0.7734,-0.242351 28.3828,-9.46119 0.668,-0.584493 12.5117,-13.871026"
           style="fill:none;stroke:#de0f26;stroke-width:4.96329;stroke-linecap:butt;stroke-linejoin:miter;stroke-miterlimit:2;stroke-opacity:1" />
      </g>
    </g>
    <g
       id="g135"
       clip-rule="nonzero"
       clip-path="url(#clip19)">
      <g
         id="g133"
         clip-rule="nonzero"
         clip-path="url(#clip20)">
        <path
           id="path131"
           transform="scale(1,0.822026)"
           d="m 680.40625,-333.75997 -20.89063,25.71295 -0.22265,0.85061 1.1289,15.83359 0.26563,0.96941 -0.62891,13.4671 -0.33984,0.80784 -8.99609,10.49237 -0.92579,0.66528 -14.62109,14.43651 -0.34375,0.68428 -1.71875,11.60433 0.16016,0.68904 6.80468,11.13389 0.66407,0.56548 26.75,25.0857 0.33984,0.93614 1.76563,15.71004 -0.2461,0.66527 -6.17187,5.52656 -0.75391,0.18532 -23.01562,5.34598 -0.42579,0.64627 -3.21875,13.6857 -0.16406,1.01217 -6.80078,14.77865 -0.55078,0.594 -14.39453,8.27319 -0.64844,0.38967 -31.27734,16.57965 -1.01172,0.14256 -24.46094,7.0852 -0.50781,0.46569 -33.24219,41.603576 -0.38672,0.893372 -10.26562,21.018001 -0.58594,0.06178 -10.46484,-4.153229 -0.77344,-0.584494 -5.64844,-8.482282 -0.043,-0.651021 4.09766,-8.705625 0.66015,-0.703292 10.91797,-16.142472 0.0391,-0.546477 -4.39454,-10.040931 -0.26171,-0.565486 -14.27735,-29.13439 -0.70312,-0.42767 -26.20313,-17.55381 -0.54297,-0.76982 -14.07031,-17.65835 -0.83594,-0.34215 -13.64062,-1.21175 -1.13672,0.16157 -18,-1.13573 -0.85156,-0.29937 -11.86328,-9.21884 -0.54297,-0.70805 -5.32813,-14.03259 -0.12109,-0.94564 -2.875,-38.57181 -0.46875,-0.81259 -8.35938,-19.37382 -0.082,-0.8506 -2.28906,-43.08619 -0.42188,-1.01217 -3.32421,-16.84577 0.082,-0.84585 5.65234,-13.34356 0.46484,-0.75081 13.94922,-25.89353 0.125,-0.73181 -1.6875,-11.74213 -0.38281,-0.82685 -17.49219,-38.73338 -0.043,-1.01217 -3.71875,-15.54847 -0.46875,-0.79358 -11.29687,-10.5684 -0.93359,-0.54648 -10.10157,-10.64919 -0.30078,-0.83159 -0.66797,-12.77332 0.22266,-1.01217 2.17969,-26.56356 -0.11719,-0.89338 -6.92578,-17.5538 -0.52344,-0.76507 -14.47656,-13.58591 -0.89063,-0.52747 -18.75,-6.88562 -0.89062,-0.0808 -23.85156,1.66319 -0.9336,0.076 -47.01172,-1.7012 -0.96875,-0.1188 -134.72656,-16.56065 -0.89062,-0.3659 -58.027348,-25.47061 -0.765624,-0.46569 -52.421876,-29.60008 -0.929687,-0.34214 -18.625,-11.07686 -0.75,-0.67003 -20.492187,-23.52705 -0.628907,-0.76506 -27.65625,-32.0521 -0.765625,-0.7128 -20.773437,-12.71154 -0.808594,-0.30413 -23.687505,-3.84435 h -0.85546 l -23.40235,-4.09145 -0.6289,-0.54648 -7.47266,-11.86569 -0.46484,-0.93139 -9.4961,-11.15289 -0.72656,-0.47045 -13.42578,-3.66377 h -0.97266 l -9.37109,3.79208 -0.38281,0.52271 -1.23828,10.42585 0.18359,1.09295 10.50781,30.71679 0.46485,0.9504 7.89453,24.13054 v 0.97416 l -2.52735,57.95038 0.26172,0.92664 9.87891,16.72696 0.58594,0.70804 24.96875,35.39274 0.28125,0.62726 -0.20313,5.36499 -1.47656,0.22334 h -0.46875 l -27.19141,-8.71038 -0.96875,-0.34214 -34.33594,-15.06377 -0.85156,-0.4657 -57.78515,-27.76105 -1.01172,-0.19959 -11.09766,1.76299 -0.56641,0.46569 -4.25,9.16657 -0.16406,1.09295 1.80469,18.54697 0.33984,0.97416 9.33594,10.6872 0.89063,0.46569 29.94531,17.90071 0.66797,0.81259 7.10547,15.32513 -0.0195,0.67003 -4.55078,7.53188 -0.67187,0.42293 -21.84375,16.5844 -0.46875,0.5845 -3.6211,11.19566 0.0391,0.7318 5.66797,13.54314 0.58984,0.85061 21.41406,38.77139 -0.22265,0.62726 -7.85157,6.76682 -0.97265,0.38016 -26.21875,6.66227 -1.05078,0.13781 -39,8.56782 -0.84766,0.47044 -20.26563,15.38216 -0.66796,0.70804 -15.9336,21.32213 -0.55078,0.84585 -39.11719,60.60199 -0.58593,0.89337 -8.44141,20.18165 0.19922,0.4657 6.01562,3.34539 0.83203,0.1188 14.41407,4.02968 0.34375,0.54647 0.75,10.4306 -0.20313,1.05018 -6.88281,42.65852 -0.10156,0.8506 -7.08594,24.86235 -0.34766,0.89337 -21.53906,43.04343 -0.70703,0.58449 -28.16406,17.31621 -1.01172,0.64627 -19.35938,16.380074 0.082,0.50371 5.75,4.390828 0.9336,0.308879 21.15625,9.370901 0.26562,0.589246 -0.73047,8.401498 -0.42578,0.807836 -23.76953,50.332958 -0.12109,0.969404 -7.91797,48.655509 -0.46094,0.731805 -14.39844,14.151392 -0.80859,0.627262 -27.66016,26.221418 -0.625,0.807836 -29.19921,36.404904 -0.8711,0.24235 -16.25781,-0.12355 -0.98828,-0.0808 -35.05078,0.85535 -0.50391,0.46094 -3.46094,9.41843 -0.043,0.9694 3.84766,21.6215 0.32813,0.93614 9.39062,17.22593 0.54297,0.67002 38.00781,51.022 0.26172,0.92663 0.46484,15.87636 -0.22265,0.93614 -7.55078,35.61133 0.24218,0.92664 13.0625,37.88277 0.32032,0.96941 27.09375,84.97963 -0.082,0.97416 -10.91407,58.91978 -0.50781,0.74606 -11.09375,9.67503 -0.76953,0.55123 -10.14453,12.46919 -0.40235,0.82684 -15.30468,37.26027 -0.67188,0.68904 -30.57422,37.37431 -0.30078,0.92663 -1.90625,22.09195 -0.0781,1.01217 -5.95703,18.54222 -0.5,0.83635 -25.63672,33.24484 -0.60547,0.78883 -66.85547,86.97547 -0.54688,0.8316 -24.92187,32.1899 -0.71094,0.75556 -53.43359,49.17348 -0.88281,0.44668 -30.39454,19.82051 -0.6914,0.71279 -20.91406,24.92413 -0.58594,0.85061 -34.6211,53.12712 -0.26562,0.9694 -13.14063,38.69061 -0.44531,0.93614 -31.96875,76.00307 -0.0156,0.9932 -3.46094,41.3042 -0.41016,0.9314 -3.80468,19.716 v 0.9741 l -0.64844,35.5115 -0.36328,0.8507 -12.41407,35.8204 -0.0547,1.0074 -7.67578,32.9407 -0.34375,0.9314 -31.1211,105.1613 0.20313,0.67 5.87109,5.0799 0.76953,0.1663 14.05078,-0.9314 1.15625,-0.1616 33.8711,-0.651 0.94922,0.1 114.67578,12.8399 0.73047,0.3849 11.01562,10.1217 0.46484,0.6653 7.22657,18.9318 0.20312,1.055 7.1875,19.9393 0.58594,0.7936 14.55859,13.0584 0.64844,0.67 6.30078,12.7116 0.16016,0.9314 -1.39453,19.6399 -0.043,1.0549 1.55859,28.1412 0.1211,0.9694 10.22656,87.042 -0.043,0.9742 2.24609,37.7164 0.24219,0.979 3.60938,16.5368"
           style="fill:none;stroke:#de0f26;stroke-width:15.5559;stroke-linecap:butt;stroke-linejoin:miter;stroke-miterlimit:2;stroke-opacity:1" />
      </g>
    </g>
    <g
       id="g143"
       clip-rule="nonzero"
       clip-path="url(#clip21)" />
    <path
       id="path149"
       d="m 124.65625,180.07422 h 13.25 v 2.64062 h -10.42187 v 6.875 h 9.98437 v 2.64063 h -9.98437 v 8.42187 h 10.67187 v 2.64063 h -13.5 z m 0,0"
       style="fill:#000000;fill-opacity:1;fill-rule:nonzero;stroke:none" />
    <path
       id="path151"
       d="m 152.76953,186.38672 v 2.70312 c -0.73047,-0.40625 -1.49219,-0.71093 -2.28125,-0.92187 -0.78125,-0.20703 -1.59375,-0.3125 -2.4375,-0.3125 -1.28125,0 -2.24609,0.21875 -2.89062,0.65625 -0.63672,0.42969 -0.95313,1.07812 -0.95313,1.95312 0,0.66797 0.22656,1.1875 0.6875,1.5625 0.45703,0.375 1.37891,0.73438 2.76563,1.07813 l 0.89062,0.21875 c 1.83203,0.4375 3.13281,1.05469 3.90625,1.84375 0.76953,0.79297 1.15625,1.90234 1.15625,3.32812 0,1.61719 -0.57812,2.89844 -1.73437,3.84375 -1.15625,0.9375 -2.7461,1.40625 -4.76563,1.40625 -0.84375,0 -1.72656,-0.0937 -2.64062,-0.28125 -0.90625,-0.17578 -1.86719,-0.44531 -2.875,-0.8125 v -2.95312 c 0.94531,0.55469 1.88281,0.96875 2.8125,1.25 0.92578,0.27344 1.84765,0.40625 2.76562,0.40625 1.21875,0 2.14844,-0.22656 2.79688,-0.6875 0.65625,-0.46875 0.98437,-1.125 0.98437,-1.96875 0,-0.76953 -0.23437,-1.36328 -0.70312,-1.78125 -0.46875,-0.41406 -1.50782,-0.81641 -3.10938,-1.20313 l -0.90625,-0.23437 c -1.59375,-0.36328 -2.75,-0.92969 -3.46875,-1.70313 -0.71094,-0.78125 -1.0625,-1.84375 -1.0625,-3.1875 0,-1.63281 0.51953,-2.89453 1.5625,-3.78125 1.05078,-0.89453 2.54688,-1.34375 4.48438,-1.34375 0.94531,0 1.84375,0.0781 2.6875,0.23438 0.84375,0.14844 1.61718,0.375 2.32812,0.6875 z m 0,0"
       style="fill:#000000;fill-opacity:1;fill-rule:nonzero;stroke:none" />
    <path
       id="path153"
       d="m 160.30469,180.93359 v 4.9375 h 5.32812 v 2.23438 h -5.32812 v 9.45312 c 0,1.41797 0.17578,2.32813 0.53125,2.73438 0.35156,0.40625 1.0664,0.60937 2.14062,0.60937 h 2.65625 v 2.39063 h -2.65625 c -2,0 -3.38281,-0.41016 -4.14062,-1.23438 -0.75,-0.82031 -1.125,-2.32031 -1.125,-4.5 v -9.45312 h -1.90625 v -2.23438 h 1.90625 v -4.9375 z m 0,0"
       style="fill:#000000;fill-opacity:1;fill-rule:nonzero;stroke:none" />
    <path
       id="path155"
       d="m 176.19531,194.54297 c -2.08594,0 -3.53125,0.26562 -4.34375,0.79687 -0.80469,0.52344 -1.20312,1.42188 -1.20312,2.70313 0,1.01172 0.30078,1.82031 0.90625,2.42187 0.60156,0.59375 1.42578,0.89063 2.46875,0.89063 1.42578,0 2.57031,-0.5625 3.4375,-1.6875 0.875,-1.125 1.3125,-2.61719 1.3125,-4.48438 v -0.64062 z m 5.15625,-1.1875 v 9.9375 h -2.57812 v -2.64063 c -0.59375,1.05469 -1.33594,1.83594 -2.21875,2.34375 -0.875,0.5 -1.94922,0.75 -3.21875,0.75 -1.61719,0 -2.89844,-0.5 -3.84375,-1.5 -0.94922,-1 -1.42188,-2.33593 -1.42188,-4.01562 0,-1.95703 0.58594,-3.4375 1.76563,-4.4375 1.1875,-1 2.95703,-1.5 5.3125,-1.5 h 3.625 v -0.26563 c 0,-1.32031 -0.39844,-2.34375 -1.1875,-3.0625 -0.78125,-0.71875 -1.875,-1.07812 -3.28125,-1.07812 -0.90625,0 -1.78907,0.12109 -2.64063,0.35937 -0.84375,0.24219 -1.66406,0.59375 -2.45312,1.0625 v -2.64062 c 0.94531,-0.40625 1.86328,-0.70703 2.75,-0.90625 0.89453,-0.19531 1.76562,-0.29688 2.60937,-0.29688 2.26953,0 3.96875,0.65235 5.09375,1.95313 1.125,1.30469 1.6875,3.28125 1.6875,5.9375 z m 0,0"
       style="fill:#000000;fill-opacity:1;fill-rule:nonzero;stroke:none" />
    <path
       id="path157"
       d="m 197.04297,188.52734 v -9.42187 h 2.57812 v 24.1875 h -2.57812 v -2.60938 c -0.54297,1.03125 -1.23047,1.80469 -2.0625,2.3125 -0.82422,0.5 -1.82031,0.75 -2.98438,0.75 -1.89843,0 -3.44531,-0.83593 -4.64062,-2.51562 -1.1875,-1.6875 -1.78125,-3.89453 -1.78125,-6.625 0,-2.73828 0.59375,-4.94531 1.78125,-6.625 1.19531,-1.67578 2.74219,-2.51563 4.64062,-2.51563 1.16407,0 2.16016,0.25 2.98438,0.75 0.83203,0.5 1.51953,1.27344 2.0625,2.3125 z m -8.8125,6.07813 c 0,2.10547 0.39062,3.75781 1.17187,4.95312 0.78125,1.19922 1.85938,1.79688 3.23438,1.79688 1.36328,0 2.4375,-0.59766 3.21875,-1.79688 0.78906,-1.19531 1.1875,-2.84765 1.1875,-4.95312 0,-2.10156 -0.39844,-3.75391 -1.1875,-4.95313 -0.78125,-1.19531 -1.85547,-1.79687 -3.21875,-1.79687 -1.375,0 -2.45313,0.60156 -3.23438,1.79687 -0.78125,1.19922 -1.17187,2.85157 -1.17187,4.95313 z m 0,0"
       style="fill:#000000;fill-opacity:1;fill-rule:nonzero;stroke:none" />
    <path
       id="path159"
       d="m 211.05469,187.88672 c -1.38672,0 -2.48438,0.60156 -3.29688,1.79687 -0.80469,1.19922 -1.20312,2.83985 -1.20312,4.92188 0,2.08594 0.39843,3.72656 1.20312,4.92187 0.80078,1.19922 1.89844,1.79688 3.29688,1.79688 1.375,0 2.46093,-0.59766 3.26562,-1.79688 0.80078,-1.20703 1.20313,-2.84765 1.20313,-4.92187 0,-2.0625 -0.40235,-3.69531 -1.20313,-4.90625 -0.80469,-1.20703 -1.89062,-1.8125 -3.26562,-1.8125 z m 0,-2.42188 c 2.23828,0 4,0.8086 5.28125,2.42188 1.28906,1.61719 1.9375,3.85547 1.9375,6.71875 0,2.84375 -0.64844,5.07812 -1.9375,6.70312 -1.28125,1.625 -3.04297,2.4375 -5.28125,2.4375 -2.26172,0 -4.03125,-0.8125 -5.3125,-2.4375 -1.27344,-1.625 -1.90625,-3.85937 -1.90625,-6.70312 0,-2.86328 0.63281,-5.10156 1.90625,-6.71875 1.28125,-1.61328 3.05078,-2.42188 5.3125,-2.42188 z m 0,0"
       style="fill:#000000;fill-opacity:1;fill-rule:nonzero;stroke:none" />
    <path
       id="path161"
       d="m 242.05469,188.52734 v -9.42187 h 2.57812 v 24.1875 h -2.57812 v -2.60938 c -0.54297,1.03125 -1.23047,1.80469 -2.0625,2.3125 -0.82422,0.5 -1.82032,0.75 -2.98438,0.75 -1.89844,0 -3.44531,-0.83593 -4.64062,-2.51562 -1.1875,-1.6875 -1.78125,-3.89453 -1.78125,-6.625 0,-2.73828 0.59375,-4.94531 1.78125,-6.625 1.19531,-1.67578 2.74218,-2.51563 4.64062,-2.51563 1.16406,0 2.16016,0.25 2.98438,0.75 0.83203,0.5 1.51953,1.27344 2.0625,2.3125 z m -8.8125,6.07813 c 0,2.10547 0.39062,3.75781 1.17187,4.95312 0.78125,1.19922 1.85938,1.79688 3.23438,1.79688 1.36328,0 2.4375,-0.59766 3.21875,-1.79688 0.78906,-1.19531 1.1875,-2.84765 1.1875,-4.95312 0,-2.10156 -0.39844,-3.75391 -1.1875,-4.95313 -0.78125,-1.19531 -1.85547,-1.79687 -3.21875,-1.79687 -1.375,0 -2.45313,0.60156 -3.23438,1.79687 -0.78125,1.19922 -1.17187,2.85157 -1.17187,4.95313 z m 0,0"
       style="fill:#000000;fill-opacity:1;fill-rule:nonzero;stroke:none" />
    <path
       id="path163"
       d="m 263.42578,193.87109 v 1.40625 h -11.89062 c 0.11328,1.96875 0.64843,3.46875 1.60937,4.5 0.95703,1.03125 2.29688,1.54688 4.01563,1.54688 0.98828,0 1.94531,-0.13281 2.875,-0.40625 0.9375,-0.26953 1.86328,-0.67578 2.78125,-1.21875 v 2.70312 c -0.92969,0.4375 -1.88282,0.77344 -2.85938,1 -0.96875,0.22657 -1.95312,0.34375 -2.95312,0.34375 -2.51172,0 -4.5,-0.80468 -5.96875,-2.42187 -1.46094,-1.625 -2.1875,-3.8125 -2.1875,-6.5625 0,-2.85156 0.6914,-5.11328 2.07812,-6.78125 1.39453,-1.67578 3.26953,-2.51563 5.625,-2.51563 2.11328,0 3.78516,0.75782 5.01563,2.26563 1.23828,1.5 1.85937,3.54687 1.85937,6.14062 z m -2.59375,-0.84375 c -0.0234,-1.5625 -0.41797,-2.80468 -1.1875,-3.73437 -0.77344,-0.9375 -1.79297,-1.40625 -3.0625,-1.40625 -1.44922,0 -2.60547,0.45312 -3.46875,1.35937 -0.86719,0.89844 -1.35937,2.16407 -1.48437,3.79688 z m 0,0"
       style="fill:#000000;fill-opacity:1;fill-rule:nonzero;stroke:none" />
    <path
       id="path165"
       d="m 124.65625,219.87891 h 4.21875 l 5.35937,15.79687 5.375,-15.79687 h 4.23438 v 23.21875 h -2.76563 v -20.39063 l -5.42187,15.92188 h -2.84375 l -5.40625,-15.92188 v 20.39063 h -2.75 z m 0,0"
       style="fill:#000000;fill-opacity:1;fill-rule:nonzero;stroke:none" />
    <path
       id="path167"
       d="m 162.83984,233.67578 v 1.40625 h -11.89062 c 0.11328,1.96875 0.64844,3.46875 1.60937,4.5 0.95703,1.03125 2.29688,1.54688 4.01563,1.54688 0.98828,0 1.94531,-0.13282 2.875,-0.40625 0.9375,-0.26954 1.86328,-0.67579 2.78125,-1.21875 v 2.70312 c -0.92969,0.4375 -1.88281,0.77344 -2.85938,1 -0.96875,0.22656 -1.95312,0.34375 -2.95312,0.34375 -2.51172,0 -4.5,-0.80469 -5.96875,-2.42187 -1.46094,-1.625 -2.1875,-3.8125 -2.1875,-6.5625 0,-2.85157 0.6914,-5.11329 2.07812,-6.78125 1.39453,-1.67579 3.26953,-2.51563 5.625,-2.51563 2.11328,0 3.78516,0.75781 5.01563,2.26563 1.23828,1.5 1.85937,3.54687 1.85937,6.14062 z m -2.59375,-0.84375 c -0.0234,-1.5625 -0.41797,-2.80469 -1.1875,-3.73437 -0.77343,-0.9375 -1.79297,-1.40625 -3.0625,-1.40625 -1.44922,0 -2.60547,0.45312 -3.46875,1.35937 -0.86718,0.89844 -1.35937,2.16406 -1.48437,3.79688 z m -2.48437,-15.20312 h 2.79687 l -4.57812,5.84375 h -2.14063 z m 0,0"
       style="fill:#000000;fill-opacity:1;fill-rule:nonzero;stroke:none" />
    <path
       id="path169"
       d="m 179.64453,225.67578 -5.6875,8.48438 5.98438,8.9375 h -3.04688 l -4.57812,-6.84375 -4.57813,6.84375 h -3.04687 l 6.10937,-9.10938 -5.59375,-8.3125 h 3.04688 l 4.17187,6.21875 4.17188,-6.21875 z m 0,0"
       style="fill:#000000;fill-opacity:1;fill-rule:nonzero;stroke:none" />
    <path
       id="path171"
       d="m 183.59375,225.67578 h 2.59375 v 17.42188 h -2.59375 z m 0,-6.76562 h 2.59375 v 3.60937 h -2.59375 z m 0,0"
       style="fill:#000000;fill-opacity:1;fill-rule:nonzero;stroke:none" />
    <path
       id="path173"
       d="m 202.89844,226.34766 v 2.67187 c -0.73047,-0.4375 -1.46485,-0.76562 -2.20313,-0.98437 -0.73047,-0.22657 -1.46875,-0.34375 -2.21875,-0.34375 -1.67969,0 -2.98047,0.58984 -3.90625,1.76562 -0.92969,1.17969 -1.39062,2.82813 -1.39062,4.95313 0,2.125 0.46093,3.77734 1.39062,4.95312 0.92578,1.17969 2.22656,1.76563 3.90625,1.76563 0.75,0 1.48828,-0.10938 2.21875,-0.32813 0.73828,-0.22656 1.47266,-0.56641 2.20313,-1.01562 v 2.64062 c -0.71875,0.375 -1.46875,0.65625 -2.25,0.84375 -0.77344,0.1875 -1.58985,0.28125 -2.45313,0.28125 -2.375,0 -4.26172,-0.82031 -5.65625,-2.46875 -1.38672,-1.65625 -2.07812,-3.87891 -2.07812,-6.67187 0,-2.84375 0.70312,-5.07813 2.10937,-6.70313 1.40625,-1.625 3.33594,-2.4375 5.79688,-2.4375 0.78906,0 1.5664,0.0898 2.32812,0.26563 0.75781,0.17968 1.49219,0.44921 2.20313,0.8125 z m 0,0"
       style="fill:#000000;fill-opacity:1;fill-rule:nonzero;stroke:none" />
    <path
       id="path175"
       d="m 213.52734,227.69141 c -1.38672,0 -2.48437,0.60156 -3.29687,1.79687 -0.80469,1.19922 -1.20313,2.83984 -1.20313,4.92188 0,2.08593 0.39844,3.72656 1.20313,4.92187 0.80078,1.19922 1.89844,1.79688 3.29687,1.79688 1.375,0 2.46094,-0.59766 3.26563,-1.79688 0.80078,-1.20703 1.20312,-2.84766 1.20312,-4.92187 0,-2.0625 -0.40234,-3.69532 -1.20312,-4.90625 -0.80469,-1.20704 -1.89063,-1.8125 -3.26563,-1.8125 z m 0,-2.42188 c 2.23828,0 4,0.80859 5.28125,2.42188 1.28907,1.61718 1.9375,3.85546 1.9375,6.71875 0,2.84375 -0.64843,5.07812 -1.9375,6.70312 -1.28125,1.625 -3.04297,2.4375 -5.28125,2.4375 -2.26172,0 -4.03125,-0.8125 -5.3125,-2.4375 -1.27343,-1.625 -1.90625,-3.85937 -1.90625,-6.70312 0,-2.86329 0.63282,-5.10157 1.90625,-6.71875 1.28125,-1.61329 3.05078,-2.42188 5.3125,-2.42188 z m 0,0"
       style="fill:#000000;fill-opacity:1;fill-rule:nonzero;stroke:none" />
    <path
       style="fill:none;stroke:#000000;stroke-width:0.75px;stroke-linecap:butt;stroke-linejoin:miter;stroke-opacity:1"
       d="M 286.19922,254.9375 21.111332,488.92422"
       id="path1401"
       sodipodi:nodetypes="cc" />
    <path
       style="fill:none;stroke:#000000;stroke-width:0.75px;stroke-linecap:butt;stroke-linejoin:miter;stroke-opacity:1"
       d="m 372.39453,254.9375 92.68376,232.99432"
       id="path1794"
       sodipodi:nodetypes="cc" />
    <rect
       style="fill:none;stroke-width:2"
       id="rect1875"
       width="486.83661"
       height="827.19128"
       x="-4.8365946"
       y="0" />
  </g>
</svg>
