<?xml version="1.0" encoding="UTF-8" standalone="no"?>
<svg
   id="svg29"
   version="1.2"
   viewBox="0 0 559.84375 623.670288"
   height="623.670288pt"
   width="559.84375pt"
   sodipodi:docname="golfo_barco.svg"
   inkscape:version="1.2.2 (b0a8486541, 2022-12-01)"
   xmlns:inkscape="http://www.inkscape.org/namespaces/inkscape"
   xmlns:sodipodi="http://sodipodi.sourceforge.net/DTD/sodipodi-0.dtd"
   xmlns="http://www.w3.org/2000/svg"
   xmlns:svg="http://www.w3.org/2000/svg"
   xmlns:rdf="http://www.w3.org/1999/02/22-rdf-syntax-ns#"
   xmlns:cc="http://creativecommons.org/ns#"
   xmlns:dc="http://purl.org/dc/elements/1.1/">
  <sodipodi:namedview
     id="namedview21"
     pagecolor="#ffffff"
     bordercolor="#000000"
     borderopacity="0.25"
     inkscape:showpageshadow="2"
     inkscape:pageopacity="0.0"
     inkscape:pagecheckerboard="0"
     inkscape:deskcolor="#d1d1d1"
     inkscape:document-units="pt"
     showgrid="false"
     inkscape:zoom="0.97647749"
     inkscape:cx="373.28049"
     inkscape:cy="416.29224"
     inkscape:window-width="1883"
     inkscape:window-height="1055"
     inkscape:window-x="37"
     inkscape:window-y="0"
     inkscape:window-maximized="1"
     inkscape:current-layer="surface312" />
  <metadata
     id="metadata33">
    <rdf:RDF>
      <cc:Work
         rdf:about="">
        <dc:format>image/svg+xml</dc:format>
        <dc:type
           rdf:resource="http://purl.org/dc/dcmitype/StillImage" />
        <dc:title />
      </cc:Work>
    </rdf:RDF>
  </metadata>
  <defs
     id="defs8">
    <clipPath
       id="clip1">
      <path
         id="path2"
         d="M 11 7 L 559.84375 7 L 559.84375 623.671875 L 11 623.671875 Z M 11 7 " />
    </clipPath>
    <clipPath
       id="clip2">
      <path
         id="path5"
         d="M 11 7 L 559.84375 7 L 559.84375 623.671875 L 11 623.671875 Z M 11 7 " />
    </clipPath>
  </defs>
  <g
     id="surface312">
    <rect
       id="rect10"
       style="fill:rgb(100%,100%,100%);fill-opacity:1;stroke:none;"
       height="623.670288"
       width="559.84375"
       y="0"
       x="0" />
    <rect
       id="rect12"
       style="fill:rgb(100%,100%,100%);fill-opacity:1;stroke:none;"
       height="623.670288"
       width="559.84375"
       y="0"
       x="0" />
    <g
       id="g16"
       clip-rule="nonzero"
       clip-path="url(#clip1)">
      <path
         id="path14"
         d="M 376.582031 623.511719 L 559.84375 623.671875 L 560.855469 369.523438 L 560.953125 7.761719 L 466.863281 8.070312 L 90.132812 153.03125 L 82.324219 158.242188 L 40.652344 193.832031 L 31.972656 202.511719 L 24.164062 217.273438 L 21.554688 232.03125 L 16.355469 275.433594 L 11.144531 339.660156 L 11.144531 350.082031 L 12.875 370.042969 L 21.554688 395.222656 L 45.863281 432.542969 L 54.542969 444.703125 L 65.832031 455.980469 L 376.582031 623.511719 "
         style=" stroke:none;fill-rule:evenodd;fill:rgb(0%,49.803162%,0%);fill-opacity:1;" />
    </g>
    <path
       id="path18"
       transform="matrix(1,0,0,-1,0,0)"
       d="M 376.582031 -623.511719 L 559.84375 -623.671875 L 560.855469 -369.523438 L 560.953125 -7.761719 L 466.863281 -8.070312 L 90.132812 -153.03125 L 82.324219 -158.242188 L 40.652344 -193.832031 L 31.972656 -202.511719 L 24.164062 -217.273438 L 21.554688 -232.03125 L 16.355469 -275.433594 L 11.144531 -339.660156 L 11.144531 -350.082031 L 12.875 -370.042969 L 21.554688 -395.222656 L 45.863281 -432.542969 L 54.542969 -444.703125 L 65.832031 -455.980469 L 376.582031 -623.511719 "
       style="fill:none;stroke-width:1;stroke-linecap:butt;stroke-linejoin:miter;stroke:rgb(0%,0%,0%);stroke-opacity:1;stroke-miterlimit:10;" />
    <g
       id="g22"
       clip-rule="nonzero"
       clip-path="url(#clip2)">
      <path
         id="path20"
         d="M 560.855469 369.523438 L 560.953125 7.761719 L 466.863281 8.070312 L 454.714844 26.300781 L 443.421875 29.773438 L 432.144531 46.273438 L 426.933594 55.8125 L 414.785156 68.832031 L 407.832031 74.910156 L 399.152344 86.203125 L 395.683594 96.613281 L 395.683594 114.84375 L 402.632812 138.28125 L 412.171875 157.371094 L 418.253906 173.003906 L 428.671875 191.230469 L 437.355469 211.191406 L 439.953125 232.03125 L 439.953125 247.652344 L 438.214844 258.941406 L 432.144531 264.140625 L 419.125 266.753906 L 417.382812 254.601562 L 402.632812 243.3125 L 390.472656 224.210938 L 378.324219 205.992188 L 373.113281 195.570312 L 373.984375 175.601562 L 373.113281 165.191406 L 360.964844 155.640625 L 353.152344 147.832031 L 337.523438 135.671875 L 327.972656 142.621094 L 314.953125 151.300781 L 303.671875 140.882812 L 280.234375 132.203125 L 260.273438 133.941406 L 242.914062 134.8125 L 226.414062 133.941406 L 208.183594 143.492188 L 214.261719 151.300781 L 212.523438 159.980469 L 203.84375 160.851562 L 198.644531 169.53125 L 184.753906 166.0625 L 170.863281 164.320312 L 161.3125 155.640625 L 154.375 151.300781 L 151.761719 158.242188 L 138.742188 159.113281 L 120.511719 153.03125 L 101.414062 157.371094 L 91.875 159.113281 L 90.132812 153.03125 L 82.324219 158.242188 L 85.792969 165.191406 L 75.375 174.742188 L 63.222656 182.550781 L 53.671875 185.152344 L 40.652344 193.832031 L 31.972656 202.511719 L 24.164062 217.273438 L 21.554688 232.03125 L 22.421875 244.183594 L 30.242188 256.332031 L 25.902344 269.351562 L 16.355469 275.433594 L 15.484375 289.320312 L 11.144531 339.660156 L 11.144531 350.082031 L 14.613281 361.363281 L 12.875 370.042969 L 17.214844 377.863281 L 22.421875 377.863281 L 22.421875 386.542969 L 21.554688 395.222656 L 31.105469 407.371094 L 39.785156 418.660156 L 45.863281 432.542969 L 54.542969 444.703125 L 65.832031 455.980469 L 81.453125 457.722656 L 93.605469 468.132812 L 112.703125 468.132812 L 124.855469 462.0625 L 138.742188 462.0625 L 143.953125 455.980469 L 158.714844 456.851562 L 163.914062 460.320312 L 176.933594 458.582031 L 176.074219 449.902344 L 191.695312 434.28125 L 197.773438 418.660156 L 198.644531 400.433594 L 202.113281 389.140625 L 216.003906 382.203125 L 230.753906 378.730469 L 240.304688 379.59375 L 249.855469 373.523438 L 266.34375 374.390625 L 278.503906 374.390625 L 288.042969 375.253906 L 291.523438 388.273438 L 277.632812 406.503906 L 275.894531 421.261719 L 271.554688 429.070312 L 275.023438 442.960938 L 270.683594 461.191406 L 263.742188 457.722656 L 262.003906 450.773438 L 255.933594 460.320312 L 262.003906 467.273438 L 257.664062 477.683594 L 259.402344 502.863281 L 255.933594 515.011719 L 248.984375 520.222656 L 242.042969 526.292969 L 248.984375 531.503906 L 259.402344 530.632812 L 270.683594 527.160156 L 290.652344 528.03125 L 306.273438 526.292969 L 319.292969 522.820312 L 332.3125 524.5625 L 341.863281 521.082031 L 358.355469 525.421875 L 367.902344 530.632812 L 377.453125 535.84375 L 387.003906 542.792969 L 389.605469 554.941406 L 387.003906 567.09375 L 384.402344 578.371094 L 384.402344 594.003906 L 380.921875 607.023438 L 376.582031 623.511719 L 559.84375 623.671875 L 560.132812 390.191406 L 545.171875 392.320312 L 533.773438 393.042969 L 510.972656 399.453125 L 523.792969 378.78125 L 516.671875 375.222656 L 499.574219 377.363281 L 488.164062 368.8125 L 488.164062 358.832031 L 480.324219 354.550781 L 472.484375 357.402344 L 461.804688 358.121094 L 446.832031 352.421875 L 443.273438 347.433594 L 438.992188 349.570312 L 428.304688 348.851562 L 424.742188 345.292969 L 418.324219 348.851562 L 409.0625 348.140625 L 402.652344 342.441406 L 407.632812 341.730469 L 414.054688 338.882812 L 409.0625 335.3125 L 400.511719 335.3125 L 386.972656 337.453125 L 379.132812 343.152344 L 372.003906 351.703125 L 367.011719 350.28125 L 358.464844 352.421875 L 352.054688 359.542969 L 343.503906 364.53125 L 339.222656 362.390625 L 345.632812 350.992188 L 352.054688 342.441406 L 357.753906 338.882812 L 364.882812 335.3125 L 374.855469 327.472656 L 390.535156 326.050781 L 395.523438 322.480469 L 411.203125 322.480469 L 418.324219 321.773438 L 424.023438 321.0625 L 430.445312 320.351562 L 437.574219 323.910156 L 443.273438 325.34375 L 450.394531 325.34375 L 456.09375 326.761719 L 459.664062 331.042969 L 466.785156 335.3125 L 473.914062 335.3125 L 479.613281 336.023438 L 488.164062 338.160156 L 496.003906 341.011719 L 505.273438 347.433594 L 510.972656 348.851562 L 517.382812 354.550781 L 522.375 352.421875 L 527.363281 355.980469 L 536.625 358.121094 L 547.3125 361.683594 L 551.59375 358.121094 L 556.582031 362.390625 L 553.011719 370.230469 L 560.855469 369.523438 "
         style=" stroke:none;fill-rule:evenodd;fill:rgb(0%,69.018555%,100%);fill-opacity:1;" />
    </g>
    <path
       id="path24"
       transform="matrix(1,0,0,-1,0,0)"
       d="M 560.855469 -369.523438 L 560.953125 -7.761719 L 466.863281 -8.070312 L 454.714844 -26.300781 L 443.421875 -29.773438 L 432.144531 -46.273438 L 426.933594 -55.8125 L 414.785156 -68.832031 L 407.832031 -74.910156 L 399.152344 -86.203125 L 395.683594 -96.613281 L 395.683594 -114.84375 L 402.632812 -138.28125 L 412.171875 -157.371094 L 418.253906 -173.003906 L 428.671875 -191.230469 L 437.355469 -211.191406 L 439.953125 -232.03125 L 439.953125 -247.652344 L 438.214844 -258.941406 L 432.144531 -264.140625 L 419.125 -266.753906 L 417.382812 -254.601562 L 402.632812 -243.3125 L 390.472656 -224.210938 L 378.324219 -205.992188 L 373.113281 -195.570312 L 373.984375 -175.601562 L 373.113281 -165.191406 L 360.964844 -155.640625 L 353.152344 -147.832031 L 337.523438 -135.671875 L 327.972656 -142.621094 L 314.953125 -151.300781 L 303.671875 -140.882812 L 280.234375 -132.203125 L 260.273438 -133.941406 L 242.914062 -134.8125 L 226.414062 -133.941406 L 208.183594 -143.492188 L 214.261719 -151.300781 L 212.523438 -159.980469 L 203.84375 -160.851562 L 198.644531 -169.53125 L 184.753906 -166.0625 L 170.863281 -164.320312 L 161.3125 -155.640625 L 154.375 -151.300781 L 151.761719 -158.242188 L 138.742188 -159.113281 L 120.511719 -153.03125 L 101.414062 -157.371094 L 91.875 -159.113281 L 90.132812 -153.03125 L 82.324219 -158.242188 L 85.792969 -165.191406 L 75.375 -174.742188 L 63.222656 -182.550781 L 53.671875 -185.152344 L 40.652344 -193.832031 L 31.972656 -202.511719 L 24.164062 -217.273438 L 21.554688 -232.03125 L 22.421875 -244.183594 L 30.242188 -256.332031 L 25.902344 -269.351562 L 16.355469 -275.433594 L 15.484375 -289.320312 L 11.144531 -339.660156 L 11.144531 -350.082031 L 14.613281 -361.363281 L 12.875 -370.042969 L 17.214844 -377.863281 L 22.421875 -377.863281 L 22.421875 -386.542969 L 21.554688 -395.222656 L 31.105469 -407.371094 L 39.785156 -418.660156 L 45.863281 -432.542969 L 54.542969 -444.703125 L 65.832031 -455.980469 L 81.453125 -457.722656 L 93.605469 -468.132812 L 112.703125 -468.132812 L 124.855469 -462.0625 L 138.742188 -462.0625 L 143.953125 -455.980469 L 158.714844 -456.851562 L 163.914062 -460.320312 L 176.933594 -458.582031 L 176.074219 -449.902344 L 191.695312 -434.28125 L 197.773438 -418.660156 L 198.644531 -400.433594 L 202.113281 -389.140625 L 216.003906 -382.203125 L 230.753906 -378.730469 L 240.304688 -379.59375 L 249.855469 -373.523438 L 266.34375 -374.390625 L 278.503906 -374.390625 L 288.042969 -375.253906 L 291.523438 -388.273438 L 277.632812 -406.503906 L 275.894531 -421.261719 L 271.554688 -429.070312 L 275.023438 -442.960938 L 270.683594 -461.191406 L 263.742188 -457.722656 L 262.003906 -450.773438 L 255.933594 -460.320312 L 262.003906 -467.273438 L 257.664062 -477.683594 L 259.402344 -502.863281 L 255.933594 -515.011719 L 248.984375 -520.222656 L 242.042969 -526.292969 L 248.984375 -531.503906 L 259.402344 -530.632812 L 270.683594 -527.160156 L 290.652344 -528.03125 L 306.273438 -526.292969 L 319.292969 -522.820312 L 332.3125 -524.5625 L 341.863281 -521.082031 L 358.355469 -525.421875 L 367.902344 -530.632812 L 377.453125 -535.84375 L 387.003906 -542.792969 L 389.605469 -554.941406 L 387.003906 -567.09375 L 384.402344 -578.371094 L 384.402344 -594.003906 L 380.921875 -607.023438 L 376.582031 -623.511719 L 559.84375 -623.671875 L 560.132812 -390.191406 L 545.171875 -392.320312 L 533.773438 -393.042969 L 510.972656 -399.453125 L 523.792969 -378.78125 L 516.671875 -375.222656 L 499.574219 -377.363281 L 488.164062 -368.8125 L 488.164062 -358.832031 L 480.324219 -354.550781 L 472.484375 -357.402344 L 461.804688 -358.121094 L 446.832031 -352.421875 L 443.273438 -347.433594 L 438.992188 -349.570312 L 428.304688 -348.851562 L 424.742188 -345.292969 L 418.324219 -348.851562 L 409.0625 -348.140625 L 402.652344 -342.441406 L 407.632812 -341.730469 L 414.054688 -338.882812 L 409.0625 -335.3125 L 400.511719 -335.3125 L 386.972656 -337.453125 L 379.132812 -343.152344 L 372.003906 -351.703125 L 367.011719 -350.28125 L 358.464844 -352.421875 L 352.054688 -359.542969 L 343.503906 -364.53125 L 339.222656 -362.390625 L 345.632812 -350.992188 L 352.054688 -342.441406 L 357.753906 -338.882812 L 364.882812 -335.3125 L 374.855469 -327.472656 L 390.535156 -326.050781 L 395.523438 -322.480469 L 411.203125 -322.480469 L 418.324219 -321.773438 L 424.023438 -321.0625 L 430.445312 -320.351562 L 437.574219 -323.910156 L 443.273438 -325.34375 L 450.394531 -325.34375 L 456.09375 -326.761719 L 459.664062 -331.042969 L 466.785156 -335.3125 L 473.914062 -335.3125 L 479.613281 -336.023438 L 488.164062 -338.160156 L 496.003906 -341.011719 L 505.273438 -347.433594 L 510.972656 -348.851562 L 517.382812 -354.550781 L 522.375 -352.421875 L 527.363281 -355.980469 L 536.625 -358.121094 L 547.3125 -361.683594 L 551.59375 -358.121094 L 556.582031 -362.390625 L 553.011719 -370.230469 L 560.855469 -369.523438 "
       style="fill:none;stroke-width:1;stroke-linecap:butt;stroke-linejoin:miter;stroke:rgb(0%,0%,0%);stroke-opacity:1;stroke-miterlimit:10;" />
    <path
       id="path4"
       d="m 355.06908,221.6521 -47.10424,49.13134 h 45.65831 v 8.48059 h -9.13122 v 8.48129 h -45.65831 v 8.48059 l 9.13122,8.48129 18.26317,8.48128 h 73.0542 l 27.39439,-25.44316 h -54.78953 v -8.48129 l -16.36162,0.07 -0.38702,-57.44017 z m 0,0"
       style="fill:#803318;fill-opacity:0.54901997;fill-rule:evenodd;stroke:none;stroke-width:0.18397489" />
    <text
       transform="scale(0.97742462,1.0230968)"
       id="text851"
       y="303.47876"
       x="29.163845"
       style="font-style:normal;font-weight:normal;font-size:41.1908px;line-height:1.25;font-family:sans-serif;letter-spacing:0px;word-spacing:0px;fill:#000000;fill-opacity:1;stroke:none;stroke-width:1.02977"
       xml:space="preserve"><tspan
         style="stroke-width:1.02977"
         y="303.47876"
         x="29.163845"
         id="tspan849">T H A N K S !!!</tspan></text>
  </g>
</svg>
