<?xml version="1.0" encoding="UTF-8" standalone="no"?>
<svg
   width="508pt"
   height="498pt"
   viewBox="0 0 508 498"
   version="1.2"
   id="svg145"
   xmlns="http://www.w3.org/2000/svg"
   xmlns:svg="http://www.w3.org/2000/svg">
  <defs
     id="defs149" />
  <g
     id="surface1614">
    <rect
       x="0"
       y="0"
       width="508"
       height="498"
       style="fill:rgb(100%,100%,100%);fill-opacity:1;stroke:none;"
       id="rect2" />
    <path
       style=" stroke:none;fill-rule:evenodd;fill:rgb(68.626404%,93.331909%,93.331909%);fill-opacity:0.988235;"
       d="M 247.777344 55.015625 L 56.5 90.328125 L 27.070312 208.039062 Z M 247.777344 55.015625 "
       id="path4" />
    <path
       style="fill:none;stroke-width:3;stroke-linecap:round;stroke-linejoin:round;stroke:rgb(0%,59.999084%,79.998779%);stroke-opacity:0.698039;stroke-miterlimit:10;"
       d="M 319.851562 181.808594 C 319.851562 263.304688 253.785156 329.375 172.285156 329.375 C 90.789062 329.375 24.722656 263.304688 24.722656 181.808594 C 24.722656 100.308594 90.789062 34.242188 172.285156 34.242188 C 253.785156 34.242188 319.851562 100.308594 319.851562 181.808594 Z M 319.851562 181.808594 "
       id="path6" />
    <path
       style="fill:none;stroke-width:3;stroke-linecap:round;stroke-linejoin:round;stroke:rgb(49.803162%,0%,100%);stroke-opacity:0.698039;stroke-miterlimit:10;"
       d="M 124.234375 122 C 124.234375 142.011719 108.011719 158.234375 88 158.234375 C 67.988281 158.234375 51.765625 142.011719 51.765625 122 C 51.765625 101.988281 67.988281 85.765625 88 85.765625 C 108.011719 85.765625 124.234375 101.988281 124.234375 122 Z M 124.234375 122 "
       id="path8" />
    <path
       style="fill-rule:nonzero;fill:rgb(0%,39.215088%,0%);fill-opacity:0.0980392;stroke-width:3;stroke-linecap:round;stroke-linejoin:round;stroke:rgb(0%,39.215088%,0%);stroke-opacity:0.698039;stroke-miterlimit:10;"
       d="M 49.222656 119.429688 C 59.121094 121.90625 69.601562 119.179688 77.039062 112.191406 C 84.476562 105.203125 87.851562 94.914062 86 84.878906 L 56.5 90.328125 Z M 49.222656 119.429688 "
       id="path10" />
    <path
       style="fill:none;stroke-width:3;stroke-linecap:round;stroke-linejoin:round;stroke:rgb(0%,0%,100%);stroke-opacity:0.698039;stroke-miterlimit:10;"
       d="M 247.777344 55.015625 L 56.5 90.328125 "
       id="path12" />
    <path
       style="fill:none;stroke-width:3;stroke-linecap:round;stroke-linejoin:round;stroke:rgb(0%,0%,100%);stroke-opacity:0.698039;stroke-miterlimit:10;"
       d="M 147.222656 73.578125 L 151.046875 66.769531 "
       id="path14" />
    <path
       style="fill:none;stroke-width:3;stroke-linecap:round;stroke-linejoin:round;stroke:rgb(0%,0%,100%);stroke-opacity:0.698039;stroke-miterlimit:10;"
       d="M 147.222656 73.578125 L 153.226562 78.570312 "
       id="path16" />
    <path
       style="fill:none;stroke-width:3;stroke-linecap:round;stroke-linejoin:round;stroke:rgb(0%,0%,100%);stroke-opacity:0.698039;stroke-miterlimit:10;"
       d="M 56.5 90.328125 L 27.070312 208.039062 "
       id="path18" />
    <path
       style="fill:none;stroke-width:3;stroke-linecap:round;stroke-linejoin:round;stroke:rgb(0%,0%,100%);stroke-opacity:0.698039;stroke-miterlimit:10;"
       d="M 40.570312 154.03125 L 35.964844 147.726562 "
       id="path20" />
    <path
       style="fill:none;stroke-width:3;stroke-linecap:round;stroke-linejoin:round;stroke:rgb(0%,0%,100%);stroke-opacity:0.698039;stroke-miterlimit:10;"
       d="M 40.570312 154.03125 L 47.605469 150.636719 "
       id="path22" />
    <path
       style="fill:none;stroke-width:3;stroke-linecap:round;stroke-linejoin:round;stroke:rgb(0%,0%,100%);stroke-opacity:0.698039;stroke-miterlimit:10;"
       d="M 27.070312 208.039062 L 212.464844 237.464844 "
       id="path24" />
    <path
       style="fill:none;stroke-width:3;stroke-linecap:round;stroke-linejoin:round;stroke:rgb(0%,0%,100%);stroke-opacity:0.698039;stroke-miterlimit:10;"
       d="M 212.464844 237.464844 L 37 272 "
       id="path26" />
    <path
       style="fill:none;stroke-width:3;stroke-linecap:round;stroke-linejoin:round;stroke:rgb(0%,0%,100%);stroke-opacity:0.698039;stroke-miterlimit:10;"
       d="M 37 272 L 155 401 "
       id="path28" />
    <path
       style="fill:none;stroke-width:3;stroke-linecap:round;stroke-linejoin:round;stroke:rgb(0%,0%,100%);stroke-opacity:0.698039;stroke-miterlimit:10;"
       d="M 99.375 340.1875 L 91.574219 340.550781 "
       id="path30" />
    <path
       style="fill:none;stroke-width:3;stroke-linecap:round;stroke-linejoin:round;stroke:rgb(0%,0%,100%);stroke-opacity:0.698039;stroke-miterlimit:10;"
       d="M 99.375 340.1875 L 100.425781 332.449219 "
       id="path32" />
    <path
       style="fill:none;stroke-width:3;stroke-linecap:round;stroke-linejoin:round;stroke:rgb(0%,0%,100%);stroke-opacity:0.698039;stroke-miterlimit:10;"
       d="M 155 401 L 218 422 "
       id="path34" />
    <path
       style="fill:none;stroke-width:3;stroke-linecap:round;stroke-linejoin:round;stroke:rgb(0%,0%,100%);stroke-opacity:0.698039;stroke-miterlimit:10;"
       d="M 218 422 L 218.828125 469.914062 "
       id="path36" />
    <path
       style="fill:none;stroke-width:3;stroke-linecap:round;stroke-linejoin:round;stroke:rgb(0%,0%,100%);stroke-opacity:0.698039;stroke-miterlimit:10;"
       d="M 218.828125 469.914062 L 292.398438 469.914062 "
       id="path38" />
    <path
       style="fill:none;stroke-width:3;stroke-linecap:round;stroke-linejoin:round;stroke:rgb(0%,0%,100%);stroke-opacity:0.698039;stroke-miterlimit:10;"
       d="M 292.398438 469.914062 L 294 425 "
       id="path40" />
    <path
       style="fill:none;stroke-width:3;stroke-linecap:round;stroke-linejoin:round;stroke:rgb(0%,0%,100%);stroke-opacity:0.698039;stroke-miterlimit:10;"
       d="M 294 425 L 391 423 "
       id="path42" />
    <path
       style="fill:none;stroke-width:3;stroke-linecap:round;stroke-linejoin:round;stroke:rgb(0%,0%,100%);stroke-opacity:0.698039;stroke-miterlimit:10;"
       d="M 347.5 423.898438 L 342.625 430 "
       id="path44" />
    <path
       style="fill:none;stroke-width:3;stroke-linecap:round;stroke-linejoin:round;stroke:rgb(0%,0%,100%);stroke-opacity:0.698039;stroke-miterlimit:10;"
       d="M 347.5 423.898438 L 342.375 418 "
       id="path46" />
    <path
       style="fill:none;stroke-width:3;stroke-linecap:round;stroke-linejoin:round;stroke:rgb(0%,0%,100%);stroke-opacity:0.698039;stroke-miterlimit:10;"
       d="M 391 423 L 391 469 "
       id="path48" />
    <path
       style="fill:none;stroke-width:3;stroke-linecap:round;stroke-linejoin:round;stroke:rgb(0%,0%,100%);stroke-opacity:0.698039;stroke-miterlimit:10;"
       d="M 391 469 L 439.535156 469.914062 "
       id="path50" />
    <path
       style="fill:none;stroke-width:3;stroke-linecap:round;stroke-linejoin:round;stroke:rgb(0%,0%,100%);stroke-opacity:0.698039;stroke-miterlimit:10;"
       d="M 439.535156 469.914062 L 453 353 "
       id="path52" />
    <path
       style="fill:none;stroke-width:3;stroke-linecap:round;stroke-linejoin:round;stroke:rgb(0%,0%,100%);stroke-opacity:0.698039;stroke-miterlimit:10;"
       d="M 453 353 L 356.347656 319.582031 "
       id="path54" />
    <path
       style="fill:none;stroke-width:3;stroke-linecap:round;stroke-linejoin:round;stroke:rgb(0%,0%,100%);stroke-opacity:0.698039;stroke-miterlimit:10;"
       d="M 399.949219 334.65625 L 406.632812 330.621094 "
       id="path56" />
    <path
       style="fill:none;stroke-width:3;stroke-linecap:round;stroke-linejoin:round;stroke:rgb(0%,0%,100%);stroke-opacity:0.698039;stroke-miterlimit:10;"
       d="M 399.949219 334.65625 L 402.714844 341.960938 "
       id="path58" />
    <path
       style="fill:none;stroke-width:3;stroke-linecap:round;stroke-linejoin:round;stroke:rgb(0%,0%,100%);stroke-opacity:0.698039;stroke-miterlimit:10;"
       d="M 356.347656 319.582031 L 247.777344 55.015625 "
       id="path60" />
    <path
       style="fill:none;stroke-width:3;stroke-linecap:round;stroke-linejoin:round;stroke:rgb(68.626404%,93.331909%,93.331909%);stroke-opacity:0.698039;stroke-miterlimit:10;"
       d="M 247.777344 55.015625 L 56.5 90.328125 "
       id="path62" />
    <path
       style="fill:none;stroke-width:3;stroke-linecap:round;stroke-linejoin:round;stroke:rgb(68.626404%,93.331909%,93.331909%);stroke-opacity:0.698039;stroke-miterlimit:10;"
       d="M 56.5 90.328125 L 27.070312 208.039062 "
       id="path64" />
    <path
       style="fill:none;stroke-width:3;stroke-linecap:round;stroke-linejoin:round;stroke:rgb(68.626404%,93.331909%,93.331909%);stroke-opacity:0.698039;stroke-miterlimit:10;"
       d="M 27.070312 208.039062 L 247.777344 55.015625 "
       id="path66" />
    <path
       style="fill:none;stroke-width:3;stroke-linecap:round;stroke-linejoin:round;stroke:rgb(0%,0%,0%);stroke-opacity:0.698039;stroke-miterlimit:10;"
       d="M 88 122 L 105 90 "
       id="path68" />
    <path
       style="fill:none;stroke-width:3;stroke-linecap:round;stroke-linejoin:round;stroke:rgb(0%,0%,0%);stroke-opacity:0.698039;stroke-miterlimit:10;"
       d="M 88 122 L 105 90 "
       id="path70" />
    <path
       style="fill:none;stroke-width:3;stroke-linecap:round;stroke-linejoin:round;stroke:rgb(0%,0%,0%);stroke-opacity:0.698039;stroke-miterlimit:10;"
       d="M 157 180 L 247.777344 55.015625 "
       id="path72" />
    <path
       style="fill-rule:nonzero;fill:rgb(30.195618%,30.195618%,100%);fill-opacity:1;stroke-width:1;stroke-linecap:round;stroke-linejoin:round;stroke:rgb(0%,0%,0%);stroke-opacity:1;stroke-miterlimit:10;"
       d="M 252.777344 55.015625 C 252.777344 57.773438 250.539062 60.015625 247.777344 60.015625 C 245.015625 60.015625 242.777344 57.773438 242.777344 55.015625 C 242.777344 52.253906 245.015625 50.015625 247.777344 50.015625 C 250.539062 50.015625 252.777344 52.253906 252.777344 55.015625 Z M 252.777344 55.015625 "
       id="path74" />
    <path
       style="fill-rule:nonzero;fill:rgb(30.195618%,30.195618%,100%);fill-opacity:1;stroke-width:1;stroke-linecap:round;stroke-linejoin:round;stroke:rgb(0%,0%,0%);stroke-opacity:1;stroke-miterlimit:10;"
       d="M 61.5 90.328125 C 61.5 93.089844 59.257812 95.328125 56.5 95.328125 C 53.738281 95.328125 51.5 93.089844 51.5 90.328125 C 51.5 87.566406 53.738281 85.328125 56.5 85.328125 C 59.257812 85.328125 61.5 87.566406 61.5 90.328125 Z M 61.5 90.328125 "
       id="path76" />
    <path
       style="fill-rule:nonzero;fill:rgb(30.195618%,30.195618%,100%);fill-opacity:1;stroke-width:1;stroke-linecap:round;stroke-linejoin:round;stroke:rgb(0%,0%,0%);stroke-opacity:1;stroke-miterlimit:10;"
       d="M 32.070312 208.039062 C 32.070312 210.800781 29.832031 213.039062 27.070312 213.039062 C 24.308594 213.039062 22.070312 210.800781 22.070312 208.039062 C 22.070312 205.277344 24.308594 203.039062 27.070312 203.039062 C 29.832031 203.039062 32.070312 205.277344 32.070312 208.039062 Z M 32.070312 208.039062 "
       id="path78" />
    <path
       style="fill-rule:nonzero;fill:rgb(30.195618%,30.195618%,100%);fill-opacity:1;stroke-width:1;stroke-linecap:round;stroke-linejoin:round;stroke:rgb(0%,0%,0%);stroke-opacity:1;stroke-miterlimit:10;"
       d="M 217.464844 237.464844 C 217.464844 240.226562 215.226562 242.464844 212.464844 242.464844 C 209.703125 242.464844 207.464844 240.226562 207.464844 237.464844 C 207.464844 234.703125 209.703125 232.464844 212.464844 232.464844 C 215.226562 232.464844 217.464844 234.703125 217.464844 237.464844 Z M 217.464844 237.464844 "
       id="path80" />
    <path
       style="fill-rule:nonzero;fill:rgb(30.195618%,30.195618%,100%);fill-opacity:1;stroke-width:1;stroke-linecap:round;stroke-linejoin:round;stroke:rgb(0%,0%,0%);stroke-opacity:1;stroke-miterlimit:10;"
       d="M 42 272 C 42 274.761719 39.761719 277 37 277 C 34.238281 277 32 274.761719 32 272 C 32 269.238281 34.238281 267 37 267 C 39.761719 267 42 269.238281 42 272 Z M 42 272 "
       id="path82" />
    <path
       style="fill-rule:nonzero;fill:rgb(30.195618%,30.195618%,100%);fill-opacity:1;stroke-width:1;stroke-linecap:round;stroke-linejoin:round;stroke:rgb(0%,0%,0%);stroke-opacity:1;stroke-miterlimit:10;"
       d="M 160 401 C 160 403.761719 157.761719 406 155 406 C 152.238281 406 150 403.761719 150 401 C 150 398.238281 152.238281 396 155 396 C 157.761719 396 160 398.238281 160 401 Z M 160 401 "
       id="path84" />
    <path
       style="fill-rule:nonzero;fill:rgb(30.195618%,30.195618%,100%);fill-opacity:1;stroke-width:1;stroke-linecap:round;stroke-linejoin:round;stroke:rgb(0%,0%,0%);stroke-opacity:1;stroke-miterlimit:10;"
       d="M 223 422 C 223 424.761719 220.761719 427 218 427 C 215.238281 427 213 424.761719 213 422 C 213 419.238281 215.238281 417 218 417 C 220.761719 417 223 419.238281 223 422 Z M 223 422 "
       id="path86" />
    <path
       style="fill-rule:nonzero;fill:rgb(30.195618%,30.195618%,100%);fill-opacity:1;stroke-width:1;stroke-linecap:round;stroke-linejoin:round;stroke:rgb(0%,0%,0%);stroke-opacity:1;stroke-miterlimit:10;"
       d="M 223.828125 469.914062 C 223.828125 472.675781 221.589844 474.914062 218.828125 474.914062 C 216.066406 474.914062 213.828125 472.675781 213.828125 469.914062 C 213.828125 467.152344 216.066406 464.914062 218.828125 464.914062 C 221.589844 464.914062 223.828125 467.152344 223.828125 469.914062 Z M 223.828125 469.914062 "
       id="path88" />
    <path
       style="fill-rule:nonzero;fill:rgb(30.195618%,30.195618%,100%);fill-opacity:1;stroke-width:1;stroke-linecap:round;stroke-linejoin:round;stroke:rgb(0%,0%,0%);stroke-opacity:1;stroke-miterlimit:10;"
       d="M 297.398438 469.914062 C 297.398438 472.675781 295.15625 474.914062 292.398438 474.914062 C 289.636719 474.914062 287.398438 472.675781 287.398438 469.914062 C 287.398438 467.152344 289.636719 464.914062 292.398438 464.914062 C 295.15625 464.914062 297.398438 467.152344 297.398438 469.914062 Z M 297.398438 469.914062 "
       id="path90" />
    <path
       style="fill-rule:nonzero;fill:rgb(30.195618%,30.195618%,100%);fill-opacity:1;stroke-width:1;stroke-linecap:round;stroke-linejoin:round;stroke:rgb(0%,0%,0%);stroke-opacity:1;stroke-miterlimit:10;"
       d="M 299 425 C 299 427.761719 296.761719 430 294 430 C 291.238281 430 289 427.761719 289 425 C 289 422.238281 291.238281 420 294 420 C 296.761719 420 299 422.238281 299 425 Z M 299 425 "
       id="path92" />
    <path
       style="fill-rule:nonzero;fill:rgb(30.195618%,30.195618%,100%);fill-opacity:1;stroke-width:1;stroke-linecap:round;stroke-linejoin:round;stroke:rgb(0%,0%,0%);stroke-opacity:1;stroke-miterlimit:10;"
       d="M 396 423 C 396 425.761719 393.761719 428 391 428 C 388.238281 428 386 425.761719 386 423 C 386 420.238281 388.238281 418 391 418 C 393.761719 418 396 420.238281 396 423 Z M 396 423 "
       id="path94" />
    <path
       style="fill-rule:nonzero;fill:rgb(30.195618%,30.195618%,100%);fill-opacity:1;stroke-width:1;stroke-linecap:round;stroke-linejoin:round;stroke:rgb(0%,0%,0%);stroke-opacity:1;stroke-miterlimit:10;"
       d="M 396 469 C 396 471.761719 393.761719 474 391 474 C 388.238281 474 386 471.761719 386 469 C 386 466.238281 388.238281 464 391 464 C 393.761719 464 396 466.238281 396 469 Z M 396 469 "
       id="path96" />
    <path
       style="fill-rule:nonzero;fill:rgb(30.195618%,30.195618%,100%);fill-opacity:1;stroke-width:1;stroke-linecap:round;stroke-linejoin:round;stroke:rgb(0%,0%,0%);stroke-opacity:1;stroke-miterlimit:10;"
       d="M 444.535156 469.914062 C 444.535156 472.675781 442.296875 474.914062 439.535156 474.914062 C 436.773438 474.914062 434.535156 472.675781 434.535156 469.914062 C 434.535156 467.152344 436.773438 464.914062 439.535156 464.914062 C 442.296875 464.914062 444.535156 467.152344 444.535156 469.914062 Z M 444.535156 469.914062 "
       id="path98" />
    <path
       style="fill-rule:nonzero;fill:rgb(30.195618%,30.195618%,100%);fill-opacity:1;stroke-width:1;stroke-linecap:round;stroke-linejoin:round;stroke:rgb(0%,0%,0%);stroke-opacity:1;stroke-miterlimit:10;"
       d="M 458 353 C 458 355.761719 455.761719 358 453 358 C 450.238281 358 448 355.761719 448 353 C 448 350.238281 450.238281 348 453 348 C 455.761719 348 458 350.238281 458 353 Z M 458 353 "
       id="path100" />
    <path
       style="fill-rule:nonzero;fill:rgb(30.195618%,30.195618%,100%);fill-opacity:1;stroke-width:1;stroke-linecap:round;stroke-linejoin:round;stroke:rgb(0%,0%,0%);stroke-opacity:1;stroke-miterlimit:10;"
       d="M 361.347656 319.582031 C 361.347656 322.34375 359.109375 324.582031 356.347656 324.582031 C 353.585938 324.582031 351.347656 322.34375 351.347656 319.582031 C 351.347656 316.820312 353.585938 314.582031 356.347656 314.582031 C 359.109375 314.582031 361.347656 316.820312 361.347656 319.582031 Z M 361.347656 319.582031 "
       id="path102" />
    <path
       style=" stroke:none;fill-rule:nonzero;fill:rgb(0%,0%,0%);fill-opacity:1;"
       d="M 99.082031 120.019531 L 101.109375 111.933594 C 101.109375 111.933594 101.671875 109.695312 101.671875 108.996094 C 101.671875 108.996094 101.671875 107.386719 100.585938 107.386719 C 100.585938 107.386719 99.148438 107.386719 98.238281 110.710938 C 98.238281 110.710938 98.136719 111.09375 98.03125 111.550781 C 98.03125 111.550781 97.644531 112.320312 97.433594 112.355469 C 97.433594 112.355469 97.015625 112.355469 97.015625 112.003906 C 97.015625 112.003906 97.015625 111.445312 97.644531 109.660156 C 97.644531 109.660156 97.890625 109.03125 98.101562 108.609375 C 98.101562 108.609375 98.941406 106.894531 100.199219 106.648438 C 100.199219 106.648438 100.445312 106.613281 100.691406 106.613281 C 100.691406 106.613281 102.648438 106.613281 103.523438 108.292969 C 103.523438 108.292969 103.734375 108.679688 103.839844 109.136719 C 103.839844 109.136719 103.875 109.203125 103.875 109.308594 C 103.875 109.308594 105.90625 106.789062 108.355469 106.613281 C 108.355469 106.613281 110.316406 106.613281 111.015625 107.980469 C 111.015625 107.980469 111.261719 108.398438 111.261719 108.890625 C 111.261719 108.890625 111.261719 110.253906 110.105469 110.78125 C 110.105469 110.78125 109.71875 110.953125 109.335938 110.953125 C 109.335938 110.953125 108.25 110.953125 108.039062 110.011719 C 108.039062 110.011719 108.003906 109.871094 108.003906 109.730469 C 108.003906 109.730469 108.003906 108.574219 109.195312 108.015625 L 109.230469 107.980469 C 109.230469 107.980469 109.511719 107.875 109.824219 107.804688 L 109.125 107.488281 C 109.125 107.488281 108.671875 107.417969 108.355469 107.386719 C 108.355469 107.386719 106.886719 107.386719 105.554688 108.539062 C 105.554688 108.539062 104.46875 109.519531 103.699219 111.128906 C 103.699219 111.128906 103.628906 111.304688 103.59375 111.410156 L 102.476562 115.960938 L 101.074219 121.488281 C 101.074219 121.488281 100.761719 122.398438 99.78125 122.46875 C 99.78125 122.46875 98.90625 122.292969 98.765625 121.523438 C 98.765625 121.523438 98.765625 121.59375 99.082031 120.019531 Z M 99.082031 120.019531 "
       id="path104" />
    <path
       style=" stroke:none;fill-rule:nonzero;fill:rgb(0%,0%,0%);fill-opacity:1;"
       d="M 118.742188 112.023438 C 118.742188 112.023438 118.742188 112.78125 117.984375 113.175781 C 117.984375 113.175781 117.714844 113.320312 117.445312 113.320312 C 117.445312 113.320312 116.710938 113.320312 116.539062 112.660156 C 116.539062 112.660156 116.511719 112.535156 116.511719 112.4375 C 116.511719 112.4375 116.511719 111.753906 117.199219 111.335938 C 117.199219 111.335938 117.519531 111.140625 117.835938 111.140625 C 117.835938 111.140625 118.570312 111.140625 118.71875 111.800781 L 118.71875 111.828125 C 118.71875 111.828125 118.742188 111.925781 118.742188 112.023438 M 116.882812 121.234375 L 115.925781 123.808594 C 115.925781 123.808594 115.238281 125.792969 115.214844 126.257812 C 115.214844 126.257812 115.214844 127.066406 115.804688 127.066406 C 115.804688 127.066406 117.347656 127.066406 118.203125 124.320312 L 118.300781 124.027344 C 118.300781 124.027344 118.425781 123.636719 118.546875 123.609375 L 118.546875 123.585938 L 118.667969 123.585938 C 118.667969 123.585938 118.964844 123.585938 118.964844 123.832031 C 118.964844 123.832031 118.964844 124.273438 118.425781 125.398438 C 118.425781 125.398438 117.371094 127.605469 115.753906 127.605469 C 115.753906 127.605469 114.457031 127.605469 113.941406 126.527344 C 113.941406 126.527344 113.746094 126.085938 113.746094 125.59375 C 113.746094 125.59375 113.746094 125.105469 114.308594 123.636719 C 114.308594 123.636719 116.023438 119.03125 116 119.101562 C 116 119.101562 116.269531 118.417969 116.269531 117.828125 C 116.269531 117.828125 116.269531 117.042969 115.65625 117.042969 C 115.65625 117.042969 114.308594 117.042969 113.449219 119.273438 L 113.449219 119.300781 C 113.449219 119.300781 113.304688 119.667969 113.179688 120.082031 C 113.179688 120.082031 112.910156 120.5 112.789062 120.523438 C 112.789062 120.523438 112.496094 120.523438 112.496094 120.277344 C 112.496094 120.277344 112.496094 119.839844 113.035156 118.734375 C 113.035156 118.734375 114.089844 116.507812 115.730469 116.507812 C 115.730469 116.507812 117.027344 116.507812 117.542969 117.609375 C 117.542969 117.609375 117.738281 118.023438 117.738281 118.515625 C 117.738281 118.515625 117.738281 119.003906 117.421875 119.8125 C 117.421875 119.8125 117.003906 120.941406 116.882812 121.234375 Z M 116.882812 121.234375 "
       id="path106" />
    <path
       style=" stroke:none;fill-rule:nonzero;fill:rgb(0%,0%,0%);fill-opacity:1;"
       d="M 212.125 118.414062 L 209.851562 127.550781 L 213.769531 127.550781 C 213.769531 127.550781 217.65625 127.550781 219.683594 125.519531 C 219.683594 125.519531 221.226562 123.980469 221.574219 121.25 L 221.574219 121.214844 C 221.574219 121.214844 221.609375 120.832031 221.609375 120.550781 C 221.609375 120.550781 221.609375 117.433594 217.199219 117.121094 L 217.128906 117.121094 C 217.128906 117.121094 216.464844 117.085938 215.238281 117.085938 C 215.238281 117.085938 213.417969 117.085938 213.105469 117.121094 C 213.105469 117.121094 212.476562 117.226562 212.265625 117.890625 C 212.265625 117.890625 212.230469 118.066406 212.125 118.414062 M 217.164062 128.003906 C 217.164062 128.003906 220.175781 129.125 220.417969 131.679688 C 220.417969 131.679688 220.453125 131.890625 220.453125 132.136719 C 220.453125 132.136719 220.453125 132.800781 220.316406 133.78125 C 220.316406 133.78125 219.964844 136.582031 219.964844 137.769531 C 219.964844 137.769531 219.964844 139.589844 220.875 139.835938 L 220.910156 139.835938 C 220.910156 139.835938 221.121094 139.90625 221.363281 139.90625 C 221.363281 139.90625 222.871094 139.90625 223.917969 138.085938 C 223.917969 138.085938 224.304688 137.488281 224.550781 136.71875 C 224.550781 136.71875 224.691406 136.230469 225.003906 136.230469 C 225.003906 136.230469 225.425781 136.230469 225.425781 136.648438 C 225.425781 136.648438 225.425781 137.351562 224.585938 138.609375 C 224.585938 138.609375 223.917969 139.625 223.042969 140.183594 C 223.042969 140.183594 222.203125 140.675781 221.226562 140.675781 C 221.226562 140.675781 218.320312 140.675781 217.164062 138.960938 C 217.164062 138.960938 216.570312 138.121094 216.570312 136.894531 C 216.570312 136.894531 216.570312 136.160156 217.128906 133.921875 C 217.128906 133.921875 217.621094 132.03125 217.621094 131.503906 C 217.621094 131.503906 217.621094 129.335938 215.660156 128.636719 L 215.660156 128.601562 C 215.660156 128.601562 214.855469 128.320312 213.804688 128.320312 L 209.640625 128.320312 L 207.328125 137.59375 L 207.226562 138.191406 C 207.226562 138.191406 207.226562 138.785156 208.835938 138.820312 L 209.5 138.820312 C 209.5 138.820312 210.410156 138.820312 210.480469 139.207031 C 210.480469 139.207031 210.480469 139.90625 209.78125 139.90625 L 205.371094 139.800781 L 205.335938 139.800781 L 200.960938 139.90625 L 200.925781 139.90625 C 200.925781 139.90625 200.433594 139.90625 200.433594 139.519531 C 200.433594 139.519531 200.433594 138.890625 200.960938 138.820312 L 201.378906 138.820312 C 201.378906 138.820312 203.65625 138.820312 204.109375 138.332031 C 204.109375 138.332031 204.320312 138.085938 204.53125 137.351562 C 204.53125 137.351562 204.53125 137.316406 204.566406 137.175781 L 209.253906 118.378906 C 209.253906 118.378906 209.394531 117.820312 209.394531 117.714844 C 209.394531 117.714844 209.394531 117.296875 208.835938 117.191406 L 208.765625 117.191406 C 208.765625 117.191406 208.660156 117.191406 208.449219 117.15625 C 208.449219 117.15625 207.855469 117.085938 207.121094 117.085938 C 207.121094 117.085938 206.210938 117.085938 206.140625 116.699219 C 206.140625 116.699219 206.140625 116.070312 206.664062 116 L 217.128906 116 C 217.128906 116 221.503906 116 223.640625 118.308594 C 223.640625 118.308594 224.863281 119.570312 224.863281 121.25 C 224.863281 121.25 224.863281 124.296875 221.121094 126.464844 C 221.121094 126.464844 219.300781 127.550781 217.164062 128.003906 Z M 217.164062 128.003906 "
       id="path108" />
    <path
       style=" stroke:none;fill-rule:nonzero;fill:rgb(0%,0%,0%);fill-opacity:1;"
       d="M 232.523438 129.84375 C 232.523438 129.84375 232.523438 130.601562 231.761719 130.996094 C 231.761719 130.996094 231.492188 131.140625 231.222656 131.140625 C 231.222656 131.140625 230.488281 131.140625 230.316406 130.480469 C 230.316406 130.480469 230.292969 130.355469 230.292969 130.257812 C 230.292969 130.257812 230.292969 129.574219 230.980469 129.15625 C 230.980469 129.15625 231.296875 128.960938 231.617188 128.960938 C 231.617188 128.960938 232.351562 128.960938 232.5 129.621094 L 232.5 129.648438 C 232.5 129.648438 232.523438 129.746094 232.523438 129.84375 M 230.660156 139.054688 L 229.707031 141.628906 C 229.707031 141.628906 229.019531 143.613281 228.996094 144.078125 C 228.996094 144.078125 228.996094 144.886719 229.582031 144.886719 C 229.582031 144.886719 231.125 144.886719 231.984375 142.140625 L 232.082031 141.847656 C 232.082031 141.847656 232.203125 141.457031 232.328125 141.429688 L 232.328125 141.40625 L 232.449219 141.40625 C 232.449219 141.40625 232.742188 141.40625 232.742188 141.652344 C 232.742188 141.652344 232.742188 142.09375 232.203125 143.21875 C 232.203125 143.21875 231.152344 145.425781 229.535156 145.425781 C 229.535156 145.425781 228.234375 145.425781 227.722656 144.347656 C 227.722656 144.347656 227.523438 143.90625 227.523438 143.414062 C 227.523438 143.414062 227.523438 142.925781 228.089844 141.457031 C 228.089844 141.457031 229.804688 136.851562 229.777344 136.921875 C 229.777344 136.921875 230.046875 136.238281 230.046875 135.648438 C 230.046875 135.648438 230.046875 134.863281 229.4375 134.863281 C 229.4375 134.863281 228.089844 134.863281 227.230469 137.09375 L 227.230469 137.121094 C 227.230469 137.121094 227.082031 137.488281 226.960938 137.902344 C 226.960938 137.902344 226.691406 138.320312 226.570312 138.34375 C 226.570312 138.34375 226.273438 138.34375 226.273438 138.097656 C 226.273438 138.097656 226.273438 137.65625 226.8125 136.554688 C 226.8125 136.554688 227.867188 134.324219 229.507812 134.324219 C 229.507812 134.324219 230.808594 134.324219 231.324219 135.429688 C 231.324219 135.429688 231.519531 135.84375 231.519531 136.335938 C 231.519531 136.335938 231.519531 136.824219 231.199219 137.632812 C 231.199219 137.632812 230.785156 138.761719 230.660156 139.054688 Z M 230.660156 139.054688 "
       id="path110" />
    <path
       style=" stroke:none;fill-rule:nonzero;fill:rgb(0%,0%,0%);fill-opacity:1;"
       d="M 250.378906 25.066406 C 250.378906 25.066406 250.378906 26.988281 249.328125 30.453125 C 249.328125 30.453125 247.300781 37.246094 243.695312 38.292969 C 243.695312 38.292969 243.136719 38.46875 242.503906 38.46875 C 242.503906 38.46875 239.320312 38.46875 238.269531 36.265625 C 238.269531 36.265625 237.816406 35.355469 237.816406 34.128906 C 237.816406 34.128906 237.816406 32.308594 239.425781 27.96875 L 239.808594 26.953125 C 239.808594 26.953125 240.40625 25.414062 240.40625 24.503906 C 240.40625 24.503906 240.40625 23.386719 239.53125 23.386719 C 239.53125 23.386719 237.640625 23.386719 236.414062 26.5 C 236.414062 26.5 236.167969 27.058594 235.996094 27.726562 C 235.996094 27.726562 235.609375 28.320312 235.433594 28.355469 C 235.433594 28.355469 235.015625 28.355469 235.015625 28.003906 C 235.015625 28.003906 235.015625 27.375 235.785156 25.800781 C 235.785156 25.800781 237.289062 22.613281 239.636719 22.613281 C 239.636719 22.613281 241.488281 22.613281 242.226562 24.191406 C 242.226562 24.191406 242.503906 24.785156 242.503906 25.484375 C 242.503906 25.484375 242.503906 26.21875 242.085938 27.234375 C 242.085938 27.234375 240.195312 32.273438 240.054688 34.199219 L 240.054688 34.65625 C 240.054688 34.65625 240.054688 37.453125 242.292969 37.699219 L 242.644531 37.699219 C 242.644531 37.699219 245.480469 37.699219 247.542969 32.941406 C 247.542969 32.941406 248.769531 30.140625 248.875 28.214844 C 248.875 28.214844 248.875 26.464844 247.683594 25.34375 C 247.683594 25.34375 247.125 24.785156 247.125 24.292969 C 247.125 24.292969 247.125 23.417969 248.035156 22.859375 C 248.035156 22.859375 248.417969 22.613281 248.839844 22.613281 C 248.839844 22.613281 249.855469 22.613281 250.238281 23.910156 C 250.238281 23.910156 250.378906 24.398438 250.378906 25.066406 Z M 250.378906 25.066406 "
       id="path112" />
    <path
       style=" stroke:none;fill-rule:nonzero;fill:rgb(0%,0%,0%);fill-opacity:1;"
       d="M 257.933594 28.023438 C 257.933594 28.023438 257.933594 28.78125 257.171875 29.175781 C 257.171875 29.175781 256.902344 29.320312 256.632812 29.320312 C 256.632812 29.320312 255.898438 29.320312 255.726562 28.660156 C 255.726562 28.660156 255.703125 28.535156 255.703125 28.4375 C 255.703125 28.4375 255.703125 27.753906 256.390625 27.335938 C 256.390625 27.335938 256.707031 27.140625 257.027344 27.140625 C 257.027344 27.140625 257.761719 27.140625 257.910156 27.800781 L 257.910156 27.828125 C 257.910156 27.828125 257.933594 27.925781 257.933594 28.023438 M 256.070312 37.234375 L 255.117188 39.808594 C 255.117188 39.808594 254.429688 41.792969 254.40625 42.257812 C 254.40625 42.257812 254.40625 43.066406 254.992188 43.066406 C 254.992188 43.066406 256.535156 43.066406 257.394531 40.320312 L 257.492188 40.027344 C 257.492188 40.027344 257.613281 39.636719 257.738281 39.609375 L 257.738281 39.585938 L 257.859375 39.585938 C 257.859375 39.585938 258.152344 39.585938 258.152344 39.832031 C 258.152344 39.832031 258.152344 40.273438 257.613281 41.398438 C 257.613281 41.398438 256.5625 43.605469 254.945312 43.605469 C 254.945312 43.605469 253.644531 43.605469 253.128906 42.527344 C 253.128906 42.527344 252.933594 42.085938 252.933594 41.59375 C 252.933594 41.59375 252.933594 41.105469 253.5 39.636719 C 253.5 39.636719 255.214844 35.03125 255.1875 35.101562 C 255.1875 35.101562 255.457031 34.417969 255.457031 33.828125 C 255.457031 33.828125 255.457031 33.042969 254.847656 33.042969 C 254.847656 33.042969 253.5 33.042969 252.640625 35.273438 L 252.640625 35.300781 C 252.640625 35.300781 252.492188 35.667969 252.371094 36.082031 C 252.371094 36.082031 252.101562 36.5 251.980469 36.523438 C 251.980469 36.523438 251.683594 36.523438 251.683594 36.277344 C 251.683594 36.277344 251.683594 35.839844 252.222656 34.734375 C 252.222656 34.734375 253.277344 32.507812 254.917969 32.507812 C 254.917969 32.507812 256.21875 32.507812 256.730469 33.609375 C 256.730469 33.609375 256.929688 34.023438 256.929688 34.515625 C 256.929688 34.515625 256.929688 35.003906 256.609375 35.8125 C 256.609375 35.8125 256.191406 36.941406 256.070312 37.234375 Z M 256.070312 37.234375 "
       id="path114" />
    <path
       style=" stroke:none;fill-rule:nonzero;fill:rgb(0%,0%,0%);fill-opacity:1;"
       d="M 275.621094 37.699219 L 262.269531 37.699219 C 262.269531 37.699219 261.484375 37.699219 261.460938 37.210938 C 261.460938 37.210938 261.460938 36.71875 262.269531 36.71875 L 275.621094 36.71875 C 275.621094 36.71875 276.40625 36.71875 276.429688 37.210938 C 276.429688 37.210938 276.429688 37.699219 275.621094 37.699219 Z M 275.621094 37.699219 "
       id="path116" />
    <path
       style=" stroke:none;fill-rule:nonzero;fill:rgb(0%,0%,0%);fill-opacity:1;"
       d="M 285.691406 27.65625 L 285.691406 41.398438 C 285.691406 41.398438 285.691406 42.132812 285.984375 42.332031 C 285.984375 42.332031 286.402344 42.574219 287.96875 42.574219 L 288.753906 42.574219 L 288.753906 43.335938 C 288.753906 43.335938 287.894531 43.261719 284.785156 43.261719 C 284.785156 43.261719 281.671875 43.261719 280.816406 43.335938 L 280.816406 42.574219 L 281.601562 42.574219 C 281.601562 42.574219 283.488281 42.574219 283.753906 42.132812 L 283.78125 42.109375 C 283.78125 42.109375 283.878906 41.914062 283.878906 41.398438 L 283.878906 28.707031 C 283.878906 28.707031 282.605469 29.34375 280.667969 29.34375 L 280.667969 28.585938 C 280.667969 28.585938 283.609375 28.585938 285.128906 27.019531 C 285.128906 27.019531 285.59375 27.019531 285.667969 27.1875 L 285.667969 27.214844 C 285.667969 27.214844 285.691406 27.289062 285.691406 27.65625 Z M 285.691406 27.65625 "
       id="path118" />
    <path
       style=" stroke:none;fill-rule:nonzero;fill:rgb(0%,0%,0%);fill-opacity:1;"
       d="M 47.378906 64.066406 C 47.378906 64.066406 47.378906 65.988281 46.328125 69.453125 C 46.328125 69.453125 44.300781 76.246094 40.695312 77.296875 C 40.695312 77.296875 40.136719 77.46875 39.503906 77.46875 C 39.503906 77.46875 36.320312 77.46875 35.269531 75.265625 C 35.269531 75.265625 34.816406 74.355469 34.816406 73.128906 C 34.816406 73.128906 34.816406 71.308594 36.425781 66.96875 L 36.808594 65.953125 C 36.808594 65.953125 37.40625 64.414062 37.40625 63.503906 C 37.40625 63.503906 37.40625 62.386719 36.53125 62.386719 C 36.53125 62.386719 34.640625 62.386719 33.414062 65.5 C 33.414062 65.5 33.167969 66.058594 32.996094 66.726562 C 32.996094 66.726562 32.609375 67.320312 32.433594 67.355469 C 32.433594 67.355469 32.015625 67.355469 32.015625 67.003906 C 32.015625 67.003906 32.015625 66.375 32.785156 64.800781 C 32.785156 64.800781 34.289062 61.613281 36.636719 61.613281 C 36.636719 61.613281 38.488281 61.613281 39.226562 63.191406 C 39.226562 63.191406 39.503906 63.785156 39.503906 64.484375 C 39.503906 64.484375 39.503906 65.21875 39.085938 66.234375 C 39.085938 66.234375 37.195312 71.273438 37.054688 73.199219 L 37.054688 73.65625 C 37.054688 73.65625 37.054688 76.453125 39.292969 76.699219 L 39.644531 76.699219 C 39.644531 76.699219 42.480469 76.699219 44.542969 71.941406 C 44.542969 71.941406 45.769531 69.140625 45.875 67.214844 C 45.875 67.214844 45.875 65.464844 44.683594 64.34375 C 44.683594 64.34375 44.125 63.785156 44.125 63.296875 C 44.125 63.296875 44.125 62.421875 45.035156 61.859375 C 45.035156 61.859375 45.417969 61.613281 45.839844 61.613281 C 45.839844 61.613281 46.855469 61.613281 47.238281 62.910156 C 47.238281 62.910156 47.378906 63.398438 47.378906 64.066406 Z M 47.378906 64.066406 "
       id="path120" />
    <path
       style=" stroke:none;fill-rule:nonzero;fill:rgb(0%,0%,0%);fill-opacity:1;"
       d="M 54.933594 67.023438 C 54.933594 67.023438 54.933594 67.78125 54.171875 68.175781 C 54.171875 68.175781 53.902344 68.320312 53.632812 68.320312 C 53.632812 68.320312 52.898438 68.320312 52.726562 67.660156 C 52.726562 67.660156 52.703125 67.535156 52.703125 67.4375 C 52.703125 67.4375 52.703125 66.753906 53.390625 66.335938 C 53.390625 66.335938 53.707031 66.140625 54.027344 66.140625 C 54.027344 66.140625 54.761719 66.140625 54.910156 66.800781 L 54.910156 66.828125 C 54.910156 66.828125 54.933594 66.925781 54.933594 67.023438 M 53.070312 76.234375 L 52.117188 78.808594 C 52.117188 78.808594 51.429688 80.792969 51.40625 81.257812 C 51.40625 81.257812 51.40625 82.066406 51.992188 82.066406 C 51.992188 82.066406 53.535156 82.066406 54.394531 79.320312 L 54.492188 79.027344 C 54.492188 79.027344 54.613281 78.636719 54.738281 78.609375 L 54.738281 78.585938 L 54.859375 78.585938 C 54.859375 78.585938 55.152344 78.585938 55.152344 78.832031 C 55.152344 78.832031 55.152344 79.273438 54.613281 80.398438 C 54.613281 80.398438 53.5625 82.605469 51.945312 82.605469 C 51.945312 82.605469 50.644531 82.605469 50.128906 81.527344 C 50.128906 81.527344 49.933594 81.085938 49.933594 80.59375 C 49.933594 80.59375 49.933594 80.105469 50.5 78.636719 C 50.5 78.636719 52.214844 74.03125 52.1875 74.101562 C 52.1875 74.101562 52.457031 73.417969 52.457031 72.828125 C 52.457031 72.828125 52.457031 72.046875 51.847656 72.046875 C 51.847656 72.046875 50.5 72.046875 49.640625 74.273438 L 49.640625 74.300781 C 49.640625 74.300781 49.492188 74.667969 49.371094 75.082031 C 49.371094 75.082031 49.101562 75.5 48.980469 75.523438 C 48.980469 75.523438 48.683594 75.523438 48.683594 75.277344 C 48.683594 75.277344 48.683594 74.839844 49.222656 73.734375 C 49.222656 73.734375 50.277344 71.507812 51.917969 71.507812 C 51.917969 71.507812 53.21875 71.507812 53.730469 72.609375 C 53.730469 72.609375 53.929688 73.023438 53.929688 73.515625 C 53.929688 73.515625 53.929688 74.003906 53.609375 74.8125 C 53.609375 74.8125 53.191406 75.941406 53.070312 76.234375 Z M 53.070312 76.234375 "
       id="path122" />
    <path
       style=" stroke:none;fill-rule:nonzero;fill:rgb(0%,0%,0%);fill-opacity:1;"
       d="M 37.378906 220.066406 C 37.378906 220.066406 37.378906 221.988281 36.328125 225.453125 C 36.328125 225.453125 34.300781 232.246094 30.695312 233.296875 C 30.695312 233.296875 30.136719 233.46875 29.503906 233.46875 C 29.503906 233.46875 26.320312 233.46875 25.269531 231.265625 C 25.269531 231.265625 24.816406 230.355469 24.816406 229.128906 C 24.816406 229.128906 24.816406 227.308594 26.425781 222.96875 L 26.808594 221.953125 C 26.808594 221.953125 27.40625 220.414062 27.40625 219.503906 C 27.40625 219.503906 27.40625 218.386719 26.53125 218.386719 C 26.53125 218.386719 24.640625 218.386719 23.414062 221.5 C 23.414062 221.5 23.171875 222.058594 22.996094 222.726562 C 22.996094 222.726562 22.609375 223.320312 22.433594 223.355469 C 22.433594 223.355469 22.015625 223.355469 22.015625 223.003906 C 22.015625 223.003906 22.015625 222.375 22.785156 220.800781 C 22.785156 220.800781 24.289062 217.613281 26.636719 217.613281 C 26.636719 217.613281 28.488281 217.613281 29.226562 219.191406 C 29.226562 219.191406 29.503906 219.785156 29.503906 220.484375 C 29.503906 220.484375 29.503906 221.21875 29.085938 222.234375 C 29.085938 222.234375 27.195312 227.273438 27.054688 229.199219 L 27.054688 229.65625 C 27.054688 229.65625 27.054688 232.453125 29.296875 232.699219 L 29.644531 232.699219 C 29.644531 232.699219 32.480469 232.699219 34.546875 227.941406 C 34.546875 227.941406 35.769531 225.140625 35.875 223.214844 C 35.875 223.214844 35.875 221.464844 34.683594 220.34375 C 34.683594 220.34375 34.125 219.785156 34.125 219.296875 C 34.125 219.296875 34.125 218.421875 35.035156 217.859375 C 35.035156 217.859375 35.421875 217.613281 35.839844 217.613281 C 35.839844 217.613281 36.855469 217.613281 37.238281 218.910156 C 37.238281 218.910156 37.378906 219.398438 37.378906 220.066406 Z M 37.378906 220.066406 "
       id="path124" />
    <path
       style=" stroke:none;fill-rule:nonzero;fill:rgb(0%,0%,0%);fill-opacity:1;"
       d="M 44.933594 223.023438 C 44.933594 223.023438 44.933594 223.78125 44.171875 224.175781 C 44.171875 224.175781 43.902344 224.320312 43.632812 224.320312 C 43.632812 224.320312 42.898438 224.320312 42.726562 223.660156 C 42.726562 223.660156 42.703125 223.535156 42.703125 223.4375 C 42.703125 223.4375 42.703125 222.753906 43.390625 222.335938 C 43.390625 222.335938 43.707031 222.140625 44.027344 222.140625 C 44.027344 222.140625 44.761719 222.140625 44.910156 222.800781 L 44.910156 222.828125 C 44.910156 222.828125 44.933594 222.925781 44.933594 223.023438 M 43.070312 232.234375 L 42.117188 234.808594 C 42.117188 234.808594 41.429688 236.792969 41.40625 237.257812 C 41.40625 237.257812 41.40625 238.066406 41.992188 238.066406 C 41.992188 238.066406 43.535156 238.066406 44.394531 235.320312 L 44.492188 235.027344 C 44.492188 235.027344 44.613281 234.636719 44.738281 234.609375 L 44.738281 234.585938 L 44.859375 234.585938 C 44.859375 234.585938 45.152344 234.585938 45.152344 234.832031 C 45.152344 234.832031 45.152344 235.273438 44.613281 236.398438 C 44.613281 236.398438 43.5625 238.605469 41.945312 238.605469 C 41.945312 238.605469 40.644531 238.605469 40.132812 237.527344 C 40.132812 237.527344 39.933594 237.085938 39.933594 236.59375 C 39.933594 236.59375 39.933594 236.105469 40.5 234.636719 C 40.5 234.636719 42.214844 230.03125 42.1875 230.101562 C 42.1875 230.101562 42.457031 229.417969 42.457031 228.828125 C 42.457031 228.828125 42.457031 228.046875 41.847656 228.046875 C 41.847656 228.046875 40.5 228.046875 39.640625 230.273438 L 39.640625 230.300781 C 39.640625 230.300781 39.492188 230.667969 39.371094 231.082031 C 39.371094 231.082031 39.101562 231.5 38.980469 231.523438 C 38.980469 231.523438 38.683594 231.523438 38.683594 231.277344 C 38.683594 231.277344 38.683594 230.839844 39.222656 229.734375 C 39.222656 229.734375 40.277344 227.507812 41.917969 227.507812 C 41.917969 227.507812 43.21875 227.507812 43.734375 228.609375 C 43.734375 228.609375 43.929688 229.023438 43.929688 229.515625 C 43.929688 229.515625 43.929688 230.003906 43.609375 230.8125 C 43.609375 230.8125 43.195312 231.941406 43.070312 232.234375 Z M 43.070312 232.234375 "
       id="path126" />
    <path
       style=" stroke:none;fill-rule:nonzero;fill:rgb(0%,0%,0%);fill-opacity:1;"
       d="M 56.449219 232.699219 L 56.449219 239.558594 C 56.449219 239.558594 56.449219 240.34375 55.957031 240.367188 C 55.957031 240.367188 55.46875 240.367188 55.46875 239.558594 L 55.46875 232.699219 L 48.609375 232.699219 C 48.609375 232.699219 47.824219 232.699219 47.800781 232.210938 C 47.800781 232.210938 47.800781 231.71875 48.609375 231.71875 L 55.46875 231.71875 L 55.46875 224.859375 C 55.46875 224.859375 55.46875 224.074219 55.957031 224.050781 C 55.957031 224.050781 56.449219 224.050781 56.449219 224.859375 L 56.449219 231.71875 L 63.285156 231.71875 C 63.285156 231.71875 64.066406 231.71875 64.09375 232.210938 C 64.09375 232.210938 64.09375 232.699219 63.285156 232.699219 Z M 56.449219 232.699219 "
       id="path128" />
    <path
       style=" stroke:none;fill-rule:nonzero;fill:rgb(0%,0%,0%);fill-opacity:1;"
       d="M 72.691406 222.65625 L 72.691406 236.398438 C 72.691406 236.398438 72.691406 237.132812 72.984375 237.332031 C 72.984375 237.332031 73.402344 237.574219 74.96875 237.574219 L 75.753906 237.574219 L 75.753906 238.335938 C 75.753906 238.335938 74.898438 238.261719 71.785156 238.261719 C 71.785156 238.261719 68.671875 238.261719 67.816406 238.335938 L 67.816406 237.574219 L 68.601562 237.574219 C 68.601562 237.574219 70.488281 237.574219 70.757812 237.132812 L 70.78125 237.109375 C 70.78125 237.109375 70.878906 236.914062 70.878906 236.398438 L 70.878906 223.707031 C 70.878906 223.707031 69.605469 224.34375 67.667969 224.34375 L 67.667969 223.585938 C 67.667969 223.585938 70.609375 223.585938 72.128906 222.019531 C 72.128906 222.019531 72.59375 222.019531 72.667969 222.1875 L 72.667969 222.214844 C 72.667969 222.214844 72.691406 222.289062 72.691406 222.65625 Z M 72.691406 222.65625 "
       id="path130" />
    <path
       style=" stroke:none;fill-rule:nonzero;fill:rgb(0%,0%,0%);fill-opacity:1;"
       d="M 311.378906 448.066406 C 311.378906 448.066406 311.378906 449.988281 310.328125 453.457031 C 310.328125 453.457031 308.300781 460.246094 304.695312 461.296875 C 304.695312 461.296875 304.136719 461.46875 303.503906 461.46875 C 303.503906 461.46875 300.320312 461.46875 299.269531 459.265625 C 299.269531 459.265625 298.816406 458.355469 298.816406 457.128906 C 298.816406 457.128906 298.816406 455.308594 300.425781 450.96875 L 300.808594 449.957031 C 300.808594 449.957031 301.40625 448.414062 301.40625 447.503906 C 301.40625 447.503906 301.40625 446.386719 300.53125 446.386719 C 300.53125 446.386719 298.640625 446.386719 297.414062 449.5 C 297.414062 449.5 297.171875 450.058594 296.996094 450.726562 C 296.996094 450.726562 296.609375 451.320312 296.433594 451.355469 C 296.433594 451.355469 296.015625 451.355469 296.015625 451.003906 C 296.015625 451.003906 296.015625 450.375 296.785156 448.800781 C 296.785156 448.800781 298.289062 445.613281 300.636719 445.613281 C 300.636719 445.613281 302.488281 445.613281 303.226562 447.191406 C 303.226562 447.191406 303.503906 447.785156 303.503906 448.484375 C 303.503906 448.484375 303.503906 449.21875 303.085938 450.234375 C 303.085938 450.234375 301.195312 455.273438 301.054688 457.199219 L 301.054688 457.65625 C 301.054688 457.65625 301.054688 460.457031 303.296875 460.699219 L 303.644531 460.699219 C 303.644531 460.699219 306.480469 460.699219 308.546875 455.941406 C 308.546875 455.941406 309.769531 453.140625 309.875 451.214844 C 309.875 451.214844 309.875 449.464844 308.683594 448.34375 C 308.683594 448.34375 308.125 447.785156 308.125 447.296875 C 308.125 447.296875 308.125 446.421875 309.035156 445.859375 C 309.035156 445.859375 309.421875 445.613281 309.839844 445.613281 C 309.839844 445.613281 310.855469 445.613281 311.238281 446.910156 C 311.238281 446.910156 311.378906 447.398438 311.378906 448.066406 Z M 311.378906 448.066406 "
       id="path132" />
    <path
       style=" stroke:none;fill-rule:nonzero;fill:rgb(0%,0%,0%);fill-opacity:1;"
       d="M 319.179688 450.65625 L 319.179688 464.398438 C 319.179688 464.398438 319.179688 465.132812 319.472656 465.332031 C 319.472656 465.332031 319.886719 465.574219 321.457031 465.574219 L 322.242188 465.574219 L 322.242188 466.335938 C 322.242188 466.335938 321.382812 466.261719 318.269531 466.261719 C 318.269531 466.261719 315.160156 466.261719 314.300781 466.335938 L 314.300781 465.574219 L 315.085938 465.574219 C 315.085938 465.574219 316.972656 465.574219 317.242188 465.132812 L 317.265625 465.109375 C 317.265625 465.109375 317.363281 464.914062 317.363281 464.398438 L 317.363281 451.707031 C 317.363281 451.707031 316.089844 452.34375 314.15625 452.34375 L 314.15625 451.585938 C 314.15625 451.585938 317.09375 451.585938 318.613281 450.019531 C 318.613281 450.019531 319.078125 450.019531 319.152344 450.191406 L 319.152344 450.214844 C 319.152344 450.214844 319.179688 450.289062 319.179688 450.65625 Z M 319.179688 450.65625 "
       id="path134" />
    <path
       style=" stroke:none;fill-rule:nonzero;fill:rgb(0%,0%,0%);fill-opacity:1;"
       d="M 198.378906 444.066406 C 198.378906 444.066406 198.378906 445.988281 197.328125 449.453125 C 197.328125 449.453125 195.300781 456.246094 191.695312 457.296875 C 191.695312 457.296875 191.136719 457.46875 190.503906 457.46875 C 190.503906 457.46875 187.320312 457.46875 186.269531 455.265625 C 186.269531 455.265625 185.816406 454.355469 185.816406 453.128906 C 185.816406 453.128906 185.816406 451.308594 187.425781 446.96875 L 187.808594 445.953125 C 187.808594 445.953125 188.40625 444.414062 188.40625 443.503906 C 188.40625 443.503906 188.40625 442.386719 187.53125 442.386719 C 187.53125 442.386719 185.640625 442.386719 184.414062 445.5 C 184.414062 445.5 184.171875 446.058594 183.996094 446.726562 C 183.996094 446.726562 183.609375 447.320312 183.433594 447.355469 C 183.433594 447.355469 183.015625 447.355469 183.015625 447.003906 C 183.015625 447.003906 183.015625 446.375 183.785156 444.800781 C 183.785156 444.800781 185.289062 441.613281 187.636719 441.613281 C 187.636719 441.613281 189.488281 441.613281 190.226562 443.191406 C 190.226562 443.191406 190.503906 443.785156 190.503906 444.484375 C 190.503906 444.484375 190.503906 445.21875 190.085938 446.234375 C 190.085938 446.234375 188.195312 451.273438 188.054688 453.199219 L 188.054688 453.65625 C 188.054688 453.65625 188.054688 456.453125 190.296875 456.699219 L 190.644531 456.699219 C 190.644531 456.699219 193.480469 456.699219 195.546875 451.941406 C 195.546875 451.941406 196.769531 449.140625 196.875 447.214844 C 196.875 447.214844 196.875 445.464844 195.683594 444.34375 C 195.683594 444.34375 195.125 443.785156 195.125 443.296875 C 195.125 443.296875 195.125 442.421875 196.035156 441.859375 C 196.035156 441.859375 196.421875 441.613281 196.839844 441.613281 C 196.839844 441.613281 197.855469 441.613281 198.238281 442.910156 C 198.238281 442.910156 198.378906 443.398438 198.378906 444.066406 Z M 198.378906 444.066406 "
       id="path136" />
    <path
       style=" stroke:none;fill-rule:nonzero;fill:rgb(0%,0%,0%);fill-opacity:1;"
       d="M 201.132812 460.890625 L 202.550781 455.230469 C 202.550781 455.230469 202.945312 453.660156 202.945312 453.171875 C 202.945312 453.171875 202.945312 452.046875 202.183594 452.046875 C 202.183594 452.046875 201.179688 452.046875 200.542969 454.371094 C 200.542969 454.371094 200.46875 454.640625 200.394531 454.960938 C 200.394531 454.960938 200.125 455.5 199.980469 455.523438 C 199.980469 455.523438 199.683594 455.523438 199.683594 455.277344 C 199.683594 455.277344 199.683594 454.886719 200.175781 453.515625 L 200.175781 453.492188 C 200.175781 453.492188 200.175781 453.464844 200.199219 453.464844 L 200.199219 453.417969 L 200.421875 452.902344 C 200.421875 452.902344 200.960938 451.921875 201.523438 451.675781 C 201.523438 451.675781 201.867188 451.507812 202.257812 451.507812 C 202.257812 451.507812 203.628906 451.507812 204.242188 452.65625 C 204.242188 452.65625 204.464844 453.097656 204.511719 453.636719 C 204.511719 453.636719 206.078125 451.507812 208.335938 451.507812 C 208.335938 451.507812 210.441406 451.507812 211.003906 453.121094 C 211.003906 453.121094 211.152344 453.5625 211.152344 454.128906 C 211.152344 454.128906 211.152344 455.375 209.65625 459.515625 C 209.65625 459.515625 209.214844 460.59375 209.214844 461.257812 C 209.214844 461.257812 209.214844 462.066406 209.804688 462.066406 C 209.804688 462.066406 211.421875 462.066406 212.304688 459.027344 C 212.304688 459.027344 212.425781 458.636719 212.546875 458.609375 L 212.546875 458.585938 L 212.671875 458.585938 C 212.671875 458.585938 212.964844 458.585938 212.964844 458.832031 C 212.964844 458.832031 212.964844 459.246094 212.449219 460.375 C 212.449219 460.375 211.398438 462.605469 209.753906 462.605469 C 209.753906 462.605469 208.503906 462.605469 207.964844 461.550781 C 207.964844 461.550781 207.746094 461.109375 207.746094 460.59375 C 207.746094 460.59375 207.746094 460.105469 207.992188 459.46875 C 207.992188 459.46875 209.582031 455.179688 209.582031 453.761719 C 209.582031 453.761719 209.582031 452.046875 208.261719 452.046875 C 208.261719 452.046875 206.054688 452.046875 204.5625 454.496094 C 204.5625 454.496094 204.390625 454.765625 204.265625 455.035156 L 203.949219 456.257812 C 203.949219 456.257812 203.824219 456.824219 203.53125 457.902344 L 202.992188 460.105469 C 202.992188 460.105469 202.578125 461.796875 202.527344 461.917969 C 202.527344 461.917969 202.308594 462.554688 201.621094 462.605469 C 201.621094 462.605469 201.007812 462.480469 200.910156 461.941406 C 200.910156 461.941406 200.910156 461.992188 201.132812 460.890625 Z M 201.132812 460.890625 "
       id="path138" />
    <path
       style=" stroke:none;fill-rule:nonzero;fill:rgb(39.99939%,59.999084%,0%);fill-opacity:1;"
       d="M 82.925781 122.789062 C 82.925781 122.789062 82.925781 128.144531 80.195312 133.640625 C 80.195312 133.640625 77.746094 138.539062 74.769531 140.113281 C 74.769531 140.113281 73.683594 140.675781 72.671875 140.675781 C 72.671875 140.675781 69.800781 140.675781 68.820312 136.753906 C 68.820312 136.753906 68.46875 135.285156 68.46875 133.5 C 68.46875 133.5 68.46875 128.003906 71.269531 122.476562 C 71.269531 122.476562 73.71875 117.679688 76.695312 116.140625 C 76.695312 116.140625 77.746094 115.613281 78.726562 115.613281 C 78.726562 115.613281 81.769531 115.613281 82.644531 120.058594 C 82.644531 120.058594 82.925781 121.390625 82.925781 122.789062 M 72.179688 127.585938 L 79.496094 127.585938 C 79.496094 127.585938 80.613281 122.964844 80.613281 120.621094 C 80.613281 120.621094 80.613281 116.664062 78.96875 116.421875 C 78.96875 116.421875 78.832031 116.386719 78.691406 116.386719 C 78.691406 116.386719 76.90625 116.386719 74.875 120.058594 C 74.875 120.058594 73.546875 122.40625 72.214844 127.410156 C 72.214844 127.410156 72.214844 127.515625 72.179688 127.585938 M 79.179688 128.707031 L 71.898438 128.707031 C 71.898438 128.707031 70.78125 132.941406 70.78125 135.636719 C 70.78125 135.636719 70.78125 139.835938 72.671875 139.90625 C 72.671875 139.90625 74.628906 139.90625 76.730469 135.808594 C 76.730469 135.808594 78.09375 133.21875 79.179688 128.707031 Z M 79.179688 128.707031 "
       id="path140" />
    <path
       style=" stroke:none;fill-rule:nonzero;fill:rgb(39.99939%,59.999084%,0%);fill-opacity:1;"
       d="M 90.375 130.226562 C 90.375 130.226562 90.375 130.988281 89.613281 131.378906 C 89.613281 131.378906 89.34375 131.527344 89.074219 131.527344 C 89.074219 131.527344 88.339844 131.527344 88.167969 130.863281 C 88.167969 130.863281 88.144531 130.742188 88.144531 130.644531 C 88.144531 130.644531 88.144531 129.957031 88.828125 129.542969 C 88.828125 129.542969 89.148438 129.34375 89.464844 129.34375 C 89.464844 129.34375 90.203125 129.34375 90.347656 130.007812 L 90.347656 130.03125 C 90.347656 130.03125 90.375 130.128906 90.375 130.226562 M 88.511719 139.441406 L 87.554688 142.011719 C 87.554688 142.011719 86.871094 143.996094 86.84375 144.460938 C 86.84375 144.460938 86.84375 145.269531 87.433594 145.269531 C 87.433594 145.269531 88.976562 145.269531 89.835938 142.527344 L 89.933594 142.234375 C 89.933594 142.234375 90.054688 141.839844 90.175781 141.816406 L 90.175781 141.792969 L 90.300781 141.792969 C 90.300781 141.792969 90.59375 141.792969 90.59375 142.035156 C 90.59375 142.035156 90.59375 142.476562 90.054688 143.605469 C 90.054688 143.605469 89 145.808594 87.382812 145.808594 C 87.382812 145.808594 86.085938 145.808594 85.570312 144.730469 C 85.570312 144.730469 85.375 144.289062 85.375 143.800781 C 85.375 143.800781 85.375 143.3125 85.9375 141.839844 C 85.9375 141.839844 87.652344 137.234375 87.628906 137.308594 C 87.628906 137.308594 87.898438 136.621094 87.898438 136.035156 C 87.898438 136.035156 87.898438 135.25 87.285156 135.25 C 87.285156 135.25 85.9375 135.25 85.082031 137.480469 L 85.082031 137.503906 C 85.082031 137.503906 84.933594 137.871094 84.8125 138.289062 C 84.8125 138.289062 84.542969 138.703125 84.417969 138.730469 C 84.417969 138.730469 84.125 138.730469 84.125 138.484375 C 84.125 138.484375 84.125 138.042969 84.664062 136.941406 C 84.664062 136.941406 85.71875 134.710938 87.359375 134.710938 C 87.359375 134.710938 88.65625 134.710938 89.171875 135.8125 C 89.171875 135.8125 89.367188 136.230469 89.367188 136.71875 C 89.367188 136.71875 89.367188 137.210938 89.050781 138.019531 C 89.050781 138.019531 88.632812 139.144531 88.511719 139.441406 Z M 88.511719 139.441406 "
       id="path142" />
  </g>
</svg>
