<?xml version="1.0" encoding="UTF-8" standalone="no"?>
<!-- Created with Inkscape (http://www.inkscape.org/) -->

<svg
   version="1.1"
   id="svg2"
   width="1111.9336"
   height="1111.1917"
   viewBox="0 0 1111.9336 1111.1916"
   sodipodi:docname="radios1.svg"
   inkscape:version="1.2.2 (b0a8486541, 2022-12-01)"
   xmlns:inkscape="http://www.inkscape.org/namespaces/inkscape"
   xmlns:sodipodi="http://sodipodi.sourceforge.net/DTD/sodipodi-0.dtd"
   xmlns="http://www.w3.org/2000/svg"
   xmlns:svg="http://www.w3.org/2000/svg">
  <sodipodi:namedview
     id="namedview109"
     pagecolor="#ffffff"
     bordercolor="#000000"
     borderopacity="0.25"
     inkscape:showpageshadow="2"
     inkscape:pageopacity="0.0"
     inkscape:pagecheckerboard="0"
     inkscape:deskcolor="#d1d1d1"
     showgrid="false"
     inkscape:zoom="0.71061839"
     inkscape:cx="753.56902"
     inkscape:cy="550.92861"
     inkscape:window-width="1883"
     inkscape:window-height="1055"
     inkscape:window-x="37"
     inkscape:window-y="0"
     inkscape:window-maximized="1"
     inkscape:current-layer="svg2" />
  <defs
     id="defs6">
    <clipPath
       clipPathUnits="userSpaceOnUse"
       id="clipPath16">
      <path
         d="M 0,0 H 1157 V 857 H 0 Z"
         id="path14" />
    </clipPath>
    <clipPath
       clipPathUnits="userSpaceOnUse"
       id="clipPath1313">
      <rect
         style="fill:none;stroke:#000000;stroke-width:0.75"
         id="rect1315"
         width="833.9502"
         height="833.39374"
         x="14.036913"
         y="15.31364" />
    </clipPath>
  </defs>
  <g
     id="g10"
     transform="matrix(1.3333333,0,0,1.3333333,-18.715883,-20.418186)"
     clip-path="url(#clipPath1313)">
    <g
       id="g12"
       clip-path="url(#clipPath16)">
      <path
         d="M 0,0 H 1157 V 857 H 0 V 0"
         style="fill:#ffffff;fill-opacity:1;fill-rule:nonzero;stroke:none"
         id="path18" />
      <path
         d="m 90.033058,661.72126 72.877532,81.89332 154.77085,83.39594 z"
         style="fill:#6699ff;fill-opacity:0.0980392;fill-rule:evenodd;stroke:none"
         id="path20" />
      <path
         d="m 181.8802,734.34201 c 0,6.42852 -5.21134,11.63986 -11.63985,11.63986 -6.42851,0 -11.63985,-5.21134 -11.63985,-11.63986 0,-6.42851 5.21134,-11.63985 11.63985,-11.63985 6.42851,0 11.63985,5.21134 11.63985,11.63985 z"
         style="fill:none;stroke:#7f00ff;stroke-width:3;stroke-linecap:round;stroke-linejoin:round;stroke-miterlimit:10;stroke-dasharray:none;stroke-opacity:0.698039"
         id="path22" />
      <path
         d="m 841.66382,431.91668 c 0,226.95908 -183.98668,410.94576 -410.94576,410.94576 -226.95907,0 -410.945758,-183.98668 -410.945758,-410.94576 0,-226.95908 183.986688,-410.94576 410.945758,-410.94576 226.95908,0 410.94576,183.98668 410.94576,410.94576 z"
         style="fill:none;stroke:#000000;stroke-width:3;stroke-linecap:round;stroke-linejoin:round;stroke-miterlimit:10;stroke-dasharray:none;stroke-opacity:0.698039"
         id="path24" />
      <path
         d="m 189.32061,757.84521 c 6.90526,-12.81517 3.61397,-28.73828 -7.80613,-37.76562 -11.4201,-9.02733 -27.6729,-8.5534 -38.54756,1.12405 l 19.94367,22.41094 z"
         style="fill:#006400;fill-opacity:0.0980392;fill-rule:nonzero;stroke:none"
         id="path26" />
      <path
         d="m 189.32061,757.84521 c 6.90526,-12.81517 3.61397,-28.73828 -7.80613,-37.76562 -11.4201,-9.02733 -27.6729,-8.5534 -38.54756,1.12405 l 19.94367,22.41094 z"
         style="fill:none;stroke:#006400;stroke-width:3;stroke-linecap:round;stroke-linejoin:round;stroke-miterlimit:10;stroke-dasharray:none;stroke-opacity:0.698039"
         id="path28" />
      <path
         d="m 90.033058,661.72126 72.877532,81.89332"
         style="fill:none;stroke:#6699ff;stroke-width:3;stroke-linecap:round;stroke-linejoin:round;stroke-miterlimit:10;stroke-dasharray:none;stroke-opacity:0.698039"
         id="path30" />
      <path
         d="m 162.91059,743.61458 154.77085,83.39594"
         style="fill:none;stroke:#6699ff;stroke-width:3;stroke-linecap:round;stroke-linejoin:round;stroke-miterlimit:10;stroke-dasharray:none;stroke-opacity:0.698039"
         id="path32" />
      <path
         d="M 317.68144,827.01052 90.033058,661.72126"
         style="fill:none;stroke:#6699ff;stroke-width:3;stroke-linecap:round;stroke-linejoin:round;stroke-miterlimit:10;stroke-dasharray:none;stroke-opacity:0.698039"
         id="path34" />
      <path
         d="M 430.71806,431.91668 162.91059,743.61458"
         style="fill:none;stroke:#000000;stroke-width:3;stroke-linecap:round;stroke-linejoin:round;stroke-miterlimit:10;stroke-dasharray:none;stroke-opacity:0.698039"
         id="path36" />
      <path
         d="m 170.24035,734.34201 10.56508,4.88521"
         style="fill:none;stroke:#7f00ff;stroke-width:3;stroke-linecap:round;stroke-linejoin:round;stroke-miterlimit:10;stroke-dasharray:none;stroke-opacity:0.698039"
         id="path38" />
      <path
         d="m 95.033058,661.72126 c 0,2.76143 -2.238576,5 -5,5 -2.761424,0 -5,-2.23857 -5,-5 0,-2.76142 2.238576,-5 5,-5 2.761424,0 5,2.23858 5,5 z"
         style="fill:#4d4dff;fill-opacity:1;fill-rule:nonzero;stroke:none"
         id="path40" />
      <path
         d="m 95.033058,661.72126 c 0,2.76143 -2.238576,5 -5,5 -2.761424,0 -5,-2.23857 -5,-5 0,-2.76142 2.238576,-5 5,-5 2.761424,0 5,2.23858 5,5 z"
         style="fill:none;stroke:#000000;stroke-width:1;stroke-linecap:round;stroke-linejoin:round;stroke-miterlimit:10;stroke-dasharray:none;stroke-opacity:1"
         id="path42" />
      <path
         d="m 167.91059,743.61458 c 0,2.76142 -2.23857,5 -5,5 -2.76142,0 -5,-2.23858 -5,-5 0,-2.76143 2.23858,-5 5,-5 2.76143,0 5,2.23857 5,5 z"
         style="fill:#4d4dff;fill-opacity:1;fill-rule:nonzero;stroke:none"
         id="path44" />
      <path
         d="m 167.91059,743.61458 c 0,2.76142 -2.23857,5 -5,5 -2.76142,0 -5,-2.23858 -5,-5 0,-2.76143 2.23858,-5 5,-5 2.76143,0 5,2.23857 5,5 z"
         style="fill:none;stroke:#000000;stroke-width:1;stroke-linecap:round;stroke-linejoin:round;stroke-miterlimit:10;stroke-dasharray:none;stroke-opacity:1"
         id="path46" />
      <path
         d="m 322.68144,827.01052 c 0,2.76142 -2.23857,5 -5,5 -2.76142,0 -5,-2.23858 -5,-5 0,-2.76143 2.23858,-5 5,-5 2.76143,0 5,2.23857 5,5 z"
         style="fill:#4d4dff;fill-opacity:1;fill-rule:nonzero;stroke:none"
         id="path48" />
      <path
         d="m 322.68144,827.01052 c 0,2.76142 -2.23857,5 -5,5 -2.76142,0 -5,-2.23858 -5,-5 0,-2.76143 2.23858,-5 5,-5 2.76143,0 5,2.23857 5,5 z"
         style="fill:none;stroke:#000000;stroke-width:1;stroke-linecap:round;stroke-linejoin:round;stroke-miterlimit:10;stroke-dasharray:none;stroke-opacity:1"
         id="path50" />
      <path
         d="m 174.24035,734.34201 c 0,2.20914 -1.79086,4 -4,4 -2.20914,0 -4,-1.79086 -4,-4 0,-2.20913 1.79086,-4 4,-4 2.20914,0 4,1.79087 4,4 z"
         style="fill:#444444;fill-opacity:1;fill-rule:nonzero;stroke:none"
         id="path52" />
      <path
         d="m 174.24035,734.34201 c 0,2.20914 -1.79086,4 -4,4 -2.20914,0 -4,-1.79086 -4,-4 0,-2.20913 1.79086,-4 4,-4 2.20914,0 4,1.79087 4,4 z"
         style="fill:none;stroke:#000000;stroke-width:1;stroke-linecap:round;stroke-linejoin:round;stroke-miterlimit:10;stroke-dasharray:none;stroke-opacity:1"
         id="path54" />
      <path
         d="m 434.71806,431.91668 c 0,2.20914 -1.79086,4 -4,4 -2.20914,0 -4,-1.79086 -4,-4 0,-2.20914 1.79086,-4 4,-4 2.20914,0 4,1.79086 4,4 z"
         style="fill:#444444;fill-opacity:1;fill-rule:nonzero;stroke:none"
         id="path56" />
      <path
         d="m 434.71806,431.91668 c 0,2.20914 -1.79086,4 -4,4 -2.20914,0 -4,-1.79086 -4,-4 0,-2.20914 1.79086,-4 4,-4 2.20914,0 4,1.79086 4,4 z"
         style="fill:none;stroke:#000000;stroke-width:1;stroke-linecap:round;stroke-linejoin:round;stroke-miterlimit:10;stroke-dasharray:none;stroke-opacity:1"
         id="path58" />
      <g
         id="g60"
         transform="scale(67)">
        <g
           id="g62"
           transform="translate(3.76119,8.42927)">
          <path
             d="M 0.375,-0.614 0.31,-0.353 h 0.112 c 0,0 0.111,0 0.169,-0.058 0,0 0.044,-0.044 0.054,-0.122 v -0.001 c 0,0 0.001,-0.011 0.001,-0.019 0,0 0,-0.089 -0.126,-0.098 H 0.518 c 0,0 -0.019,-0.001 -0.054,-0.001 0,0 -0.052,0 -0.061,0.001 0,0 -0.018,0.003 -0.024,0.022 v 0 c 0,0 -0.001,0.005 -0.004,0.015 m 0.144,0.274 v 0 c 0,0 0.086,0.032 0.093,0.105 0,0 0.001,0.006 0.001,0.013 0,0 0,0.019 -0.004,0.047 0,0 -0.01,0.08 -0.01,0.114 0,0 0,0.052 0.026,0.059 h 0.001 c 0,0 0.006,0.002 0.013,0.002 0,0 0.043,0 0.073,-0.052 0,0 0.011,-0.017 0.018,-0.039 0,0 0.004,-0.014 0.013,-0.014 0,0 0.012,0 0.012,0.012 0,0 0,0.02 -0.024,0.056 0,0 -0.019,0.029 -0.044,0.045 0,0 -0.024,0.014 -0.052,0.014 0,0 -0.083,0 -0.116,-0.049 0,0 -0.017,-0.024 -0.017,-0.059 0,0 0,-0.021 0.016,-0.085 0,0 0.014,-0.054 0.014,-0.069 0,0 0,-0.062 -0.056,-0.082 v -0.001 c 0,0 -0.023,-0.008 -0.053,-0.008 H 0.304 l -0.066,0.265 -0.003,0.017 c 0,0 0,0.017 0.046,0.018 v 0 0 H 0.3 c 0,0 0.026,0 0.028,0.011 0,0 0,0.02 -0.02,0.02 L 0.182,-0.003 H 0.181 L 0.056,0 H 0.055 c 0,0 -0.014,0 -0.014,-0.011 0,0 0,-0.018 0.015,-0.02 h 0.012 c 0,0 0.065,0 0.078,-0.014 0,0 0.006,-0.007 0.012,-0.028 0,0 0,-0.001 0.001,-0.005 l 0.134,-0.537 c 0,0 0.004,-0.016 0.004,-0.019 0,0 0,-0.012 -0.016,-0.015 H 0.28 0.279 c 0,0 -0.003,0 -0.009,-0.001 0,0 -0.017,-0.002 -0.038,-0.002 0,0 -0.026,0 -0.028,-0.011 0,0 0,-0.018 0.015,-0.02 h 0.014 0.285 c 0,0 0.125,0 0.186,0.066 0,0 0.035,0.036 0.035,0.084 0,0 0,0.087 -0.107,0.149 0,0 -0.052,0.031 -0.113,0.044 z"
             style="fill:#000000;fill-opacity:1;fill-rule:nonzero;stroke:none"
             id="path64" />
        </g>
      </g>
      <g
         id="g66"
         transform="scale(67)">
        <g
           id="g68"
           transform="translate(2.32836,10.74443)">
          <path
             d="m 0.088,-0.059 v 0 L 0.146,-0.29 c 0,0 0.016,-0.064 0.016,-0.084 0,0 0,-0.046 -0.031,-0.046 0,0 -0.041,0 -0.067,0.095 0,0 -0.003,0.011 -0.006,0.024 0,0 -0.011,0.022 -0.017,0.023 0,0 -0.012,0 -0.012,-0.01 0,0 0,-0.016 0.018,-0.067 0,0 0.007,-0.018 0.013,-0.03 0,0 0.024,-0.049 0.06,-0.056 0,0 0.007,-0.001 0.014,-0.001 0,0 0.056,0 0.081,0.048 0,0 0.006,0.011 0.009,0.024 0,0 0.001,0.002 0.001,0.005 0,0 0.058,-0.072 0.128,-0.077 0,0 0.056,0 0.076,0.039 0,0 0.007,0.012 0.007,0.026 0,0 0,0.039 -0.033,0.054 0,0 -0.011,0.005 -0.022,0.005 0,0 -0.031,0 -0.037,-0.027 0,0 -10e-4,-0.004 -10e-4,-0.008 0,0 0,-0.033 0.034,-0.049 l 0.001,-0.001 c 0,0 0.008,-0.003 0.017,-0.005 l -0.02,-0.009 c 0,0 -0.013,-0.002 -0.022,-0.003 0,0 -0.042,0 -0.08,0.033 0,0 -0.031,0.028 -0.053,0.074 0,0 -0.002,0.005 -0.003,0.008 l -0.032,0.13 -0.04,0.158 c 0,0 -0.009,0.026 -0.037,0.028 0,0 -0.025,-0.005 -0.029,-0.027 0,0 0,0.002 0.009,-0.043 z"
             style="fill:#7f00ff;fill-opacity:1;fill-rule:nonzero;stroke:none"
             id="path70" />
        </g>
      </g>
      <g
         id="g72"
         transform="scale(35)">
        <g
           id="g74"
           transform="translate(5.6,20.94469)">
          <path
             d="m 0.547,-0.49 c 0,0 0,0.071 -0.027,0.1725 0,0 -0.027,0.1015 -0.084,0.1845 0,0 -0.048,0.072 -0.1085,0.1065 0,0 -0.0605,0.0345 -0.1155,0.0345 0,0 -0.072,0 -0.119,-0.0535 0,0 -0.047,-0.0535 -0.047,-0.1575 0,0 0,-0.064 0.0225,-0.1535 0,0 0.0225,-0.0895 0.0595,-0.1575 0,0 0.053,-0.096 0.121,-0.142 0,0 0.068,-0.046 0.133,-0.046 0,0 0.026,0 0.052,0.009 0,0 0.026,0.009 0.053,0.0305 0,0 0.027,0.0215 0.0435,0.066 0,0 0.0165,0.0445 0.0165,0.1065 m -0.349,0.119 h 0.209 c 0,0 0.033,-0.126 0.033,-0.192 0,0 0,-0.103 -0.06,-0.103 0,0 -0.059,0 -0.112,0.094 0,0 -0.037,0.064 -0.07,0.201 m 0.197,0.048 H 0.186 c 0,0 -0.033,0.129 -0.033,0.193 0,0 0,0.04 0.012,0.067 0,0 0.016,0.035 0.049,0.035 0,0 0.013,0 0.0265,-0.0045 0,0 0.0135,-0.0045 0.0345,-0.0225 0,0 0.021,-0.018 0.04,-0.048 0,0 0.019,-0.03 0.0405,-0.087 0,0 0.0215,-0.057 0.0395,-0.133 z"
             style="fill:#339900;fill-opacity:1;fill-rule:nonzero;stroke:none"
             id="path76" />
        </g>
        <g
           id="g78"
           transform="translate(6.47178,20.94469)">
          <path
             d="M 0.788,-0.332 H 0.105 c 0,0 -0.041,0 -0.041,-0.03 0,0 0,-0.031 0.046,-0.031 h 0.673 c 0,0 0.046,0 0.046,0.031 0,0 0,0.03 -0.041,0.03 M 0.783,-0.108 H 0.11 c 0,0 -0.046,0 -0.046,-0.031 0,0 0,-0.03 0.041,-0.03 h 0.683 c 0,0 0.041,0 0.041,0.03 0,0 0,0.031 -0.046,0.031 z"
             style="fill:#339900;fill-opacity:1;fill-rule:nonzero;stroke:none"
             id="path80" />
        </g>
        <g
           id="g82"
           transform="translate(7.64356,20.94469)">
          <path
             d="m 0.354,-0.623 v 0.576 h 0.14 V 0 c 0,0 -0.044,-0.003 -0.199,-0.003 0,0 -0.155,0 -0.199,0.003 v -0.047 h 0.139 v -0.517 c 0,0 -0.062,0.02 -0.13,0.02 h -0.02 v -0.047 h 0.02 c 0,0 0.124,0 0.201,-0.057 0,0 0.009,-0.007 0.022,-0.007 0,0 0.018,0 0.022,0.0065 0,0 0.004,0.0065 0.004,0.0255 z"
             style="fill:#339900;fill-opacity:1;fill-rule:nonzero;stroke:none"
             id="path84" />
        </g>
        <g
           id="g86"
           transform="translate(8.21856,20.94469)">
          <path
             d="m 0.184,-0.342 c 0,0 0.042,-0.076 0.12,-0.076 0,0 0.095,0 0.1585,0.056 0,0 0.0635,0.056 0.0635,0.157 0,0 0,0.099 -0.065,0.1575 0,0 -0.065,0.0585 -0.17,0.0585 0,0 -0.131,0 -0.193,-0.1 0,0 -0.05,-0.084 -0.05,-0.228 0,0 0,-0.09 0.0275,-0.1585 0,0 0.0275,-0.0685 0.0725,-0.106 0,0 0.045,-0.0375 0.096,-0.0555 0,0 0.051,-0.018 0.105,-0.018 0,0 0.074,0 0.111,0.0365 0,0 0.037,0.0365 0.037,0.0885 0,0 0,0.029 -0.017,0.0465 0,0 -0.017,0.0175 -0.046,0.0175 0,0 -0.028,0 -0.045,-0.018 0,0 -0.017,-0.018 -0.017,-0.044 0,0 0,-0.024 0.014,-0.041 0,0 0.014,-0.017 0.04,-0.021 0,0 -0.026,-0.026 -0.075,-0.026 0,0 -0.045,0 -0.0825,0.0235 0,0 -0.0375,0.0235 -0.0565,0.0595 0,0 -0.028,0.06 -0.028,0.172 v 0.019 m 0.105,0.31 c 0,0 0.029,0 0.049,-0.0095 0,0 0.02,-0.0095 0.03,-0.022 0,0 0.01,-0.0125 0.015,-0.0395 0,0 0.005,-0.027 0.006,-0.046 0,0 0.001,-0.019 0.001,-0.058 0,0 0,-0.039 -5e-4,-0.0575 0,0 -5e-4,-0.0185 -0.0055,-0.046 0,0 -0.005,-0.0275 -0.0145,-0.04 0,0 -0.0095,-0.0125 -0.028,-0.022 0,0 -0.0185,-0.0095 -0.0465,-0.0095 0,0 -0.046,0 -0.0775,0.0425 0,0 -0.0315,0.0425 -0.0315,0.1295 0,0 0,0.091 0.016,0.123 0,0 0.028,0.055 0.087,0.055 z"
             style="fill:#339900;fill-opacity:1;fill-rule:nonzero;stroke:none"
             id="path88" />
        </g>
        <g
           id="g90"
           transform="translate(8.79356,20.94469)">
          <path
             d="m 0.5285,-0.369 c 0,0 0,0 2.5e-4,0.01 0,0 2.5e-4,0.01 2.5e-4,0.04 0,0 0,0.03 -5e-4,0.0505 0,0 -5e-4,0.0205 -0.0055,0.058 0,0 -0.005,0.0375 -0.0135,0.064 0,0 -0.0085,0.0265 -0.0265,0.0585 0,0 -0.018,0.032 -0.043,0.052 0,0 -0.025,0.02 -0.0645,0.0335 0,0 -0.0395,0.0135 -0.0885,0.0135 0,0 -0.05,0 -0.0895,-0.014 0,0 -0.0395,-0.014 -0.064,-0.0335 0,0 -0.0245,-0.0195 -0.0425,-0.052 0,0 -0.018,-0.0325 -0.0265,-0.0585 0,0 -0.0085,-0.026 -0.0135,-0.064 0,0 -0.005,-0.038 -0.0055,-0.058 0,0 -5e-4,-0.02 -5e-4,-0.05 0,0 0,-0.03 5e-4,-0.05 0,0 5e-4,-0.02 0.0055,-0.0585 0,0 0.005,-0.0385 0.0135,-0.0655 0,0 0.0085,-0.027 0.0265,-0.06 0,0 0.018,-0.033 0.0425,-0.0535 0,0 0.0245,-0.0205 0.064,-0.0345 0,0 0.0395,-0.014 0.0895,-0.014 0,0 0.05,0 0.0895,0.0145 0,0 0.0395,0.0145 0.064,0.0345 0,0 0.0245,0.02 0.0425,0.0535 0,0 0.018,0.0335 0.0265,0.06 0,0 0.0085,0.0265 0.0135,0.065 0,0 0.005,0.0385 0.0055,0.0585 M 0.287,-0.025 c 0,0 0.02,0 0.039,-0.0065 0,0 0.019,-0.0065 0.0405,-0.032 0,0 0.0215,-0.0255 0.0275,-0.0685 0,0 0.007,-0.052 0.007,-0.199 0,0 0,-0.188 -0.017,-0.225 0,0 -0.013,-0.031 -0.04,-0.047 0,0 -0.027,-0.016 -0.057,-0.016 0,0 -0.018,0 -0.0365,0.005 0,0 -0.0185,0.005 -0.0415,0.0295 0,0 -0.023,0.0245 -0.028,0.0645 0,0 -0.008,0.052 -0.008,0.189 0,0 0,0.159 0.009,0.211 0,0 0.009,0.049 0.0405,0.072 0,0 0.0315,0.023 0.0645,0.023 z"
             style="fill:#339900;fill-opacity:1;fill-rule:nonzero;stroke:none"
             id="path92" />
        </g>
        <g
           id="g94"
           transform="matrix(0.7,0,0,0.7,9.36856,20.5318)">
          <path
             d="m 0.51,-0.25 c 0,0 0,0.099 -0.0615,0.161 0,0 -0.0615,0.062 -0.1615,0.062 0,0 -0.099,0 -0.161,-0.061 0,0 -0.062,-0.061 -0.062,-0.163 0,0 0,-0.099 0.0615,-0.161 0,0 0.0615,-0.062 0.1615,-0.062 0,0 0.099,0 0.161,0.061 0,0 0.062,0.061 0.062,0.163 m -0.223,0.162 c 0,0 0.073,0 0.1175,-0.043 0,0 0.0445,-0.043 0.0445,-0.12 0,0 0,-0.073 -0.0435,-0.1175 0,0 -0.0435,-0.0445 -0.1185,-0.0445 0,0 -0.073,0 -0.1175,0.043 0,0 -0.0445,0.043 -0.0445,0.12 0,0 0,0.073 0.0435,0.1175 0,0 0.0435,0.0445 0.1185,0.0445 z"
             style="fill:#339900;fill-opacity:1;fill-rule:nonzero;stroke:none"
             id="path96" />
        </g>
      </g>
      <g
         id="g98"
         transform="scale(35)">
        <g
           id="g100"
           transform="translate(7.14286,22.18686)">
          <path
             d="m 0.515,-0.317 -0.023,0.089 c 0,0 -0.005,0.022 -0.022,0.09 0,0 -0.014,0.056 -0.014,0.073 0,0 0,0.037 0.023,0.037 0,0 0.043,0 0.068,-0.1 0,0 0.007,-0.028 0.008,-0.029 0,0 0.005,-0.005 0.02,-0.005 0,0 0.024,0 0.024,0.014 0,0 0,0.008 -0.011,0.0405 0,0 -0.011,0.0325 -0.027,0.0585 0,0 -0.033,0.057 -0.087,0.057 0,0 -0.077,0 -0.115,-0.054 0,0 -0.058,0.054 -0.139,0.054 0,0 -0.072,0 -0.1235,-0.04 0,0 -0.0515,-0.04 -0.0515,-0.125 0,0 0,-0.111 0.0795,-0.203 0,0 0.0795,-0.092 0.2025,-0.092 0,0 0.067,0 0.106,0.042 0,0 0.02,-0.025 0.051,-0.025 0,0 0.018,0 0.0325,0.011 0,0 0.0145,0.011 0.0145,0.033 0,0 0,0.007 -0.016,0.074 M 0.349,-0.093 0.41,-0.344 0.412,-0.358 c 0,0 0,-0.014 -0.0225,-0.036 0,0 -0.0225,-0.022 -0.0605,-0.022 0,0 -0.079,0 -0.121,0.098 0,0 -0.014,0.034 -0.032,0.106 0,0 -0.018,0.072 -0.018,0.108 0,0 0,0.076 0.067,0.076 0,0 0.034,0 0.067,-0.0185 0,0 0.033,-0.0185 0.057,-0.0465 z"
             style="fill:#0099cc;fill-opacity:1;fill-rule:nonzero;stroke:none"
             id="path102" />
        </g>
        <g
           id="g104"
           transform="translate(8.05363,22.18686)">
          <path
             d="m 0.829,-0.479 c 0,0 0,0.078 -0.0545,0.128 0,0 -0.0545,0.05 -0.1375,0.05 0,0 -0.033,0 -0.0685,-0.0105 0,0 -0.0355,-0.0105 -0.06,-0.0225 0,0 -0.0245,-0.012 -0.0645,-0.035 0,0 -0.038,-0.022 -0.0625,-0.035 0,0 -0.0245,-0.013 -0.0595,-0.024 0,0 -0.035,-0.011 -0.066,-0.011 0,0 -0.054,0 -0.098,0.026 0,0 -0.048,0.03 -0.051,0.074 0,0 -0.003,0.038 -0.021,0.038 0,0 -0.01,0 -0.016,-0.013 0,0 -0.006,-0.013 -0.006,-0.032 0,0 0,-0.078 0.0545,-0.128 0,0 0.0545,-0.05 0.1375,-0.05 0,0 0.074,0 0.186,0.064 0,0 0.043,0.025 0.0675,0.0375 0,0 0.0245,0.0125 0.0605,0.0245 0,0 0.036,0.012 0.067,0.012 0,0 0.052,0 0.0985,-0.027 0,0 0.0465,-0.027 0.0505,-0.072 0,0 0.004,-0.039 0.022,-0.039 0,0 0.008,0 0.0145,0.012 0,0 0.0065,0.012 0.0065,0.033 m 0,0.267 c 0,0 0,0.078 -0.0545,0.128 0,0 -0.0545,0.05 -0.1375,0.05 0,0 -0.033,0 -0.0685,-0.0105 0,0 -0.0355,-0.0105 -0.06,-0.0225 0,0 -0.0245,-0.012 -0.0645,-0.035 0,0 -0.038,-0.022 -0.0625,-0.035 0,0 -0.0245,-0.013 -0.0595,-0.024 0,0 -0.035,-0.011 -0.066,-0.011 0,0 -0.054,0 -0.098,0.026 0,0 -0.048,0.03 -0.051,0.074 0,0 -0.003,0.038 -0.021,0.038 0,0 -0.01,0 -0.016,-0.013 0,0 -0.006,-0.013 -0.006,-0.032 0,0 0,-0.078 0.0545,-0.128 0,0 0.0545,-0.05 0.1375,-0.05 0,0 0.074,0 0.186,0.064 0,0 0.043,0.025 0.0675,0.0375 0,0 0.0245,0.0125 0.0605,0.0245 0,0 0.036,0.012 0.067,0.012 0,0 0.052,0 0.0985,-0.027 0,0 0.0465,-0.027 0.0505,-0.072 0,0 0.003,-0.039 0.021,-0.039 0,0 0.01,0 0.016,0.0135 0,0 0.006,0.0135 0.006,0.0315 z"
             style="fill:#0099cc;fill-opacity:1;fill-rule:nonzero;stroke:none"
             id="path106" />
        </g>
        <g
           id="g108"
           transform="translate(9.22541,22.18686)">
          <path
             d="m 0.352,-0.352 c 0,0 0.051,0.011 0.0875,0.0315 0,0 0.0365,0.0205 0.054,0.046 0,0 0.0175,0.0255 0.025,0.048 0,0 0.0075,0.0225 0.0075,0.0465 0,0 0,0.077 -0.0635,0.134 0,0 -0.0635,0.057 -0.1885,0.057 0,0 -0.098,0 -0.162,-0.0415 0,0 -0.064,-0.0415 -0.064,-0.1085 0,0 0,-0.037 0.022,-0.0575 0,0 0.022,-0.0205 0.055,-0.0205 0,0 0.033,0 0.0545,0.021 0,0 0.0215,0.021 0.0215,0.055 0,0 0,0.059 -0.058,0.075 0,0 0.054,0.034 0.126,0.034 0,0 0.03,0 0.051,-0.012 0,0 0.021,-0.012 0.031,-0.0265 0,0 0.01,-0.0145 0.0155,-0.0385 0,0 0.0055,-0.024 0.006,-0.0375 0,0 5e-4,-0.0135 5e-4,-0.0345 0,0 0,-0.022 -5e-4,-0.0355 0,0 -5e-4,-0.0135 -0.0065,-0.038 0,0 -0.006,-0.0245 -0.0165,-0.0385 0,0 -0.0105,-0.014 -0.0325,-0.0255 0,0 -0.022,-0.0115 -0.053,-0.0115 H 0.22 c 0,0 -0.011,0 -0.0155,-5e-4 0,0 -0.0045,-5e-4 -0.0085,-0.0045 0,0 -0.004,-0.004 -0.004,-0.013 0,0 0,-0.016 0.012,-0.017 0,0 0.011,-0.002 0.048,-0.004 0,0 0.025,-0.001 0.044,-0.0115 0,0 0.019,-0.0105 0.0295,-0.0275 0,0 0.0105,-0.017 0.0175,-0.033 0,0 0.007,-0.016 0.01,-0.035 0,0 0.003,-0.019 0.0035,-0.0275 0,0 5e-4,-0.0085 5e-4,-0.0155 0,0 0,-0.097 -0.086,-0.097 0,0 -0.065,0 -0.11,0.036 0,0 0.058,0.014 0.058,0.07 0,0 0,0.029 -0.019,0.049 0,0 -0.019,0.02 -0.051,0.02 0,0 -0.029,0 -0.049,-0.0195 0,0 -0.02,-0.0195 -0.02,-0.0505 0,0 0,-0.061 0.0545,-0.1025 0,0 0.0545,-0.0415 0.1425,-0.0415 0,0 0.102,0 0.1595,0.0395 0,0 0.0575,0.0395 0.0575,0.0995 0,0 0,0.06 -0.042,0.103 0,0 -0.042,0.043 -0.1,0.061 z"
             style="fill:#0099cc;fill-opacity:1;fill-rule:nonzero;stroke:none"
             id="path110" />
        </g>
        <g
           id="g112"
           transform="translate(9.80041,22.18686)">
          <path
             d="m 0.5285,-0.369 c 0,0 0,0 2.5e-4,0.01 0,0 2.5e-4,0.01 2.5e-4,0.04 0,0 0,0.03 -5e-4,0.0505 0,0 -5e-4,0.0205 -0.0055,0.058 0,0 -0.005,0.0375 -0.0135,0.064 0,0 -0.0085,0.0265 -0.0265,0.0585 0,0 -0.018,0.032 -0.043,0.052 0,0 -0.025,0.02 -0.0645,0.0335 0,0 -0.0395,0.0135 -0.0885,0.0135 0,0 -0.05,0 -0.0895,-0.014 0,0 -0.0395,-0.014 -0.064,-0.0335 0,0 -0.0245,-0.0195 -0.0425,-0.052 0,0 -0.018,-0.0325 -0.0265,-0.0585 0,0 -0.0085,-0.026 -0.0135,-0.064 0,0 -0.005,-0.038 -0.0055,-0.058 0,0 -5e-4,-0.02 -5e-4,-0.05 0,0 0,-0.03 5e-4,-0.05 0,0 5e-4,-0.02 0.0055,-0.0585 0,0 0.005,-0.0385 0.0135,-0.0655 0,0 0.0085,-0.027 0.0265,-0.06 0,0 0.018,-0.033 0.0425,-0.0535 0,0 0.0245,-0.0205 0.064,-0.0345 0,0 0.0395,-0.014 0.0895,-0.014 0,0 0.05,0 0.0895,0.0145 0,0 0.0395,0.0145 0.064,0.0345 0,0 0.0245,0.02 0.0425,0.0535 0,0 0.018,0.0335 0.0265,0.06 0,0 0.0085,0.0265 0.0135,0.065 0,0 0.005,0.0385 0.0055,0.0585 M 0.287,-0.025 c 0,0 0.02,0 0.039,-0.0065 0,0 0.019,-0.0065 0.0405,-0.032 0,0 0.0215,-0.0255 0.0275,-0.0685 0,0 0.007,-0.052 0.007,-0.199 0,0 0,-0.188 -0.017,-0.225 0,0 -0.013,-0.031 -0.04,-0.047 0,0 -0.027,-0.016 -0.057,-0.016 0,0 -0.018,0 -0.0365,0.005 0,0 -0.0185,0.005 -0.0415,0.0295 0,0 -0.023,0.0245 -0.028,0.0645 0,0 -0.008,0.052 -0.008,0.189 0,0 0,0.159 0.009,0.211 0,0 0.009,0.049 0.0405,0.072 0,0 0.0315,0.023 0.0645,0.023 z"
             style="fill:#0099cc;fill-opacity:1;fill-rule:nonzero;stroke:none"
             id="path114" />
        </g>
        <g
           id="g116"
           transform="translate(10.37541,22.18686)">
          <path
             d="m 0.09716797,0 c 0,0 -0.0053711,0 -0.0087891,-0.00341797 0,0 -0.003418,-0.00341797 -0.003418,-0.00878906 v -0.11181641 c 0,0 0,-0.004395 0.0036621,-0.007568 0,0 0.0036621,-0.003174 0.0085449,-0.003174 h 0.11181641 c 0,0 0.003906,0 0.007568,0.003174 0,0 0.003662,0.003174 0.003662,0.007568 v 0.11181641 c 0,0 0,0.00537109 -0.003418,0.00878906 0,0 -0.003418,0.00341797 -0.007813,0.00341797 z"
             style="fill:#0099cc;fill-opacity:1;fill-rule:nonzero;stroke:none"
             id="path118" />
        </g>
        <g
           id="g120"
           transform="translate(10.68141,22.18686)">
          <path
             d="m 0.199,-0.479 0.15,0.084 c 0,0 0.07,-0.046 0.07,-0.112 0,0 0,-0.051 -0.0355,-0.08 0,0 -0.0355,-0.029 -0.0985,-0.029 0,0 -0.02,0 -0.038,0.0025 0,0 -0.018,0.0025 -0.041,0.0095 0,0 -0.023,0.007 -0.037,0.0235 0,0 -0.014,0.0165 -0.014,0.0415 0,0 0,0.035 0.044,0.06 m 0.194,0.109 c 0,0 0.027,0.016 0.043,0.0265 0,0 0.016,0.0105 0.0405,0.0335 0,0 0.0245,0.023 0.037,0.054 0,0 0.0125,0.031 0.0125,0.069 0,0 0,0.087 -0.063,0.1425 0,0 -0.063,0.0555 -0.178,0.0555 0,0 -0.104,0 -0.1705,-0.043 0,0 -0.0665,-0.043 -0.0665,-0.129 0,0 0,-0.112 0.128,-0.168 0,0 -0.096,-0.054 -0.096,-0.151 0,0 0,-0.076 0.0545,-0.1255 0,0 0.0545,-0.0495 0.1545,-0.0495 0,0 0.091,0 0.148,0.037 0,0 0.057,0.037 0.057,0.11 0,0 0,0.086 -0.101,0.138 m -0.171,0.068 c 0,0 -0.088,0.05 -0.088,0.141 0,0 0,0.059 0.041,0.094 0,0 0.041,0.035 0.114,0.035 0,0 0.035,0 0.0655,-0.0065 0,0 0.0305,-0.0065 0.058,-0.0305 0,0 0.0275,-0.024 0.0275,-0.063 0,0 0,-0.023 -0.0125,-0.041 0,0 -0.0125,-0.018 -0.026,-0.0275 0,0 -0.0135,-0.0095 -0.0425,-0.0255 0,0 -0.112,-0.063 -0.137,-0.076 z"
             style="fill:#0099cc;fill-opacity:1;fill-rule:nonzero;stroke:none"
             id="path122" />
        </g>
        <g
           id="g124"
           transform="translate(11.25641,22.18686)">
          <path
             d="m 0.517,-0.201 c 0,0 0,0.093 -0.07,0.1525 0,0 -0.07,0.0595 -0.188,0.0595 0,0 -0.089,0 -0.1455,-0.0515 0,0 -0.0565,-0.0515 -0.0565,-0.1185 0,0 0,-0.028 0.0145,-0.045 0,0 0.0145,-0.017 0.028,-0.021 0,0 0.0135,-0.004 0.0245,-0.004 0,0 0.024,0 0.0455,0.0165 0,0 0.0215,0.0165 0.0215,0.0515 0,0 0,0.03 -0.0185,0.0475 0,0 -0.0185,0.0175 -0.0465,0.0195 0,0 0.046,0.062 0.129,0.062 0,0 0.025,0 0.0445,-0.006 0,0 0.0195,-0.006 0.032,-0.015 0,0 0.0125,-0.009 0.021,-0.0245 0,0 0.0085,-0.0155 0.013,-0.028 0,0 0.0045,-0.0125 0.0065,-0.0335 0,0 0.002,-0.021 0.0025,-0.033 0,0 5e-4,-0.012 5e-4,-0.033 0,0 0,-0.032 -5e-4,-0.049 0,0 -5e-4,-0.017 -0.005,-0.0435 0,0 -0.0045,-0.0265 -0.0135,-0.04 0,0 -0.009,-0.0135 -0.0265,-0.0245 0,0 -0.0175,-0.011 -0.0435,-0.011 0,0 -0.087,0 -0.134,0.056 0,0 -0.01,0.012 -0.022,0.012 0,0 -0.01,0 -0.015,-0.0045 0,0 -0.005,-0.0045 -0.006,-0.01 0,0 -0.001,-0.0055 -0.001,-0.0165 v -0.292 c 0,0 0,-0.01 5e-4,-0.0145 0,0 5e-4,-0.0045 0.0035,-0.0085 0,0 0.003,-0.004 0.01,-0.004 0,0 0.001,0 0.013,0.004 0,0 0.081,0.028 0.155,0.028 0,0 0.08,0 0.153,-0.028 0,0 0.011,-0.004 0.015,-0.004 0,0 0.014,0 0.014,0.018 0,0 0,0.011 -0.0175,0.0325 0,0 -0.0175,0.0215 -0.0465,0.0455 0,0 -0.029,0.024 -0.076,0.042 0,0 -0.047,0.018 -0.098,0.018 0,0 -0.034,0 -0.073,-0.007 v 0.132 c 0,0 0.051,-0.035 0.129,-0.035 0,0 0.107,0 0.167,0.059 0,0 0.06,0.059 0.06,0.149 z"
             style="fill:#0099cc;fill-opacity:1;fill-rule:nonzero;stroke:none"
             id="path126" />
        </g>
      </g>
      <g
         id="g128"
         transform="scale(35)">
        <g
           id="g130"
           transform="translate(10.37143,20.86543)">
          <path
             d="m 0.449,-0.174 v 0 L 0.421,0 H 0.05 c 0,0 0,-0.025 0.006,-0.032 l 0.005,-0.005 0.192,-0.214 c 0,0 0.105,-0.118 0.105,-0.221 0,0 0,-0.089 -0.054,-0.135 L 0.303,-0.608 H 0.302 c 0,0 -0.032,-0.027 -0.078,-0.027 0,0 -0.072,0 -0.115,0.062 0,0 -0.012,0.018 -0.02,0.04 0,0 0.003,-0.001 0.013,-0.001 0,0 0.04,0 0.051,0.036 v 0.001 c 0,0 0.002,0.007 0.002,0.015 0,0 0,0.04 -0.038,0.051 0,0 -0.008,0.002 -0.014,0.002 0,0 -0.037,0 -0.049,-0.031 0,0 -0.004,-0.011 -0.004,-0.025 0,0 0,-0.077 0.059,-0.132 0,0 0.053,-0.049 0.128,-0.049 0,0 0.11,0 0.171,0.074 0,0 0.035,0.043 0.04,0.102 0,0 0.001,0.009 0.001,0.018 0,0 0,0.073 -0.055,0.139 0,0 -0.029,0.034 -0.09,0.09 l -0.061,0.054 -0.01,0.009 -0.106,0.103 h 0.18 c 0,0 0.088,0 0.095,-0.008 0,0 0.01,-0.014 0.022,-0.089 z"
             style="fill:#000000;fill-opacity:1;fill-rule:nonzero;stroke:none"
             id="path132" />
        </g>
        <g
           id="g134"
           transform="translate(10.87143,20.86543)">
          <path
             d="M 0.375,-0.614 0.31,-0.353 h 0.112 c 0,0 0.111,0 0.169,-0.058 0,0 0.044,-0.044 0.054,-0.122 v -0.001 c 0,0 0.001,-0.011 0.001,-0.019 0,0 0,-0.089 -0.126,-0.098 H 0.518 c 0,0 -0.019,-0.001 -0.054,-0.001 0,0 -0.052,0 -0.061,0.001 0,0 -0.018,0.003 -0.024,0.022 v 0 c 0,0 -0.001,0.005 -0.004,0.015 m 0.144,0.274 v 0 c 0,0 0.086,0.032 0.093,0.105 0,0 0.001,0.006 0.001,0.013 0,0 0,0.019 -0.004,0.047 0,0 -0.01,0.08 -0.01,0.114 0,0 0,0.052 0.026,0.059 h 0.001 c 0,0 0.006,0.002 0.013,0.002 0,0 0.043,0 0.073,-0.052 0,0 0.011,-0.017 0.018,-0.039 0,0 0.004,-0.014 0.013,-0.014 0,0 0.012,0 0.012,0.012 0,0 0,0.02 -0.024,0.056 0,0 -0.019,0.029 -0.044,0.045 0,0 -0.024,0.014 -0.052,0.014 0,0 -0.083,0 -0.116,-0.049 0,0 -0.017,-0.024 -0.017,-0.059 0,0 0,-0.021 0.016,-0.085 0,0 0.014,-0.054 0.014,-0.069 0,0 0,-0.062 -0.056,-0.082 v -0.001 c 0,0 -0.023,-0.008 -0.053,-0.008 H 0.304 l -0.066,0.265 -0.003,0.017 c 0,0 0,0.017 0.046,0.018 v 0 0 H 0.3 c 0,0 0.026,0 0.028,0.011 0,0 0,0.02 -0.02,0.02 L 0.182,-0.003 H 0.181 L 0.056,0 H 0.055 c 0,0 -0.014,0 -0.014,-0.011 0,0 0,-0.018 0.015,-0.02 h 0.012 c 0,0 0.065,0 0.078,-0.014 0,0 0.006,-0.007 0.012,-0.028 0,0 0,-0.001 0.001,-0.005 l 0.134,-0.537 c 0,0 0.004,-0.016 0.004,-0.019 0,0 0,-0.012 -0.016,-0.015 H 0.28 0.279 c 0,0 -0.003,0 -0.009,-0.001 0,0 -0.017,-0.002 -0.038,-0.002 0,0 -0.026,0 -0.028,-0.011 0,0 0,-0.018 0.015,-0.02 h 0.014 0.285 c 0,0 0.125,0 0.186,0.066 0,0 0.035,0.036 0.035,0.084 0,0 0,0.087 -0.107,0.149 0,0 -0.052,0.031 -0.113,0.044 z"
             style="fill:#000000;fill-opacity:1;fill-rule:nonzero;stroke:none"
             id="path136" />
        </g>
        <g
           id="g138"
           transform="translate(11.63843,20.86543)">
          <path
             d="m 0.088,-0.059 v 0 L 0.146,-0.29 c 0,0 0.016,-0.064 0.016,-0.084 0,0 0,-0.046 -0.031,-0.046 0,0 -0.041,0 -0.067,0.095 0,0 -0.003,0.011 -0.006,0.024 0,0 -0.011,0.022 -0.017,0.023 0,0 -0.012,0 -0.012,-0.01 0,0 0,-0.016 0.018,-0.067 0,0 0.007,-0.018 0.013,-0.03 0,0 0.024,-0.049 0.06,-0.056 0,0 0.007,-0.001 0.014,-0.001 0,0 0.056,0 0.081,0.048 0,0 0.006,0.011 0.009,0.024 0,0 0.001,0.002 0.001,0.005 0,0 0.058,-0.072 0.128,-0.077 0,0 0.056,0 0.076,0.039 0,0 0.007,0.012 0.007,0.026 0,0 0,0.039 -0.033,0.054 0,0 -0.011,0.005 -0.022,0.005 0,0 -0.031,0 -0.037,-0.027 0,0 -10e-4,-0.004 -10e-4,-0.008 0,0 0,-0.033 0.034,-0.049 l 0.001,-0.001 c 0,0 0.008,-0.003 0.017,-0.005 l -0.02,-0.009 c 0,0 -0.013,-0.002 -0.022,-0.003 0,0 -0.042,0 -0.08,0.033 0,0 -0.031,0.028 -0.053,0.074 0,0 -0.002,0.005 -0.003,0.008 l -0.032,0.13 -0.04,0.158 c 0,0 -0.009,0.026 -0.037,0.028 0,0 -0.025,-0.005 -0.029,-0.027 0,0 0,0.002 0.009,-0.043 z"
             style="fill:#000000;fill-opacity:1;fill-rule:nonzero;stroke:none"
             id="path140" />
        </g>
        <g
           id="g142"
           transform="translate(12.2841,20.86543)">
          <path
             d="m 0.208,-0.194 v 0 c 0,0 -0.086,-0.017 -0.113,-0.033 0,0 -0.01,-0.005 -0.019,-0.013 0,0 -0.043,-0.035 -0.043,-0.085 0,0 0,-0.07 0.062,-0.102 0,0 0.039,-0.021 0.098,-0.021 0,0 0.056,0 0.094,0.028 0,0 0.011,-0.009 0.017,-0.016 0,0 0.013,-0.012 0.02,-0.012 0,0 0.01,0.009 0.011,0.024 v 0.101 c 0,0 0,0.021 -0.006,0.023 H 0.328 L 0.327,-0.299 H 0.322 c 0,0 -0.011,0 -0.012,-0.009 0,0 -0.007,-0.101 -0.083,-0.118 0,0 -0.016,-0.003 -0.034,-0.003 0,0 -0.094,0 -0.11,0.058 0,0 -0.002,0.009 -0.002,0.018 0,0 0,0.051 0.077,0.072 0,0 0.015,0.004 0.046,0.01 0,0 0.072,0.014 0.103,0.039 0,0 0.006,0.004 0.011,0.009 0,0 0.042,0.042 0.042,0.095 0,0 0,0.085 -0.07,0.12 0,0 -0.038,0.019 -0.091,0.019 0,0 -0.065,0 -0.11,-0.043 l -0.02,0.023 c 0,0 -0.02,0.02 -0.025,0.02 0,0 -0.01,-0.009 -0.011,-0.024 v -0.132 c 0,0 0,-0.022 0.007,-0.024 v 0 L 0.041,-0.17 h 0.005 c 0,0 0.01,0 0.013,0.011 0,0 0,0.002 0.001,0.006 0,0 0.026,0.116 0.099,0.137 0,0 0.018,0.005 0.04,0.005 0,0 0.09,0 0.109,-0.063 0,0 0.004,-0.013 0.004,-0.028 0,0 0,-0.073 -0.104,-0.092 z"
             style="fill:#000000;fill-opacity:1;fill-rule:nonzero;stroke:none"
             id="path144" />
        </g>
        <g
           id="g146"
           transform="translate(12.6781,20.86543)">
          <path
             d="m 0.177,-0.442 v 0 0.367 c 0,0 0,0.031 0.012,0.038 v 0 c 0,0 0.012,0.006 0.058,0.006 V 0 c 0,0 -0.102,-0.003 -0.104,-0.003 0,0 -0.014,0 -0.11,0.003 v -0.031 c 0,0 0.059,0 0.069,-0.009 l 0.002,-0.002 c 0,0 0.007,-0.008 0.007,-0.034 v -0.269 c 0,0 0,-0.04 -0.016,-0.048 H 0.094 v 0 L 0.093,-0.394 v 0 c 0,0 -0.013,-0.006 -0.056,-0.006 v -0.031 l 0.14,-0.011 m 0.004,-0.174 c 0,0 0,0.037 -0.033,0.049 0,0 -0.01,0.004 -0.02,0.004 0,0 -0.035,0 -0.049,-0.032 v -0.001 c 0,0 -0.004,-0.01 -0.004,-0.02 0,0 0,-0.031 0.028,-0.046 0,0 0.011,-0.007 0.025,-0.007 0,0 0.034,0 0.048,0.03 0,0 0.005,0.011 0.005,0.023 z"
             style="fill:#000000;fill-opacity:1;fill-rule:nonzero;stroke:none"
             id="path148" />
        </g>
        <g
           id="g150"
           transform="translate(12.9561,20.86543)">
          <path
             d="m 0.11,-0.344 c 0,0 0,-0.039 -0.015,-0.048 0,0 -0.012,-0.007 -0.043,-0.008 h -0.02 v -0.031 l 0.141,-0.011 v 0.105 c 0,0 0.047,-0.105 0.148,-0.105 0,0 0.075,0 0.105,0.037 0,0 0.027,0.031 0.03,0.085 0,0 0.001,0.019 0.001,0.068 v 0.191 c 0,0 0.001,0.024 0.029,0.028 0,0 0.012,0.002 0.049,0.002 V 0 c 0,0 -0.102,-0.003 -0.112,-0.003 0,0 -0.008,0 -0.113,0.003 v -0.031 c 0,0 0.059,0 0.069,-0.009 l 0.002,-0.002 c 0,0 0.007,-0.008 0.007,-0.034 v -0.233 c 0,0 0,-0.099 -0.057,-0.109 0,0 -0.008,-0.002 -0.017,-0.002 0,0 -0.061,0 -0.102,0.053 0,0 -0.033,0.043 -0.033,0.107 v 0.184 c 0,0 0,0.034 0.016,0.04 0,0 0.011,0.005 0.062,0.005 V 0 c 0,0 -0.102,-0.003 -0.112,-0.003 0,0 -0.008,0 -0.113,0.003 v -0.031 c 0,0 0.059,0 0.069,-0.009 l 0.002,-0.002 c 0,0 0.007,-0.008 0.007,-0.034 z"
             style="fill:#000000;fill-opacity:1;fill-rule:nonzero;stroke:none"
             id="path152" />
        </g>
        <g
           id="g154"
           transform="translate(13.67876,20.86543)">
          <path
             d="m 0.455,-0.5 v 0 c 0,0 0,0.153 -0.078,0.31 0,0 -0.07,0.14 -0.155,0.185 0,0 -0.031,0.016 -0.06,0.016 0,0 -0.082,0 -0.11,-0.112 0,0 -0.01,-0.042 -0.01,-0.093 0,0 0,-0.157 0.08,-0.315 0,0 0.07,-0.137 0.155,-0.181 0,0 0.03,-0.015 0.058,-0.015 0,0 0.087,0 0.112,0.127 0,0 0.008,0.038 0.008,0.078 m -0.307,0.137 v 0 h 0.209 c 0,0 0.032,-0.132 0.032,-0.199 0,0 0,-0.113 -0.047,-0.12 0,0 -0.004,-0.001 -0.008,-0.001 0,0 -0.051,0 -0.109,0.105 0,0 -0.038,0.067 -0.076,0.21 0,0 0,0.003 -0.001,0.005 m 0.2,0.032 H 0.14 c 0,0 -0.032,0.121 -0.032,0.198 0,0 0,0.12 0.054,0.122 0,0 0.056,0 0.116,-0.117 0,0 0.039,-0.074 0.07,-0.203 z"
             style="fill:#000000;fill-opacity:1;fill-rule:nonzero;stroke:none"
             id="path156" />
        </g>
        <g
           id="g158"
           transform="translate(14.45354,20.86543)">
          <path
             d="m 0.721,-0.452 c 0,0 0,0.083 -0.066,0.131 0,0 -0.044,0.032 -0.1,0.032 0,0 -0.063,0 -0.148,-0.056 0,0 -0.004,-0.002 -0.012,-0.007 0,0 -0.085,-0.056 -0.124,-0.068 0,0 -0.024,-0.007 -0.049,-0.007 0,0 -0.061,0 -0.103,0.039 0,0 -0.002,0.002 -0.005,0.004 0,0 -0.028,0.029 -0.03,0.071 0,0 0,0.019 -0.014,0.023 0,0 -0.014,0 -0.014,-0.03 0,0 0,-0.083 0.066,-0.131 0,0 0.044,-0.032 0.1,-0.032 0,0 0.063,0 0.148,0.056 0,0 0.004,0.002 0.012,0.007 0,0 0.085,0.056 0.124,0.068 0,0 0.024,0.007 0.049,0.007 0,0 0.066,0 0.108,-0.044 0,0 0.028,-0.029 0.03,-0.066 0,0 0.003,-0.027 0.014,-0.027 0,0 0.014,0 0.014,0.03 m 0,0.234 c 0,0 0,0.079 -0.063,0.127 0,0 -0.044,0.035 -0.103,0.035 0,0 -0.063,0 -0.148,-0.056 0,0 -0.004,-0.002 -0.012,-0.007 0,0 -0.085,-0.056 -0.124,-0.068 0,0 -0.024,-0.007 -0.049,-0.007 0,0 -0.061,0 -0.103,0.039 0,0 -0.032,0.03 -0.035,0.075 0,0 0,0.019 -0.014,0.023 0,0 -0.014,0 -0.014,-0.03 0,0 0,-0.083 0.066,-0.131 0,0 0.044,-0.032 0.1,-0.032 0,0 0.063,0 0.148,0.056 0,0 0.004,0.002 0.012,0.007 0,0 0.085,0.056 0.124,0.068 0,0 0.024,0.007 0.049,0.007 0,0 0.07,0 0.112,-0.048 0,0 0.023,-0.026 0.026,-0.057 0,0 0.002,-0.032 0.014,-0.032 0,0 0.014,0 0.014,0.031 z"
             style="fill:#000000;fill-opacity:1;fill-rule:nonzero;stroke:none"
             id="path160" />
        </g>
        <g
           id="g162"
           transform="translate(15.50932,20.86543)">
          <path
             d="m 0.29,-0.352 v 0 c 0,0 0.1,0.02 0.144,0.098 0,0 0.023,0.039 0.023,0.083 0,0 0,0.085 -0.07,0.143 0,0 -0.061,0.05 -0.143,0.05 0,0 -0.099,0 -0.159,-0.059 0,0 -0.043,-0.042 -0.043,-0.098 0,0 0,-0.047 0.042,-0.056 0,0 0.007,-0.002 0.014,-0.002 0,0 0.038,0 0.051,0.032 0,0 0.004,0.013 0.005,0.024 0,0 0,0.04 -0.036,0.052 0,0 -0.014,0.005 -0.03,0.003 0,0 0.037,0.062 0.128,0.074 0,0 0.013,0.002 0.025,0.002 0,0 0.064,0 0.094,-0.063 0,0 0.019,-0.04 0.019,-0.102 0,0 0,-0.133 -0.08,-0.16 0,0 -0.018,-0.006 -0.039,-0.006 H 0.191 c 0,0 -0.022,0 -0.024,-0.011 0,0 0,-0.01 0.015,-0.012 0,0 0.015,0 0.039,-0.003 0,0 0.051,-0.002 0.08,-0.039 v -0.001 l 0.001,-0.001 0.001,-0.001 h 0.001 l 0.006,-0.01 c 0,0 0.028,-0.047 0.028,-0.114 0,0 0,-0.093 -0.072,-0.109 0,0 -0.012,-0.003 -0.024,-0.003 0,0 -0.07,0 -0.114,0.04 0,0 -0.011,0.01 -0.019,0.022 0,0 0.062,0 0.062,0.05 0,0 0,0.036 -0.031,0.048 0,0 -0.009,0.003 -0.02,0.003 0,0 -0.039,0 -0.049,-0.035 v 0 -0.001 c 0,0 -0.002,-0.008 -0.002,-0.016 0,0 0,-0.067 0.066,-0.107 0,0 0.048,-0.029 0.111,-0.029 0,0 0.091,0 0.147,0.054 l 0.002,0.002 c 0,0 0.035,0.036 0.035,0.082 0,0 0,0.083 -0.071,0.139 0,0 -0.031,0.024 -0.069,0.037 z"
             style="fill:#000000;fill-opacity:1;fill-rule:nonzero;stroke:none"
             id="path164" />
        </g>
        <g
           id="g166"
           transform="translate(16.00932,20.86543)">
          <path
             d="m 0.46,-0.32 c 0,0 0,0.146 -0.037,0.226 0,0 -0.059,0.112 -0.174,0.116 0,0 -0.091,0 -0.146,-0.072 0,0 -0.011,-0.013 -0.019,-0.029 0,0 -0.045,-0.083 -0.045,-0.241 0,0 0,-0.147 0.037,-0.227 0,0 0.05,-0.112 0.162,-0.119 H 0.25 c 0,0 0.089,0 0.145,0.071 v 0.001 c 0,0 0.014,0.018 0.025,0.04 0,0 0.04,0.085 0.04,0.234 M 0.249,0 v 0 c 0,0 0.063,0 0.097,-0.061 0,0 0.014,-0.027 0.02,-0.064 0,0 0.011,-0.064 0.011,-0.207 0,0 0,-0.139 -0.01,-0.195 0,0 -0.018,-0.095 -0.092,-0.114 0,0 -0.013,-0.003 -0.026,-0.003 0,0 -0.07,0 -0.102,0.07 0,0 -0.011,0.024 -0.017,0.058 0,0 -0.008,0.054 -0.008,0.184 0,0 0,0.151 0.011,0.211 0,0 0.018,0.096 0.088,0.117 0,0 0.014,0.004 0.028,0.004 z"
             style="fill:#000000;fill-opacity:1;fill-rule:nonzero;stroke:none"
             id="path168" />
        </g>
        <g
           id="g170"
           transform="translate(16.50932,20.86543)">
          <path
             d="M 0.18,-0.083 V 0 H 0.097 v -0.083 z"
             style="fill:#000000;fill-opacity:1;fill-rule:nonzero;stroke:none"
             id="path172" />
        </g>
        <g
           id="g174"
           transform="translate(16.78732,20.86543)">
          <path
             d="m 0.132,-0.328 v 0 c 0,0 0.041,-0.099 0.125,-0.099 0,0 0.092,0 0.151,0.076 0,0 0.033,0.041 0.044,0.096 0,0 0.005,0.025 0.005,0.051 0,0 0,0.111 -0.077,0.178 0,0 -0.056,0.048 -0.129,0.048 0,0 -0.102,0 -0.159,-0.097 0,0 -0.05,-0.087 -0.05,-0.241 0,0 0,-0.173 0.098,-0.275 0,0 0.073,-0.075 0.165,-0.075 0,0 0.087,0 0.117,0.061 0,0 0.01,0.021 0.01,0.047 0,0 0,0.04 -0.037,0.047 0,0 -0.005,0.001 -0.009,0.001 0,0 -0.032,0 -0.043,-0.028 0,0 -0.003,-0.008 -0.003,-0.018 0,0 0,-0.045 0.055,-0.045 0,0 -0.026,-0.04 -0.088,-0.04 0,0 -0.07,0 -0.118,0.063 0,0 -0.057,0.075 -0.057,0.226 v 0.024 m 0.119,0.322 v 0 c 0,0 0.067,0 0.099,-0.065 0,0 0.017,-0.036 0.017,-0.134 0,0 0,-0.1 -0.018,-0.137 0,0 -0.031,-0.062 -0.093,-0.062 0,0 -0.079,0 -0.109,0.094 0,0 -0.013,0.039 -0.013,0.084 0,0 0,0.098 0.018,0.145 0,0 0.019,0.046 0.059,0.066 0,0 0.019,0.009 0.04,0.009 z"
             style="fill:#000000;fill-opacity:1;fill-rule:nonzero;stroke:none"
             id="path176" />
        </g>
        <g
           id="g178"
           transform="translate(17.28732,20.86543)">
          <path
             d="m 0.449,-0.174 v 0 L 0.421,0 H 0.05 c 0,0 0,-0.025 0.006,-0.032 l 0.005,-0.005 0.192,-0.214 c 0,0 0.105,-0.118 0.105,-0.221 0,0 0,-0.089 -0.054,-0.135 L 0.303,-0.608 H 0.302 c 0,0 -0.032,-0.027 -0.078,-0.027 0,0 -0.072,0 -0.115,0.062 0,0 -0.012,0.018 -0.02,0.04 0,0 0.003,-0.001 0.013,-0.001 0,0 0.04,0 0.051,0.036 v 0.001 c 0,0 0.002,0.007 0.002,0.015 0,0 0,0.04 -0.038,0.051 0,0 -0.008,0.002 -0.014,0.002 0,0 -0.037,0 -0.049,-0.031 0,0 -0.004,-0.011 -0.004,-0.025 0,0 0,-0.077 0.059,-0.132 0,0 0.053,-0.049 0.128,-0.049 0,0 0.11,0 0.171,0.074 0,0 0.035,0.043 0.04,0.102 0,0 0.001,0.009 0.001,0.018 0,0 0,0.073 -0.055,0.139 0,0 -0.029,0.034 -0.09,0.09 l -0.061,0.054 -0.01,0.009 -0.106,0.103 h 0.18 c 0,0 0.088,0 0.095,-0.008 0,0 0.01,-0.014 0.022,-0.089 z"
             style="fill:#000000;fill-opacity:1;fill-rule:nonzero;stroke:none"
             id="path180" />
        </g>
      </g>
      <g
         id="g182"
         transform="scale(35)">
        <g
           id="g184"
           transform="translate(10.45714,19.71157)">
          <path
             d="m 0.449,-0.174 v 0 L 0.421,0 H 0.05 c 0,0 0,-0.025 0.006,-0.032 l 0.005,-0.005 0.192,-0.214 c 0,0 0.105,-0.118 0.105,-0.221 0,0 0,-0.089 -0.054,-0.135 L 0.303,-0.608 H 0.302 c 0,0 -0.032,-0.027 -0.078,-0.027 0,0 -0.072,0 -0.115,0.062 0,0 -0.012,0.018 -0.02,0.04 0,0 0.003,-0.001 0.013,-0.001 0,0 0.04,0 0.051,0.036 v 0.001 c 0,0 0.002,0.007 0.002,0.015 0,0 0,0.04 -0.038,0.051 0,0 -0.008,0.002 -0.014,0.002 0,0 -0.037,0 -0.049,-0.031 0,0 -0.004,-0.011 -0.004,-0.025 0,0 0,-0.077 0.059,-0.132 0,0 0.053,-0.049 0.128,-0.049 0,0 0.11,0 0.171,0.074 0,0 0.035,0.043 0.04,0.102 0,0 0.001,0.009 0.001,0.018 0,0 0,0.073 -0.055,0.139 0,0 -0.029,0.034 -0.09,0.09 l -0.061,0.054 -0.01,0.009 -0.106,0.103 h 0.18 c 0,0 0.088,0 0.095,-0.008 0,0 0.01,-0.014 0.022,-0.089 z"
             style="fill:#000000;fill-opacity:1;fill-rule:nonzero;stroke:none"
             id="path186" />
        </g>
        <g
           id="g188"
           transform="translate(10.95714,19.71157)">
          <path
             d="M 0.375,-0.614 0.31,-0.353 h 0.112 c 0,0 0.111,0 0.169,-0.058 0,0 0.044,-0.044 0.054,-0.122 v -0.001 c 0,0 0.001,-0.011 0.001,-0.019 0,0 0,-0.089 -0.126,-0.098 H 0.518 c 0,0 -0.019,-0.001 -0.054,-0.001 0,0 -0.052,0 -0.061,0.001 0,0 -0.018,0.003 -0.024,0.022 v 0 c 0,0 -0.001,0.005 -0.004,0.015 m 0.144,0.274 v 0 c 0,0 0.086,0.032 0.093,0.105 0,0 0.001,0.006 0.001,0.013 0,0 0,0.019 -0.004,0.047 0,0 -0.01,0.08 -0.01,0.114 0,0 0,0.052 0.026,0.059 h 0.001 c 0,0 0.006,0.002 0.013,0.002 0,0 0.043,0 0.073,-0.052 0,0 0.011,-0.017 0.018,-0.039 0,0 0.004,-0.014 0.013,-0.014 0,0 0.012,0 0.012,0.012 0,0 0,0.02 -0.024,0.056 0,0 -0.019,0.029 -0.044,0.045 0,0 -0.024,0.014 -0.052,0.014 0,0 -0.083,0 -0.116,-0.049 0,0 -0.017,-0.024 -0.017,-0.059 0,0 0,-0.021 0.016,-0.085 0,0 0.014,-0.054 0.014,-0.069 0,0 0,-0.062 -0.056,-0.082 v -0.001 c 0,0 -0.023,-0.008 -0.053,-0.008 H 0.304 l -0.066,0.265 -0.003,0.017 c 0,0 0,0.017 0.046,0.018 v 0 0 H 0.3 c 0,0 0.026,0 0.028,0.011 0,0 0,0.02 -0.02,0.02 L 0.182,-0.003 H 0.181 L 0.056,0 H 0.055 c 0,0 -0.014,0 -0.014,-0.011 0,0 0,-0.018 0.015,-0.02 h 0.012 c 0,0 0.065,0 0.078,-0.014 0,0 0.006,-0.007 0.012,-0.028 0,0 0,-0.001 0.001,-0.005 l 0.134,-0.537 c 0,0 0.004,-0.016 0.004,-0.019 0,0 0,-0.012 -0.016,-0.015 H 0.28 0.279 c 0,0 -0.003,0 -0.009,-0.001 0,0 -0.017,-0.002 -0.038,-0.002 0,0 -0.026,0 -0.028,-0.011 0,0 0,-0.018 0.015,-0.02 h 0.014 0.285 c 0,0 0.125,0 0.186,0.066 0,0 0.035,0.036 0.035,0.084 0,0 0,0.087 -0.107,0.149 0,0 -0.052,0.031 -0.113,0.044 z"
             style="fill:#000000;fill-opacity:1;fill-rule:nonzero;stroke:none"
             id="path190" />
        </g>
        <g
           id="g192"
           transform="translate(11.72414,19.71157)">
          <path
             d="m 0.088,-0.059 v 0 L 0.146,-0.29 c 0,0 0.016,-0.064 0.016,-0.084 0,0 0,-0.046 -0.031,-0.046 0,0 -0.041,0 -0.067,0.095 0,0 -0.003,0.011 -0.006,0.024 0,0 -0.011,0.022 -0.017,0.023 0,0 -0.012,0 -0.012,-0.01 0,0 0,-0.016 0.018,-0.067 0,0 0.007,-0.018 0.013,-0.03 0,0 0.024,-0.049 0.06,-0.056 0,0 0.007,-0.001 0.014,-0.001 0,0 0.056,0 0.081,0.048 0,0 0.006,0.011 0.009,0.024 0,0 0.001,0.002 0.001,0.005 0,0 0.058,-0.072 0.128,-0.077 0,0 0.056,0 0.076,0.039 0,0 0.007,0.012 0.007,0.026 0,0 0,0.039 -0.033,0.054 0,0 -0.011,0.005 -0.022,0.005 0,0 -0.031,0 -0.037,-0.027 0,0 -10e-4,-0.004 -10e-4,-0.008 0,0 0,-0.033 0.034,-0.049 l 0.001,-0.001 c 0,0 0.008,-0.003 0.017,-0.005 l -0.02,-0.009 c 0,0 -0.013,-0.002 -0.022,-0.003 0,0 -0.042,0 -0.08,0.033 0,0 -0.031,0.028 -0.053,0.074 0,0 -0.002,0.005 -0.003,0.008 l -0.032,0.13 -0.04,0.158 c 0,0 -0.009,0.026 -0.037,0.028 0,0 -0.025,-0.005 -0.029,-0.027 0,0 0,0.002 0.009,-0.043 z"
             style="fill:#000000;fill-opacity:1;fill-rule:nonzero;stroke:none"
             id="path194" />
        </g>
        <g
           id="g196"
           transform="translate(12.48092,19.71157)">
          <path
             d="m 0.721,-0.452 c 0,0 0,0.083 -0.066,0.131 0,0 -0.044,0.032 -0.1,0.032 0,0 -0.063,0 -0.148,-0.056 0,0 -0.004,-0.002 -0.012,-0.007 0,0 -0.085,-0.056 -0.124,-0.068 0,0 -0.024,-0.007 -0.049,-0.007 0,0 -0.061,0 -0.103,0.039 0,0 -0.002,0.002 -0.005,0.004 0,0 -0.028,0.029 -0.03,0.071 0,0 0,0.019 -0.014,0.023 0,0 -0.014,0 -0.014,-0.03 0,0 0,-0.083 0.066,-0.131 0,0 0.044,-0.032 0.1,-0.032 0,0 0.063,0 0.148,0.056 0,0 0.004,0.002 0.012,0.007 0,0 0.085,0.056 0.124,0.068 0,0 0.024,0.007 0.049,0.007 0,0 0.066,0 0.108,-0.044 0,0 0.028,-0.029 0.03,-0.066 0,0 0.003,-0.027 0.014,-0.027 0,0 0.014,0 0.014,0.03 m 0,0.234 c 0,0 0,0.079 -0.063,0.127 0,0 -0.044,0.035 -0.103,0.035 0,0 -0.063,0 -0.148,-0.056 0,0 -0.004,-0.002 -0.012,-0.007 0,0 -0.085,-0.056 -0.124,-0.068 0,0 -0.024,-0.007 -0.049,-0.007 0,0 -0.061,0 -0.103,0.039 0,0 -0.032,0.03 -0.035,0.075 0,0 0,0.019 -0.014,0.023 0,0 -0.014,0 -0.014,-0.03 0,0 0,-0.083 0.066,-0.131 0,0 0.044,-0.032 0.1,-0.032 0,0 0.063,0 0.148,0.056 0,0 0.004,0.002 0.012,0.007 0,0 0.085,0.056 0.124,0.068 0,0 0.024,0.007 0.049,0.007 0,0 0.07,0 0.112,-0.048 0,0 0.023,-0.026 0.026,-0.057 0,0 0.002,-0.032 0.014,-0.032 0,0 0.014,0 0.014,0.031 z"
             style="fill:#000000;fill-opacity:1;fill-rule:nonzero;stroke:none"
             id="path198" />
        </g>
        <g
           id="g200"
           transform="translate(13.5367,19.71157)">
          <path
             d="m 0.163,-0.457 0.124,0.08 c 0,0 0.099,-0.058 0.099,-0.14 0,0 0,-0.066 -0.06,-0.103 0,0 -0.035,-0.021 -0.077,-0.021 0,0 -0.072,0 -0.113,0.045 v 0 l -0.001,0.001 c 0,0 -0.022,0.026 -0.022,0.057 0,0 0,0.048 0.05,0.081 m 0.146,0.095 v 0 c 0,0 0.077,0.048 0.094,0.066 0,0 0.003,0.002 0.005,0.005 0,0 0.049,0.054 0.049,0.123 0,0 0,0.089 -0.074,0.145 0,0 -0.058,0.045 -0.134,0.045 0,0 -0.095,0 -0.157,-0.059 0,0 -0.05,-0.048 -0.05,-0.114 0,0 0,-0.112 0.144,-0.184 0,0 -0.062,-0.042 -0.073,-0.054 0,0 -0.044,-0.049 -0.044,-0.11 0,0 0,-0.08 0.067,-0.13 0,0 0.05,-0.037 0.114,-0.037 0,0 0.087,0 0.141,0.055 0,0 0.039,0.04 0.039,0.094 0,0 0,0.093 -0.121,0.155 m -0.1,0.042 v 0 c 0,0 -0.112,0.07 -0.117,0.169 0,0 0,0.073 0.063,0.116 0,0 0.042,0.029 0.095,0.029 0,0 0.078,0 0.125,-0.049 0,0 0.032,-0.034 0.032,-0.077 0,0 0,-0.058 -0.064,-0.103 0,0 -0.002,-0.001 -0.011,-0.007 z"
             style="fill:#000000;fill-opacity:1;fill-rule:nonzero;stroke:none"
             id="path202" />
        </g>
        <g
           id="g204"
           transform="translate(14.0367,19.71157)">
          <path
             d="m 0.367,-0.318 c 0,0 -0.04,0.1 -0.125,0.1 0,0 -0.093,0 -0.152,-0.076 v -0.001 c 0,0 -0.048,-0.062 -0.048,-0.146 0,0 0,-0.084 0.049,-0.145 l 0.015,-0.017 c 0,0 0.06,-0.063 0.147,-0.063 0,0 0.1,0 0.155,0.097 0,0 0.049,0.087 0.049,0.24 0,0 0,0.171 -0.092,0.274 0,0 -0.069,0.077 -0.159,0.077 0,0 -0.098,0 -0.129,-0.061 0,0 -0.01,-0.021 -0.01,-0.047 0,0 0,-0.04 0.037,-0.047 0,0 0.005,-0.001 0.009,-0.001 0,0 0.032,0 0.043,0.028 0,0 0.003,0.008 0.003,0.018 0,0 0,0.04 -0.04,0.045 0,0 -0.006,10e-4 -0.012,10e-4 0,0 0.029,0.036 0.098,0.036 0,0 0.071,0 0.116,-0.071 0,0 0.046,-0.073 0.046,-0.209 v -0.032 m -0.124,0.077 c 0,0 0.078,0 0.109,-0.092 0,0 0.013,-0.041 0.013,-0.088 0,0 0,-0.098 -0.016,-0.141 0,0 -0.026,-0.07 -0.083,-0.078 0,0 -0.007,-0.001 -0.013,-0.001 0,0 -0.066,0 -0.1,0.063 0,0 -0.021,0.037 -0.021,0.126 v 0.012 c 0,0 0,0.099 0.018,0.136 0,0 0.031,0.063 0.093,0.063 z"
             style="fill:#000000;fill-opacity:1;fill-rule:nonzero;stroke:none"
             id="path206" />
        </g>
        <g
           id="g208"
           transform="translate(14.5367,19.71157)">
          <path
             d="M 0.18,-0.083 V 0 H 0.097 v -0.083 z"
             style="fill:#000000;fill-opacity:1;fill-rule:nonzero;stroke:none"
             id="path210" />
        </g>
        <g
           id="g212"
           transform="translate(14.8147,19.71157)">
          <path
             d="m 0.028,-0.165 v -0.031 l 0.307,-0.469 c 0,0 0.008,-0.012 0.02,-0.012 0,0 0.014,0 0.016,0.011 v 0.015 0.455 h 0.1 v 0.031 h -0.1 v 0.087 c 0,0 0,0.031 0.012,0.038 0,0 0.014,0.009 0.064,0.009 H 0.468 V 0 c 0,0 -0.041,-0.003 -0.136,-0.003 0,0 -0.094,0 -0.135,0.003 v -0.031 h 0.021 c 0,0 0.062,0 0.072,-0.017 0,0 0.004,-0.007 0.004,-0.03 V -0.165 H 0.028 M 0.3,-0.196 v -0.373 l -0.244,0.373 z"
             style="fill:#000000;fill-opacity:1;fill-rule:nonzero;stroke:none"
             id="path214" />
        </g>
        <g
           id="g216"
           transform="translate(15.3147,19.71157)">
          <path
             d="m 0.163,-0.457 0.124,0.08 c 0,0 0.099,-0.058 0.099,-0.14 0,0 0,-0.066 -0.06,-0.103 0,0 -0.035,-0.021 -0.077,-0.021 0,0 -0.072,0 -0.113,0.045 v 0 l -0.001,0.001 c 0,0 -0.022,0.026 -0.022,0.057 0,0 0,0.048 0.05,0.081 m 0.146,0.095 v 0 c 0,0 0.077,0.048 0.094,0.066 0,0 0.003,0.002 0.005,0.005 0,0 0.049,0.054 0.049,0.123 0,0 0,0.089 -0.074,0.145 0,0 -0.058,0.045 -0.134,0.045 0,0 -0.095,0 -0.157,-0.059 0,0 -0.05,-0.048 -0.05,-0.114 0,0 0,-0.112 0.144,-0.184 0,0 -0.062,-0.042 -0.073,-0.054 0,0 -0.044,-0.049 -0.044,-0.11 0,0 0,-0.08 0.067,-0.13 0,0 0.05,-0.037 0.114,-0.037 0,0 0.087,0 0.141,0.055 0,0 0.039,0.04 0.039,0.094 0,0 0,0.093 -0.121,0.155 m -0.1,0.042 v 0 c 0,0 -0.112,0.07 -0.117,0.169 0,0 0,0.073 0.063,0.116 0,0 0.042,0.029 0.095,0.029 0,0 0.078,0 0.125,-0.049 0,0 0.032,-0.034 0.032,-0.077 0,0 0,-0.058 -0.064,-0.103 0,0 -0.002,-0.001 -0.011,-0.007 z"
             style="fill:#000000;fill-opacity:1;fill-rule:nonzero;stroke:none"
             id="path218" />
        </g>
      </g>
    </g>
  </g>
</svg>
